font.ufo
<glyph name="exclam" format="1">
  <advance width="238"/>
  <unicode hex="0021"/>
  <outline>
    <contour>
      <point x="78" y="219" type="line"/>
      <point x="105" y="212"/>
      <point x="136" y="212"/>
      <point x="160" y="219" type="curve"/>
      <point x="191" y="706" type="line"/>
      <point x="154" y="713"/>
      <point x="94" y="712"/>
      <point x="59" y="699" type="curve"/>
    </contour>
    <contour>
      <point x="119" y="-15" type="curve" smooth="yes"/>
      <point x="163" y="-15"/>
      <point x="198" y="20"/>
      <point x="198" y="64" type="curve" smooth="yes"/>
      <point x="198" y="108"/>
      <point x="163" y="143"/>
      <point x="119" y="143" type="curve" smooth="yes"/>
      <point x="75" y="143"/>
      <point x="40" y="108"/>
      <point x="40" y="64" type="curve" smooth="yes"/>
      <point x="40" y="20"/>
      <point x="75" y="-15"/>
    </contour>
  </outline>
</glyph>
<glyph name="numbersign" format="1">
  <advance width="699"/>
  <unicode hex="0023"/>
  <outline>
    <contour>
      <point x="391" y="271" type="line"/>
      <point x="256" y="271" type="line"/>
      <point x="291" y="434" type="line"/>
      <point x="426" y="434" type="line"/>
    </contour>
    <contour>
      <point x="483" y="271" type="line"/>
      <point x="518" y="434" type="line"/>
      <point x="659" y="434" type="line"/>
      <point x="657" y="471"/>
      <point x="647" y="494"/>
      <point x="626" y="514" type="curve"/>
      <point x="534" y="514" type="line"/>
      <point x="568" y="674" type="line"/>
      <point x="476" y="674" type="line"/>
      <point x="442" y="514" type="line"/>
      <point x="307" y="514" type="line"/>
      <point x="341" y="674" type="line"/>
      <point x="249" y="674" type="line"/>
      <point x="215" y="514" type="line"/>
      <point x="82" y="514" type="line"/>
      <point x="84" y="477"/>
      <point x="94" y="454"/>
      <point x="115" y="434" type="curve"/>
      <point x="199" y="434" type="line"/>
      <point x="164" y="271" type="line"/>
      <point x="40" y="271" type="line"/>
      <point x="42" y="234"/>
      <point x="52" y="211"/>
      <point x="73" y="191" type="curve"/>
      <point x="148" y="191" type="line"/>
      <point x="111" y="17" type="line"/>
      <point x="203" y="17" type="line"/>
      <point x="240" y="191" type="line"/>
      <point x="375" y="191" type="line"/>
      <point x="338" y="17" type="line"/>
      <point x="430" y="17" type="line"/>
      <point x="467" y="191" type="line"/>
      <point x="617" y="191" type="line"/>
      <point x="615" y="228"/>
      <point x="605" y="251"/>
      <point x="584" y="271" type="curve"/>
    </contour>
  </outline>
</glyph>
<glyph name="parenleft" format="1">
  <advance width="308"/>
  <unicode hex="0028"/>
  <outline>
    <contour>
      <point x="235" y="740" type="line"/>
      <point x="124" y="642"/>
      <point x="50" y="451"/>
      <point x="50" y="279" type="curve" smooth="yes"/>
      <point x="50" y="106"/>
      <point x="124" y="-80"/>
      <point x="235" y="-179" type="curve"/>
      <point x="278" y="-134" type="line"/>
      <point x="209" y="-36"/>
      <point x="163" y="133"/>
      <point x="163" y="277" type="curve" smooth="yes"/>
      <point x="163" y="418"/>
      <point x="208" y="591"/>
      <point x="276" y="699" type="curve"/>
    </contour>
  </outline>
</glyph>
<glyph name="asterisk" format="1">
  <advance width="472"/>
  <unicode hex="002A"/>
  <outline>
    <contour>
      <point x="262" y="572" type="line"/>
      <point x="293" y="727" type="line"/>
      <point x="267" y="736"/>
      <point x="201" y="740"/>
      <point x="176" y="728" type="curve"/>
      <point x="211" y="571" type="line"/>
      <point x="72" y="648" type="line"/>
      <point x="53" y="627"/>
      <point x="40" y="564"/>
      <point x="40" y="533" type="curve"/>
      <point x="200" y="525" type="line"/>
      <point x="83" y="422" type="line"/>
      <point x="97" y="397"/>
      <point x="151" y="361"/>
      <point x="180" y="354" type="curve"/>
      <point x="236" y="493" type="line"/>
      <point x="293" y="352" type="line"/>
      <point x="323" y="359"/>
      <point x="375" y="396"/>
      <point x="391" y="421" type="curve"/>
      <point x="272" y="525" type="line"/>
      <point x="432" y="533" type="line"/>
      <point x="432" y="561"/>
      <point x="417" y="624"/>
      <point x="400" y="647" type="curve"/>
    </contour>
  </outline>
</glyph>
<glyph name="plus" format="1">
  <advance width="508"/>
  <unicode hex="002B"/>
  <outline>
    <contour>
      <point x="50" y="307" type="line"/>
      <point x="50" y="227" type="line"/>
      <point x="458" y="227" type="line"/>
      <point x="458" y="307" type="line"/>
    </contour>
    <contour>
      <point x="297" y="471" type="line"/>
      <point x="214" y="471" type="line"/>
      <point x="214" y="63" type="line"/>
      <point x="297" y="63" type="line"/>
    </contour>
  </outline>
</glyph>
<glyph name="hyphen" format="1">
  <advance width="405"/>
  <unicode hex="002D"/>
  <outline>
    <contour>
      <point x="40" y="312" type="line"/>
      <point x="40" y="222" type="line"/>
      <point x="365" y="222" type="line"/>
      <point x="365" y="312" type="line"/>
    </contour>
  </outline>
</glyph>
<glyph name="period" format="1">
  <advance width="258"/>
  <unicode hex="002E"/>
  <outline>
    <contour>
      <point x="129" y="-15" type="curve" smooth="yes"/>
      <point x="173" y="-15"/>
      <point x="208" y="20"/>
      <point x="208" y="64" type="curve" smooth="yes"/>
      <point x="208" y="108"/>
      <point x="173" y="143"/>
      <point x="129" y="143" type="curve" smooth="yes"/>
      <point x="85" y="143"/>
      <point x="50" y="108"/>
      <point x="50" y="64" type="curve" smooth="yes"/>
      <point x="50" y="20"/>
      <point x="85" y="-15"/>
    </contour>
  </outline>
</glyph>
<glyph name="zero" format="1">
  <advance width="540"/>
  <unicode hex="0030"/>
  <outline>
    <contour>
      <point x="274" y="630" type="curve" smooth="yes"/>
      <point x="118" y="624"/>
      <point x="35" y="504"/>
      <point x="35" y="303" type="curve" smooth="yes"/>
      <point x="35" y="104"/>
      <point x="117" y="-15"/>
      <point x="273" y="-15" type="curve" smooth="yes"/>
      <point x="424" y="-15"/>
      <point x="505" y="96"/>
      <point x="505" y="313" type="curve" smooth="yes"/>
      <point x="505" y="508"/>
      <point x="439" y="636"/>
    </contour>
    <contour>
      <point x="276" y="550" type="curve" smooth="yes"/>
      <point x="354" y="550"/>
      <point x="389" y="474"/>
      <point x="389" y="297" type="curve" smooth="yes"/>
      <point x="389" y="144"/>
      <point x="363" y="64"/>
      <point x="273" y="64" type="curve" smooth="yes"/>
      <point x="197" y="64"/>
      <point x="151" y="122"/>
      <point x="151" y="297" type="curve" smooth="yes"/>
      <point x="151" y="433"/>
      <point x="179" y="550"/>
    </contour>
  </outline>
</glyph>
<glyph name="three" format="1">
  <advance width="471"/>
  <unicode hex="0033"/>
  <outline>
    <contour>
      <point x="232" y="630" type="curve" smooth="yes"/>
      <point x="129" y="630"/>
      <point x="62" y="586"/>
      <point x="62" y="525" type="curve" smooth="yes"/>
      <point x="62" y="490"/>
      <point x="84" y="462"/>
      <point x="143" y="462" type="curve"/>
      <point x="145" y="505"/>
      <point x="166" y="558"/>
      <point x="230" y="558" type="curve" smooth="yes"/>
      <point x="275" y="558"/>
      <point x="295" y="533"/>
      <point x="295" y="489" type="curve" smooth="yes"/>
      <point x="295" y="386"/>
      <point x="187" y="359"/>
      <point x="136" y="359" type="curve"/>
      <point x="137" y="272" type="line"/>
      <point x="226" y="279"/>
      <point x="323" y="262"/>
      <point x="324" y="168" type="curve" smooth="yes"/>
      <point x="325" y="99"/>
      <point x="274" y="63"/>
      <point x="213" y="63" type="curve" smooth="yes"/>
      <point x="148" y="63"/>
      <point x="110" y="104"/>
      <point x="110" y="163" type="curve"/>
      <point x="59" y="163"/>
      <point x="35" y="129"/>
      <point x="35" y="92" type="curve" smooth="yes"/>
      <point x="35" y="34"/>
      <point x="93" y="-15"/>
      <point x="205" y="-15" type="curve" smooth="yes"/>
      <point x="358" y="-15"/>
      <point x="451" y="76"/>
      <point x="451" y="178" type="curve" smooth="yes"/>
      <point x="451" y="292"/>
      <point x="336" y="360"/>
      <point x="183" y="330" type="curve"/>
      <point x="193" y="317" type="line"/>
      <point x="378" y="337"/>
      <point x="417" y="425"/>
      <point x="417" y="489" type="curve" smooth="yes"/>
      <point x="417" y="578"/>
      <point x="343" y="630"/>
    </contour>
  </outline>
</glyph>
<glyph name="eight" format="1">
  <advance width="478"/>
  <unicode hex="0038"/>
  <outline>
    <contour>
      <point x="319" y="477" type="curve" smooth="yes"/>
      <point x="319" y="393"/>
      <point x="253" y="348"/>
      <point x="220" y="331" type="curve"/>
      <point x="259" y="302" type="line"/>
      <point x="336" y="328"/>
      <point x="427" y="392"/>
      <point x="427" y="491" type="curve" smooth="yes"/>
      <point x="427" y="573"/>
      <point x="365" y="630"/>
      <point x="258" y="630" type="curve" smooth="yes"/>
      <point x="123" y="630"/>
      <point x="61" y="540"/>
      <point x="61" y="453" type="curve" smooth="yes"/>
      <point x="61" y="332"/>
      <point x="180" y="284"/>
      <point x="246" y="248" type="curve" smooth="yes"/>
      <point x="310" y="213"/>
      <point x="338" y="179"/>
      <point x="338" y="136" type="curve" smooth="yes"/>
      <point x="338" y="91"/>
      <point x="306" y="55"/>
      <point x="244" y="55" type="curve" smooth="yes"/>
      <point x="178" y="55"/>
      <point x="148" y="95"/>
      <point x="148" y="153" type="curve" smooth="yes"/>
      <point x="148" y="215"/>
      <point x="182" y="275"/>
      <point x="248" y="308" type="curve"/>
      <point x="226" y="352" type="line"/>
      <point x="125" y="322"/>
      <point x="30" y="248"/>
      <point x="30" y="145" type="curve" smooth="yes"/>
      <point x="30" y="45"/>
      <point x="121" y="-15"/>
      <point x="229" y="-15" type="curve" smooth="yes"/>
      <point x="375" y="-15"/>
      <point x="448" y="93"/>
      <point x="448" y="182" type="curve" smooth="yes"/>
      <point x="448" y="289"/>
      <point x="343" y="333"/>
      <point x="273" y="373" type="curve" smooth="yes"/>
      <point x="194" y="418"/>
      <point x="173" y="446"/>
      <point x="173" y="486" type="curve" smooth="yes"/>
      <point x="173" y="541"/>
      <point x="213" y="560"/>
      <point x="247" y="560" type="curve" smooth="yes"/>
      <point x="282" y="560"/>
      <point x="319" y="540"/>
    </contour>
  </outline>
</glyph>
<glyph name="nine" format="1">
  <advance width="477"/>
  <unicode hex="0039"/>
  <outline>
    <contour>
      <point x="228" y="630" type="curve" smooth="yes"/>
      <point x="92" y="630"/>
      <point x="10" y="541"/>
      <point x="10" y="419" type="curve" smooth="yes"/>
      <point x="10" y="302"/>
      <point x="91" y="243"/>
      <point x="184" y="243" type="curve" smooth="yes"/>
      <point x="244" y="243"/>
      <point x="309" y="267"/>
      <point x="363" y="314" type="curve"/>
      <point x="352" y="377" type="line"/>
      <point x="325" y="345"/>
      <point x="286" y="323"/>
      <point x="230" y="323" type="curve" smooth="yes"/>
      <point x="178" y="323"/>
      <point x="131" y="347"/>
      <point x="131" y="444" type="curve" smooth="yes"/>
      <point x="131" y="514"/>
      <point x="160" y="556"/>
      <point x="219" y="556" type="curve" smooth="yes"/>
      <point x="279" y="556"/>
      <point x="316" y="511"/>
      <point x="316" y="338" type="curve" smooth="yes"/>
      <point x="316" y="132"/>
      <point x="263" y="56"/>
      <point x="184" y="56" type="curve" smooth="yes"/>
      <point x="140" y="56"/>
      <point x="115" y="81"/>
      <point x="115" y="127" type="curve"/>
      <point x="56" y="131"/>
      <point x="40" y="90"/>
      <point x="40" y="68" type="curve" smooth="yes"/>
      <point x="40" y="19"/>
      <point x="90" y="-15"/>
      <point x="169" y="-15" type="curve" smooth="yes"/>
      <point x="336" y="-15"/>
      <point x="442" y="111"/>
      <point x="442" y="338" type="curve" smooth="yes"/>
      <point x="442" y="523"/>
      <point x="382" y="630"/>
    </contour>
  </outline>
</glyph>
<glyph name="colon" format="1">
  <advance width="266"/>
  <unicode hex="003A"/>
  <outline>
    <contour>
      <point x="133" y="-16" type="curve" smooth="yes"/>
      <point x="180" y="-16"/>
      <point x="216" y="20"/>
      <point x="216" y="67" type="curve" smooth="yes"/>
      <point x="216" y="113"/>
      <point x="180" y="150"/>
      <point x="133" y="150" type="curve" smooth="yes"/>
      <point x="87" y="150"/>
      <point x="50" y="113"/>
      <point x="50" y="67" type="curve" smooth="yes"/>
      <point x="50" y="20"/>
      <point x="87" y="-16"/>
    </contour>
    <contour>
      <point x="133" y="317" type="curve" smooth="yes"/>
      <point x="180" y="317"/>
      <point x="216" y="353"/>
      <point x="216" y="400" type="curve" smooth="yes"/>
      <point x="216" y="446"/>
      <point x="180" y="483"/>
      <point x="133" y="483" type="curve" smooth="yes"/>
      <point x="87" y="483"/>
      <point x="50" y="446"/>
      <point x="50" y="400" type="curve" smooth="yes"/>
      <point x="50" y="353"/>
      <point x="87" y="317"/>
    </contour>
  </outline>
</glyph>
<glyph name="semicolon" format="1">
  <advance width="259"/>
  <unicode hex="003B"/>
  <outline>
    <contour>
      <point x="129" y="347" type="curve" smooth="yes"/>
      <point x="173" y="347"/>
      <point x="208" y="382"/>
      <point x="208" y="426" type="curve" smooth="yes"/>
      <point x="208" y="470"/>
      <point x="173" y="505"/>
      <point x="129" y="505" type="curve" smooth="yes"/>
      <point x="85" y="505"/>
      <point x="50" y="470"/>
      <point x="50" y="426" type="curve" smooth="yes"/>
      <point x="50" y="382"/>
      <point x="85" y="347"/>
    </contour>
    <component base="comma" xOffset="3" yOffset="-19"/>
  </outline>
</glyph>
<glyph name="equal" format="1">
  <advance width="508"/>
  <unicode hex="003D"/>
  <outline>
    <contour>
      <point x="50" y="387" type="line"/>
      <point x="50" y="307" type="line"/>
      <point x="458" y="307" type="line"/>
      <point x="458" y="387" type="line"/>
    </contour>
    <contour>
      <point x="50" y="229" type="line"/>
      <point x="50" y="149" type="line"/>
      <point x="458" y="149" type="line"/>
      <point x="458" y="229" type="line"/>
    </contour>
  </outline>
</glyph>
<glyph name="at" format="1">
  <advance width="1040"/>
  <unicode hex="0040"/>
  <outline>
    <contour>
      <point x="548" y="684" type="curve" smooth="yes"/>
      <point x="270" y="684"/>
      <point x="85" y="510"/>
      <point x="85" y="248" type="curve" smooth="yes"/>
      <point x="85" y="0"/>
      <point x="267" y="-166"/>
      <point x="541" y="-166" type="curve" smooth="yes"/>
      <point x="641" y="-166"/>
      <point x="721" y="-142"/>
      <point x="788" y="-106" type="curve"/>
      <point x="776" y="-43" type="line"/>
      <point x="715" y="-83"/>
      <point x="626" y="-96"/>
      <point x="555" y="-96" type="curve" smooth="yes"/>
      <point x="320" y="-96"/>
      <point x="163" y="42"/>
      <point x="163" y="248" type="curve" smooth="yes"/>
      <point x="163" y="468"/>
      <point x="317" y="614"/>
      <point x="549" y="614" type="curve" smooth="yes"/>
      <point x="748" y="614"/>
      <point x="881" y="507"/>
      <point x="881" y="346" type="curve" smooth="yes"/>
      <point x="881" y="213"/>
      <point x="803" y="124"/>
      <point x="687" y="124" type="curve"/>
      <point x="737" y="480" type="line"/>
      <point x="615" y="473" type="line"/>
      <point x="565" y="118" type="line"/>
      <point x="562" y="68"/>
      <point x="590" y="53"/>
      <point x="655" y="53" type="curve" smooth="yes"/>
      <point x="835" y="53"/>
      <point x="955" y="177"/>
      <point x="955" y="362" type="curve" smooth="yes"/>
      <point x="955" y="555"/>
      <point x="792" y="684"/>
    </contour>
    <contour>
      <point x="519" y="493" type="curve" smooth="yes"/>
      <point x="375" y="493"/>
      <point x="302" y="387"/>
      <point x="287" y="254" type="curve" smooth="yes"/>
      <point x="270" y="99"/>
      <point x="350" y="53"/>
      <point x="438" y="53" type="curve" smooth="yes"/>
      <point x="518" y="53"/>
      <point x="561" y="91"/>
      <point x="613" y="139" type="curve"/>
      <point x="612" y="207" type="line"/>
      <point x="560" y="159"/>
      <point x="528" y="135"/>
      <point x="484" y="135" type="curve" smooth="yes"/>
      <point x="420" y="135"/>
      <point x="397" y="185"/>
      <point x="410" y="273" type="curve" smooth="yes"/>
      <point x="419" y="333"/>
      <point x="446" y="420"/>
      <point x="525" y="420" type="curve" smooth="yes"/>
      <point x="572" y="420"/>
      <point x="608" y="389"/>
      <point x="620" y="368" type="curve"/>
      <point x="672" y="437" type="line"/>
      <point x="621" y="474"/>
      <point x="580" y="493"/>
    </contour>
  </outline>
</glyph>
<glyph name="C" format="1">
  <advance width="602"/>
  <unicode hex="0043"/>
  <outline>
    <contour>
      <point x="347" y="685" type="move" name="top"/>
    </contour>
    <contour>
      <point x="337" y="0" type="move" name="bottom"/>
    </contour>
    <contour>
      <point x="370" y="700" type="curve" smooth="yes"/>
      <point x="144" y="700"/>
      <point x="35" y="546"/>
      <point x="35" y="335" type="curve" smooth="yes"/>
      <point x="35" y="117"/>
      <point x="134" y="-15"/>
      <point x="334" y="-15" type="curve" smooth="yes"/>
      <point x="468" y="-15"/>
      <point x="572" y="52"/>
      <point x="572" y="103" type="curve" smooth="yes"/>
      <point x="572" y="114"/>
      <point x="566" y="129"/>
      <point x="556" y="135" type="curve"/>
      <point x="519" y="107"/>
      <point x="453" y="74"/>
      <point x="373" y="74" type="curve" smooth="yes"/>
      <point x="223" y="74"/>
      <point x="165" y="169"/>
      <point x="165" y="347" type="curve" smooth="yes"/>
      <point x="165" y="499"/>
      <point x="231" y="614"/>
      <point x="358" y="614" type="curve" smooth="yes"/>
      <point x="432" y="614"/>
      <point x="466" y="567"/>
      <point x="466" y="485" type="curve"/>
      <point x="526" y="485"/>
      <point x="566" y="514"/>
      <point x="566" y="569" type="curve" smooth="yes"/>
      <point x="566" y="639"/>
      <point x="490" y="700"/>
    </contour>
  </outline>
</glyph>
<glyph name="E" format="1">
  <advance width="573"/>
  <unicode hex="0045"/>
  <outline>
    <contour>
      <point x="321" y="685" type="move" name="top"/>
    </contour>
    <contour>
      <point x="444" y="-22" type="move" name="ogonek"/>
    </contour>
    <contour>
      <point x="299" y="0" type="move" name="bottom"/>
    </contour>
    <contour>
      <point x="238" y="616" type="line"/>
      <point x="451" y="613" type="line"/>
      <point x="460" y="495" type="line"/>
      <point x="470" y="494"/>
      <point x="524" y="490"/>
      <point x="524" y="534" type="curve" smooth="yes"/>
      <point x="524" y="685" type="line"/>
      <point x="86" y="685" type="line" smooth="yes"/>
      <point x="36" y="685"/>
      <point x="40" y="630"/>
      <point x="41" y="620" type="curve"/>
      <point x="113" y="614" type="line"/>
      <point x="113" y="69" type="line"/>
      <point x="84" y="67" type="line" smooth="yes"/>
      <point x="35" y="64"/>
      <point x="40" y="10"/>
      <point x="40" y="0" type="curve"/>
      <point x="543" y="0" type="line"/>
      <point x="543" y="163" type="line" smooth="yes"/>
      <point x="543" y="207"/>
      <point x="489" y="203"/>
      <point x="479" y="202" type="curve"/>
      <point x="471" y="79" type="line"/>
      <point x="238" y="71" type="line"/>
      <point x="238" y="300" type="line"/>
      <point x="418" y="290" type="line"/>
      <point x="424" y="321"/>
      <point x="423" y="362"/>
      <point x="417" y="389" type="curve"/>
      <point x="238" y="368" type="line"/>
    </contour>
  </outline>
</glyph>
<glyph name="I" format="1">
  <advance width="351"/>
  <unicode hex="0049"/>
  <outline>
    <contour>
      <point x="175" y="685" type="move" name="top"/>
    </contour>
    <contour>
      <point x="217" y="-17" type="move" name="ogonek"/>
    </contour>
    <contour>
      <point x="238" y="655" type="line"/>
      <point x="113" y="658" type="line"/>
      <point x="113" y="0" type="line"/>
      <point x="238" y="0" type="line"/>
    </contour>
    <contour>
      <point x="239" y="71" type="line"/>
      <point x="113" y="69" type="line"/>
      <point x="84" y="67" type="line" smooth="yes"/>
      <point x="35" y="64"/>
      <point x="41" y="10"/>
      <point x="40" y="0" type="curve"/>
      <point x="265" y="0" type="line" smooth="yes"/>
      <point x="315" y="0"/>
      <point x="311" y="55"/>
      <point x="310" y="65" type="curve"/>
    </contour>
    <contour>
      <point x="112" y="614" type="line"/>
      <point x="238" y="616" type="line"/>
      <point x="267" y="618" type="line" smooth="yes"/>
      <point x="316" y="621"/>
      <point x="310" y="675"/>
      <point x="311" y="685" type="curve"/>
      <point x="86" y="685" type="line" smooth="yes"/>
      <point x="36" y="685"/>
      <point x="40" y="630"/>
      <point x="41" y="620" type="curve"/>
    </contour>
  </outline>
</glyph>
<glyph name="J" format="1">
  <advance width="410"/>
  <unicode hex="004A"/>
  <outline>
    <contour>
      <point x="253" y="685" type="move" name="top"/>
    </contour>
    <contour>
      <point x="319" y="655" type="line"/>
      <point x="194" y="658" type="line"/>
      <point x="194" y="132" type="line" smooth="yes"/>
      <point x="194" y="41"/>
      <point x="180" y="21"/>
      <point x="158" y="21" type="curve" smooth="yes"/>
      <point x="122" y="21"/>
      <point x="108" y="53"/>
      <point x="108" y="100" type="curve"/>
      <point x="44" y="100"/>
      <point x="23" y="63"/>
      <point x="23" y="20" type="curve" smooth="yes"/>
      <point x="23" y="-23"/>
      <point x="63" y="-63"/>
      <point x="129" y="-63" type="curve" smooth="yes"/>
      <point x="247" y="-63"/>
      <point x="319" y="23"/>
      <point x="319" y="139" type="curve" smooth="yes"/>
    </contour>
    <contour>
      <point x="165" y="685" type="line"/>
      <point x="115" y="685"/>
      <point x="119" y="630"/>
      <point x="120" y="620" type="curve"/>
      <point x="193" y="614" type="line"/>
      <point x="319" y="616" type="line"/>
      <point x="348" y="618" type="line" smooth="yes"/>
      <point x="397" y="621"/>
      <point x="391" y="675"/>
      <point x="392" y="685" type="curve"/>
    </contour>
  </outline>
</glyph>
<glyph name="K" format="1">
  <advance width="641"/>
  <unicode hex="004B"/>
  <outline>
    <contour>
      <point x="350" y="685" type="move" name="top"/>
    </contour>
    <contour>
      <point x="347" y="0" type="move" name="bottom"/>
    </contour>
    <contour>
      <point x="423" y="685" type="line"/>
      <point x="373" y="685"/>
      <point x="377" y="630"/>
      <point x="378" y="620" type="curve"/>
      <point x="443" y="616" type="line"/>
      <point x="238" y="348" type="line"/>
      <point x="238" y="616" type="line"/>
      <point x="267" y="618" type="line" smooth="yes"/>
      <point x="316" y="621"/>
      <point x="310" y="675"/>
      <point x="311" y="685" type="curve"/>
      <point x="86" y="685" type="line" smooth="yes"/>
      <point x="36" y="685"/>
      <point x="40" y="630"/>
      <point x="41" y="620" type="curve"/>
      <point x="113" y="614" type="line"/>
      <point x="113" y="69" type="line"/>
      <point x="84" y="67" type="line" smooth="yes"/>
      <point x="35" y="64"/>
      <point x="41" y="10"/>
      <point x="40" y="0" type="curve"/>
      <point x="275" y="0" type="line" smooth="yes"/>
      <point x="325" y="0"/>
      <point x="321" y="55"/>
      <point x="320" y="65" type="curve"/>
      <point x="238" y="71" type="line"/>
      <point x="238" y="242" type="line"/>
      <point x="268" y="279" type="line"/>
      <point x="462" y="0" type="line"/>
      <point x="583" y="0" type="line" smooth="yes"/>
      <point x="625" y="0"/>
      <point x="636" y="52"/>
      <point x="628" y="65" type="curve"/>
      <point x="565" y="71" type="line"/>
      <point x="349" y="381" type="line"/>
      <point x="536" y="616" type="line"/>
      <point x="576" y="618" type="line" smooth="yes"/>
      <point x="621" y="620"/>
      <point x="618" y="675"/>
      <point x="619" y="685" type="curve"/>
    </contour>
  </outline>
</glyph>
<glyph name="L" format="1">
  <advance width="559"/>
  <unicode hex="004C"/>
  <outline>
    <contour>
      <point x="227" y="685" type="move" name="top"/>
    </contour>
    <contour>
      <point x="284" y="0" type="move" name="bottom"/>
    </contour>
    <contour>
      <point x="113" y="658" type="line"/>
      <point x="113" y="22" type="line"/>
      <point x="238" y="22" type="line"/>
      <point x="238" y="655" type="line"/>
    </contour>
    <contour>
      <point x="534" y="80" type="line"/>
      <point x="238" y="71" type="line"/>
      <point x="113" y="69" type="line"/>
      <point x="84" y="67" type="line" smooth="yes"/>
      <point x="35" y="64"/>
      <point x="41" y="10"/>
      <point x="40" y="0" type="curve"/>
      <point x="534" y="0" type="line"/>
    </contour>
    <contour>
      <point x="449" y="35" type="line"/>
      <point x="466" y="0" type="line"/>
      <point x="534" y="0" type="line"/>
      <point x="534" y="177" type="line" smooth="yes"/>
      <point x="534" y="221"/>
      <point x="480" y="217"/>
      <point x="470" y="216" type="curve"/>
    </contour>
    <contour>
      <point x="88" y="685" type="line"/>
      <point x="38" y="685"/>
      <point x="42" y="630"/>
      <point x="43" y="620" type="curve"/>
      <point x="114" y="614" type="line"/>
      <point x="240" y="616" type="line"/>
      <point x="289" y="618" type="line" smooth="yes"/>
      <point x="338" y="620"/>
      <point x="332" y="675"/>
      <point x="333" y="685" type="curve"/>
    </contour>
  </outline>
</glyph>
<glyph name="P" format="1">
  <advance width="591"/>
  <unicode hex="0050"/>
  <outline>
    <contour>
      <point x="79" y="685" type="line"/>
      <point x="51" y="685"/>
      <point x="39" y="652"/>
      <point x="40" y="622" type="curve"/>
      <point x="113" y="616" type="line"/>
      <point x="113" y="69" type="line"/>
      <point x="84" y="67" type="line" smooth="yes"/>
      <point x="35" y="64"/>
      <point x="41" y="10"/>
      <point x="40" y="0" type="curve"/>
      <point x="278" y="0" type="line" smooth="yes"/>
      <point x="328" y="0"/>
      <point x="324" y="55"/>
      <point x="323" y="65" type="curve"/>
      <point x="238" y="71" type="line"/>
      <point x="238" y="622" type="line"/>
      <point x="304" y="624" type="line" smooth="yes"/>
      <point x="390" y="627"/>
      <point x="441" y="575"/>
      <point x="441" y="483" type="curve" smooth="yes"/>
      <point x="441" y="379"/>
      <point x="377" y="317"/>
      <point x="270" y="317" type="curve" smooth="yes"/>
      <point x="257" y="317"/>
      <point x="236" y="317"/>
      <point x="223" y="317" type="curve"/>
      <point x="224" y="255" type="line"/>
      <point x="239" y="255"/>
      <point x="266" y="255"/>
      <point x="283" y="255" type="curve" smooth="yes"/>
      <point x="465" y="255"/>
      <point x="571" y="342"/>
      <point x="571" y="490" type="curve" smooth="yes"/>
      <point x="571" y="613"/>
      <point x="476" y="685"/>
      <point x="313" y="685" type="curve" smooth="yes"/>
    </contour>
  </outline>
</glyph>
<glyph name="Q" format="1">
  <advance width="689"/>
  <unicode hex="0051"/>
  <outline>
    <contour>
      <point x="239" y="0" type="line"/>
      <point x="319" y="-47"/>
      <point x="475" y="-141"/>
      <point x="562" y="-141" type="curve" smooth="yes"/>
      <point x="613" y="-141"/>
      <point x="651" y="-110"/>
      <point x="651" y="-74" type="curve" smooth="yes"/>
      <point x="651" y="-53"/>
      <point x="648" y="-44"/>
      <point x="643" y="-38" type="curve"/>
      <point x="626" y="-49"/>
      <point x="602" y="-54"/>
      <point x="592" y="-54" type="curve" smooth="yes"/>
      <point x="538" y="-54"/>
      <point x="386" y="-14"/>
      <point x="293" y="36" type="curve"/>
    </contour>
    <component base="O"/>
  </outline>
</glyph>
<glyph name="T" format="1">
  <advance width="636"/>
  <unicode hex="0054"/>
  <outline>
    <contour>
      <point x="324" y="685" type="move" name="top"/>
    </contour>
    <contour>
      <point x="324" y="0" type="move" name="bottom"/>
    </contour>
    <contour>
      <point x="364" y="72" type="line"/>
      <point x="271" y="70" type="line"/>
      <point x="216" y="67" type="line" smooth="yes"/>
      <point x="167" y="64"/>
      <point x="173" y="10"/>
      <point x="172" y="0" type="curve"/>
      <point x="417" y="0" type="line" smooth="yes"/>
      <point x="467" y="0"/>
      <point x="463" y="55"/>
      <point x="462" y="65" type="curve"/>
    </contour>
    <contour>
      <point x="94" y="610" type="line"/>
      <point x="542" y="610" type="line"/>
      <point x="552" y="500" type="line"/>
      <point x="574" y="500"/>
      <point x="616" y="499"/>
      <point x="616" y="544" type="curve" smooth="yes"/>
      <point x="616" y="685" type="line"/>
      <point x="20" y="685" type="line"/>
      <point x="20" y="544" type="line" smooth="yes"/>
      <point x="20" y="499"/>
      <point x="62" y="500"/>
      <point x="84" y="500" type="curve"/>
    </contour>
    <contour>
      <point x="255" y="53" type="line"/>
      <point x="380" y="55" type="line"/>
      <point x="380" y="626" type="line"/>
      <point x="255" y="626" type="line"/>
    </contour>
  </outline>
</glyph>
<glyph name="U" format="1">
  <advance width="669"/>
  <unicode hex="0055"/>
  <outline>
    <contour>
      <point x="340" y="685" type="move" name="top"/>
    </contour>
    <contour>
      <point x="620" y="10" type="move" name="ogonek"/>
    </contour>
    <contour>
      <point x="479" y="685" type="line"/>
      <point x="429" y="685"/>
      <point x="433" y="630"/>
      <point x="434" y="620" type="curve"/>
      <point x="505" y="614" type="line"/>
      <point x="506" y="263" type="line" smooth="yes"/>
      <point x="506" y="121"/>
      <point x="446" y="65"/>
      <point x="348" y="65" type="curve" smooth="yes"/>
      <point x="241" y="65"/>
      <point x="208" y="133"/>
      <point x="208" y="275" type="curve" smooth="yes"/>
      <point x="208" y="616" type="line"/>
      <point x="237" y="618" type="line" smooth="yes"/>
      <point x="286" y="621"/>
      <point x="280" y="675"/>
      <point x="281" y="685" type="curve"/>
      <point x="56" y="685" type="line" smooth="yes"/>
      <point x="6" y="685"/>
      <point x="10" y="630"/>
      <point x="11" y="620" type="curve"/>
      <point x="83" y="614" type="line"/>
      <point x="83" y="291" type="line" smooth="yes"/>
      <point x="83" y="55"/>
      <point x="183" y="-15"/>
      <point x="330" y="-15" type="curve" smooth="yes"/>
      <point x="499" y="-15"/>
      <point x="586" y="77"/>
      <point x="586" y="290" type="curve" smooth="yes"/>
      <point x="586" y="616" type="line"/>
      <point x="615" y="618" type="line" smooth="yes"/>
      <point x="664" y="621"/>
      <point x="658" y="675"/>
      <point x="659" y="685" type="curve"/>
    </contour>
  </outline>
</glyph>
<glyph name="bracketleft" format="1">
  <advance width="283"/>
  <unicode hex="005B"/>
  <outline>
    <contour>
      <point x="176" y="669" type="line"/>
      <point x="253" y="669" type="line"/>
      <point x="253" y="734" type="line"/>
      <point x="80" y="734" type="line"/>
      <point x="80" y="-155" type="line"/>
      <point x="253" y="-155" type="line"/>
      <point x="253" y="-90" type="line"/>
      <point x="176" y="-90" type="line"/>
    </contour>
  </outline>
</glyph>
<glyph name="a" format="1">
  <advance width="521"/>
  <unicode hex="0061"/>
  <outline>
    <contour>
      <point x="248" y="505" type="move" name="top"/>
    </contour>
    <contour>
      <point x="428" y="-21" type="move" name="ogonek"/>
    </contour>
    <contour>
      <point x="240" y="520" type="curve" smooth="yes"/>
      <point x="133" y="520"/>
      <point x="61" y="473"/>
      <point x="61" y="410" type="curve" smooth="yes"/>
      <point x="61" y="363"/>
      <point x="103" y="342"/>
      <point x="154" y="347" type="curve"/>
      <point x="154" y="408"/>
      <point x="194" y="440"/>
      <point x="233" y="440" type="curve" smooth="yes"/>
      <point x="292" y="440"/>
      <point x="324" y="409"/>
      <point x="324" y="313" type="curve" smooth="yes"/>
      <point x="324" y="83" type="line" smooth="yes"/>
      <point x="324" y="32"/>
      <point x="347" y="-15"/>
      <point x="428" y="-15" type="curve" smooth="yes"/>
      <point x="496" y="-15"/>
      <point x="511" y="17"/>
      <point x="511" y="45" type="curve"/>
      <point x="446" y="53" type="line"/>
      <point x="446" y="320" type="line" smooth="yes"/>
      <point x="446" y="462"/>
      <point x="365" y="520"/>
    </contour>
    <contour>
      <point x="242" y="275" type="curve" smooth="yes"/>
      <point x="85" y="275"/>
      <point x="30" y="205"/>
      <point x="30" y="124" type="curve" smooth="yes"/>
      <point x="30" y="37"/>
      <point x="95" y="-15"/>
      <point x="186" y="-15" type="curve" smooth="yes"/>
      <point x="272" y="-15"/>
      <point x="337" y="27"/>
      <point x="387" y="95" type="curve"/>
      <point x="382" y="144" type="line"/>
      <point x="337" y="100"/>
      <point x="296" y="66"/>
      <point x="229" y="66" type="curve" smooth="yes"/>
      <point x="182" y="66"/>
      <point x="157" y="91"/>
      <point x="157" y="132" type="curve" smooth="yes"/>
      <point x="157" y="186"/>
      <point x="201" y="207"/>
      <point x="247" y="207" type="curve" smooth="yes"/>
      <point x="308" y="207"/>
      <point x="371" y="184"/>
      <point x="410" y="133" type="curve"/>
      <point x="404" y="243" type="line"/>
      <point x="366" y="265"/>
      <point x="305" y="275"/>
    </contour>
  </outline>
</glyph>
<glyph name="c" format="1">
  <advance width="472"/>
  <unicode hex="0063"/>
  <outline>
    <contour>
      <point x="273" y="505" type="move" name="top"/>
    </contour>
    <contour>
      <point x="284" y="520" type="curve" smooth="yes"/>
      <point x="135" y="520"/>
      <point x="35" y="414"/>
      <point x="35" y="241" type="curve" smooth="yes"/>
      <point x="35" y="83"/>
      <point x="120" y="-15"/>
      <point x="262" y="-15" type="curve" smooth="yes"/>
      <point x="370" y="-15"/>
      <point x="455" y="46"/>
      <point x="455" y="85" type="curve" smooth="yes"/>
      <point x="455" y="96"/>
      <point x="447" y="120"/>
      <point x="433" y="129" type="curve"/>
      <point x="398" y="98"/>
      <point x="357" y="75"/>
      <point x="305" y="75" type="curve" smooth="yes"/>
      <point x="195" y="75"/>
      <point x="162" y="158"/>
      <point x="162" y="261" type="curve" smooth="yes"/>
      <point x="162" y="372"/>
      <point x="200" y="438"/>
      <point x="270" y="438" type="curve" smooth="yes"/>
      <point x="335" y="438"/>
      <point x="359" y="380"/>
      <point x="360" y="331" type="curve"/>
      <point x="394" y="327"/>
      <point x="447" y="345"/>
      <point x="447" y="407" type="curve" smooth="yes"/>
      <point x="447" y="478"/>
      <point x="378" y="520"/>
    </contour>
  </outline>
</glyph>
<glyph name="f" format="1">
  <advance width="394"/>
  <unicode hex="0066"/>
  <outline>
    <contour>
      <point x="296" y="730" type="curve" smooth="yes"/>
      <point x="180" y="728"/>
      <point x="104" y="642"/>
      <point x="104" y="532" type="curve" smooth="yes"/>
      <point x="103" y="0" type="line"/>
      <point x="225" y="0" type="line"/>
      <point x="225" y="536" type="line" smooth="yes"/>
      <point x="225" y="634"/>
      <point x="250" y="660"/>
      <point x="280" y="660" type="curve" smooth="yes"/>
      <point x="307" y="660"/>
      <point x="329" y="643"/>
      <point x="329" y="596" type="curve"/>
      <point x="371" y="596"/>
      <point x="408" y="614"/>
      <point x="408" y="662" type="curve" smooth="yes"/>
      <point x="408" y="712"/>
      <point x="363" y="731"/>
    </contour>
    <contour>
      <point x="226" y="71" type="line"/>
      <point x="103" y="69" type="line"/>
      <point x="74" y="67" type="line" smooth="yes"/>
      <point x="25" y="64"/>
      <point x="31" y="10"/>
      <point x="30" y="0" type="curve"/>
      <point x="282" y="0" type="line" smooth="yes"/>
      <point x="332" y="0"/>
      <point x="328" y="55"/>
      <point x="327" y="65" type="curve"/>
    </contour>
    <contour>
      <point x="81" y="505" type="line"/>
      <point x="39" y="505"/>
      <point x="32" y="467"/>
      <point x="32" y="435" type="curve"/>
      <point x="307" y="435" type="line" smooth="yes"/>
      <point x="358" y="435"/>
      <point x="355" y="492"/>
      <point x="354" y="505" type="curve"/>
    </contour>
  </outline>
</glyph>
<glyph name="l" format="1">
  <advance width="319"/>
  <unicode hex="006C"/>
  <outline>
    <contour>
      <point x="162" y="505" type="move" name="top"/>
    </contour>
    <contour>
      <point x="172" y="0" type="move" name="bottom"/>
    </contour>
    <contour>
      <point x="229" y="715" type="line"/>
      <point x="31" y="693" type="line"/>
      <point x="30" y="680"/>
      <point x="30" y="635"/>
      <point x="68" y="631" type="curve" smooth="yes"/>
      <point x="107" y="627" type="line"/>
      <point x="107" y="0" type="line"/>
      <point x="229" y="0" type="line"/>
    </contour>
    <contour>
      <point x="229" y="71" type="line"/>
      <point x="107" y="69" type="line"/>
      <point x="76" y="67" type="line" smooth="yes"/>
      <point x="27" y="64"/>
      <point x="33" y="10"/>
      <point x="32" y="0" type="curve"/>
      <point x="255" y="0" type="line" smooth="yes"/>
      <point x="305" y="0"/>
      <point x="301" y="55"/>
      <point x="300" y="65" type="curve"/>
    </contour>
  </outline>
</glyph>
<glyph name="n" format="1">
  <advance width="649"/>
  <unicode hex="006E"/>
  <outline>
    <contour>
      <point x="344" y="505" type="move" name="top"/>
    </contour>
    <contour>
      <point x="327" y="0" type="move" name="bottom"/>
    </contour>
    <contour>
      <point x="559" y="71" type="line"/>
      <point x="559" y="310" type="line" smooth="yes"/>
      <point x="559" y="463"/>
      <point x="466" y="520"/>
      <point x="375" y="520" type="curve" smooth="yes"/>
      <point x="305" y="520"/>
      <point x="261" y="487"/>
      <point x="222" y="453" type="curve"/>
      <point x="219" y="453" type="line"/>
      <point x="212" y="514" type="line"/>
      <point x="31" y="492" type="line"/>
      <point x="30" y="479"/>
      <point x="30" y="434"/>
      <point x="68" y="430" type="curve" smooth="yes"/>
      <point x="107" y="426" type="line"/>
      <point x="107" y="69" type="line"/>
      <point x="76" y="67" type="line" smooth="yes"/>
      <point x="27" y="64"/>
      <point x="33" y="10"/>
      <point x="32" y="0" type="curve"/>
      <point x="255" y="0" type="line" smooth="yes"/>
      <point x="305" y="0"/>
      <point x="301" y="55"/>
      <point x="300" y="65" type="curve"/>
      <point x="229" y="71" type="line"/>
      <point x="229" y="374" type="line"/>
      <point x="263" y="403"/>
      <point x="292" y="420"/>
      <point x="348" y="420" type="curve" smooth="yes"/>
      <point x="402" y="420"/>
      <point x="437" y="396"/>
      <point x="437" y="315" type="curve" smooth="yes"/>
      <point x="437" y="69" type="line"/>
      <point x="408" y="67" type="line" smooth="yes"/>
      <point x="359" y="64"/>
      <point x="365" y="10"/>
      <point x="364" y="0" type="curve"/>
      <point x="585" y="0" type="line" smooth="yes"/>
      <point x="635" y="0"/>
      <point x="631" y="55"/>
      <point x="630" y="65" type="curve"/>
    </contour>
  </outline>
</glyph>
<glyph name="t" format="1">
  <advance width="410"/>
  <unicode hex="0074"/>
  <outline>
    <contour>
      <point x="212" y="0" type="move" name="bottom"/>
    </contour>
    <contour>
      <point x="86" y="633" type="line"/>
      <point x="86" y="164" type="line" smooth="yes"/>
      <point x="86" y="74"/>
      <point x="104" y="-15"/>
      <point x="231" y="-15" type="curve" smooth="yes"/>
      <point x="303" y="-15"/>
      <point x="399" y="25"/>
      <point x="399" y="80" type="curve" smooth="yes"/>
      <point x="399" y="102"/>
      <point x="383" y="121"/>
      <point x="378" y="121" type="curve"/>
      <point x="341" y="90"/>
      <point x="312" y="77"/>
      <point x="260" y="77" type="curve" smooth="yes"/>
      <point x="230" y="77"/>
      <point x="208" y="102"/>
      <point x="208" y="158" type="curve" smooth="yes"/>
      <point x="208" y="646" type="line"/>
    </contour>
    <contour>
      <point x="52" y="505" type="line"/>
      <point x="10" y="505"/>
      <point x="3" y="467"/>
      <point x="3" y="435" type="curve"/>
      <point x="339" y="435" type="line"/>
      <point x="390" y="435"/>
      <point x="389" y="492"/>
      <point x="388" y="505" type="curve"/>
    </contour>
  </outline>
</glyph>
<glyph name="y" format="1">
  <advance width="536"/>
  <unicode hex="0079"/>
  <outline>
    <contour>
      <point x="298" y="505" type="move" name="top"/>
    </contour>
    <contour>
      <point x="171" y="502" type="line"/>
      <point x="31" y="500" type="line"/>
      <point x="252" y="11" type="line"/>
      <point x="313" y="11" type="line"/>
      <point x="513" y="499" type="line"/>
      <point x="417" y="493" type="line"/>
      <point x="244" y="42" type="line"/>
      <point x="324" y="126" type="line"/>
    </contour>
    <contour>
      <point x="241" y="52" type="line"/>
      <point x="224" y="-9"/>
      <point x="169" y="-148"/>
      <point x="124" y="-148" type="curve" smooth="yes"/>
      <point x="96" y="-148"/>
      <point x="97" y="-114"/>
      <point x="101" y="-95" type="curve"/>
      <point x="96" y="-93"/>
      <point x="83" y="-93"/>
      <point x="79" y="-93" type="curve" smooth="yes"/>
      <point x="42" y="-93"/>
      <point x="16" y="-122"/>
      <point x="16" y="-157" type="curve" smooth="yes"/>
      <point x="16" y="-202"/>
      <point x="51" y="-233"/>
      <point x="110" y="-233" type="curve" smooth="yes"/>
      <point x="220" y="-233"/>
      <point x="268" y="-93"/>
      <point x="323" y="34" type="curve"/>
    </contour>
    <contour>
      <point x="46" y="505" type="line"/>
      <point x="-4" y="505"/>
      <point x="0" y="450"/>
      <point x="1" y="440" type="curve"/>
      <point x="56" y="434" type="line"/>
      <point x="197" y="436" type="line"/>
      <point x="209" y="438" type="line" smooth="yes"/>
      <point x="257" y="446"/>
      <point x="252" y="495"/>
      <point x="253" y="505" type="curve"/>
    </contour>
    <contour>
      <point x="393" y="505" type="line"/>
      <point x="343" y="505"/>
      <point x="347" y="450"/>
      <point x="348" y="440" type="curve"/>
      <point x="400" y="434" type="line"/>
      <point x="481" y="436" type="line"/>
      <point x="492" y="438" type="line" smooth="yes"/>
      <point x="541" y="447"/>
      <point x="535" y="495"/>
      <point x="536" y="505" type="curve"/>
    </contour>
  </outline>
</glyph>
<glyph name="braceleft" format="1">
  <advance width="370"/>
  <unicode hex="007B"/>
  <outline>
    <contour>
      <point x="255" y="734" type="curve" smooth="yes"/>
      <point x="163" y="734"/>
      <point x="101" y="681"/>
      <point x="101" y="602" type="curve" smooth="yes"/>
      <point x="101" y="535"/>
      <point x="117" y="466"/>
      <point x="117" y="391" type="curve" smooth="yes"/>
      <point x="117" y="366"/>
      <point x="108" y="338"/>
      <point x="94" y="322" type="curve"/>
      <point x="87" y="313"/>
      <point x="69" y="302"/>
      <point x="50" y="294" type="curve"/>
      <point x="50" y="256" type="line"/>
      <point x="69" y="248"/>
      <point x="87" y="237"/>
      <point x="94" y="228" type="curve"/>
      <point x="108" y="212"/>
      <point x="117" y="185"/>
      <point x="117" y="162" type="curve" smooth="yes"/>
      <point x="117" y="81"/>
      <point x="101" y="13"/>
      <point x="101" y="-52" type="curve" smooth="yes"/>
      <point x="101" y="-131"/>
      <point x="159" y="-184"/>
      <point x="246" y="-184" type="curve" smooth="yes"/>
      <point x="283" y="-184"/>
      <point x="325" y="-179"/>
      <point x="350" y="-171" type="curve"/>
      <point x="348" y="-116" type="line"/>
      <point x="341" y="-117"/>
      <point x="329" y="-118"/>
      <point x="318" y="-118" type="curve" smooth="yes"/>
      <point x="248" y="-118"/>
      <point x="202" y="-90"/>
      <point x="202" y="-47" type="curve" smooth="yes"/>
      <point x="202" y="3"/>
      <point x="219" y="86"/>
      <point x="219" y="147" type="curve" smooth="yes"/>
      <point x="219" y="210"/>
      <point x="197" y="259"/>
      <point x="165" y="270" type="curve"/>
      <point x="165" y="280" type="line"/>
      <point x="197" y="291"/>
      <point x="219" y="340"/>
      <point x="219" y="403" type="curve" smooth="yes"/>
      <point x="219" y="494"/>
      <point x="202" y="547"/>
      <point x="202" y="597" type="curve" smooth="yes"/>
      <point x="202" y="640"/>
      <point x="248" y="668"/>
      <point x="318" y="668" type="curve" smooth="yes"/>
      <point x="329" y="668"/>
      <point x="341" y="667"/>
      <point x="348" y="666" type="curve"/>
      <point x="350" y="721" type="line"/>
      <point x="337" y="729"/>
      <point x="299" y="734"/>
    </contour>
  </outline>
</glyph>
<glyph name="cent" format="1">
  <advance width="522"/>
  <unicode hex="00A2"/>
  <outline>
    <contour>
      <point x="295" y="520" type="curve" smooth="yes"/>
      <point x="141" y="520"/>
      <point x="50" y="418"/>
      <point x="50" y="230" type="curve" smooth="yes"/>
      <point x="50" y="88"/>
      <point x="132" y="-16"/>
      <point x="272" y="-16" type="curve" smooth="yes"/>
      <point x="382" y="-16"/>
      <point x="472" y="39"/>
      <point x="472" y="83" type="curve" smooth="yes"/>
      <point x="472" y="90"/>
      <point x="464" y="115"/>
      <point x="450" y="124" type="curve"/>
      <point x="415" y="93"/>
      <point x="373" y="74"/>
      <point x="317" y="74" type="curve" smooth="yes"/>
      <point x="209" y="74"/>
      <point x="177" y="156"/>
      <point x="177" y="270" type="curve" smooth="yes"/>
      <point x="177" y="369"/>
      <point x="215" y="438"/>
      <point x="285" y="438" type="curve" smooth="yes"/>
      <point x="350" y="438"/>
      <point x="374" y="380"/>
      <point x="375" y="331" type="curve"/>
      <point x="408" y="327"/>
      <point x="462" y="344"/>
      <point x="462" y="408" type="curve" smooth="yes"/>
      <point x="462" y="478"/>
      <point x="395" y="520"/>
    </contour>
    <contour>
      <point x="320" y="25" type="line"/>
      <point x="256" y="22" type="line"/>
      <point x="244" y="-116" type="line"/>
      <point x="261" y="-127"/>
      <point x="315" y="-126"/>
      <point x="334" y="-116" type="curve"/>
    </contour>
    <contour>
      <point x="334" y="610" type="line"/>
      <point x="315" y="620"/>
      <point x="261" y="621"/>
      <point x="244" y="610" type="curve"/>
      <point x="254" y="494" type="line"/>
      <point x="323" y="500" type="line"/>
    </contour>
  </outline>
</glyph>
<glyph name="yen" format="1">
  <advance width="665"/>
  <unicode hex="00A5"/>
  <outline>
    <contour>
      <point x="397" y="328" type="line"/>
      <point x="276" y="331" type="line"/>
      <point x="276" y="0" type="line"/>
      <point x="397" y="0" type="line"/>
    </contour>
    <contour>
      <point x="398" y="71" type="line"/>
      <point x="276" y="69" type="line"/>
      <point x="247" y="67" type="line" smooth="yes"/>
      <point x="198" y="64"/>
      <point x="204" y="10"/>
      <point x="203" y="0" type="curve"/>
      <point x="424" y="0" type="line" smooth="yes"/>
      <point x="474" y="0"/>
      <point x="470" y="55"/>
      <point x="469" y="65" type="curve"/>
    </contour>
    <contour>
      <point x="48" y="600" type="line"/>
      <point x="287" y="260" type="line"/>
      <point x="382" y="260" type="line"/>
      <point x="608" y="614" type="line"/>
      <point x="506" y="608" type="line"/>
      <point x="314" y="293" type="line"/>
      <point x="364" y="334" type="line"/>
      <point x="187" y="608" type="line"/>
    </contour>
    <contour>
      <point x="479" y="549" type="line"/>
      <point x="571" y="551" type="line"/>
      <point x="607" y="553" type="line" smooth="yes"/>
      <point x="656" y="556"/>
      <point x="650" y="610"/>
      <point x="651" y="620" type="curve"/>
      <point x="441" y="620" type="line" smooth="yes"/>
      <point x="391" y="620"/>
      <point x="395" y="565"/>
      <point x="396" y="555" type="curve"/>
    </contour>
    <contour>
      <point x="91" y="549" type="line"/>
      <point x="210" y="551" type="line"/>
      <point x="247" y="553" type="line" smooth="yes"/>
      <point x="295" y="556"/>
      <point x="290" y="610"/>
      <point x="291" y="620" type="curve"/>
      <point x="61" y="620" type="line" smooth="yes"/>
      <point x="11" y="620"/>
      <point x="15" y="565"/>
      <point x="16" y="555" type="curve"/>
    </contour>
    <contour>
      <point x="506" y="329" type="line"/>
      <point x="161" y="329" type="line"/>
      <point x="161" y="262" type="line"/>
      <point x="506" y="262" type="line"/>
    </contour>
    <contour>
      <point x="506" y="211" type="line"/>
      <point x="161" y="211" type="line"/>
      <point x="161" y="144" type="line"/>
      <point x="506" y="144" type="line"/>
    </contour>
  </outline>
</glyph>
<glyph name="guillemotleft" format="1">
  <advance width="621"/>
  <unicode hex="00AB"/>
  <outline>
    <contour>
      <point x="595" y="441" type="line"/>
      <point x="538" y="491" type="line"/>
      <point x="294" y="281" type="line"/>
      <point x="289" y="264"/>
      <point x="289" y="239"/>
      <point x="294" y="222" type="curve"/>
      <point x="538" y="12" type="line"/>
      <point x="601" y="62" type="line"/>
      <point x="435" y="247" type="line"/>
      <point x="435" y="256" type="line"/>
    </contour>
    <contour>
      <point x="345" y="441" type="line"/>
      <point x="288" y="491" type="line"/>
      <point x="44" y="281" type="line"/>
      <point x="39" y="264"/>
      <point x="39" y="239"/>
      <point x="44" y="222" type="curve"/>
      <point x="288" y="12" type="line"/>
      <point x="351" y="62" type="line"/>
      <point x="185" y="247" type="line"/>
      <point x="185" y="256" type="line"/>
    </contour>
  </outline>
</glyph>
<glyph name="degree" format="1">
  <advance width="390"/>
  <unicode hex="00B0"/>
  <outline>
    <contour>
      <point x="60" y="579" type="curve" smooth="yes"/>
      <point x="60" y="502"/>
      <point x="116" y="449"/>
      <point x="195" y="449" type="curve" smooth="yes"/>
      <point x="273" y="449"/>
      <point x="330" y="503"/>
      <point x="330" y="580" type="curve" smooth="yes"/>
      <point x="330" y="658"/>
      <point x="274" y="709"/>
      <point x="196" y="709" type="curve" smooth="yes"/>
      <point x="118" y="709"/>
      <point x="60" y="657"/>
    </contour>
    <contour>
      <point x="138" y="580" type="curve" smooth="yes"/>
      <point x="138" y="614"/>
      <point x="160" y="638"/>
      <point x="195" y="638" type="curve" smooth="yes"/>
      <point x="229" y="638"/>
      <point x="252" y="614"/>
      <point x="252" y="579" type="curve" smooth="yes"/>
      <point x="252" y="545"/>
      <point x="230" y="519"/>
      <point x="195" y="519" type="curve" smooth="yes"/>
      <point x="161" y="519"/>
      <point x="138" y="545"/>
    </contour>
  </outline>
</glyph>
<glyph name="twosuperior" format="1">
  <advance width="353"/>
  <unicode hex="00B2"/>
  <outline>
    <contour>
      <point x="171" y="631" type="curve" smooth="yes"/>
      <point x="103" y="631"/>
      <point x="47" y="596"/>
      <point x="47" y="548" type="curve" smooth="yes"/>
      <point x="47" y="508"/>
      <point x="81" y="499"/>
      <point x="116" y="500" type="curve"/>
      <point x="116" y="539"/>
      <point x="131" y="581"/>
      <point x="174" y="581" type="curve" smooth="yes"/>
      <point x="198" y="581"/>
      <point x="212" y="558"/>
      <point x="212" y="531" type="curve" smooth="yes"/>
      <point x="212" y="451"/>
      <point x="102" y="375"/>
      <point x="38" y="324" type="curve"/>
      <point x="36" y="317"/>
      <point x="48" y="283"/>
      <point x="50" y="278" type="curve"/>
      <point x="320" y="278" type="line"/>
      <point x="320" y="389" type="line"/>
      <point x="302" y="394"/>
      <point x="278" y="389"/>
      <point x="276" y="368" type="curve" smooth="yes"/>
      <point x="272" y="332" type="line"/>
      <point x="89" y="332" type="line"/>
      <point x="123" y="321" type="line"/>
      <point x="164" y="339"/>
      <point x="304" y="432"/>
      <point x="304" y="533" type="curve" smooth="yes"/>
      <point x="304" y="589"/>
      <point x="260" y="631"/>
    </contour>
  </outline>
</glyph>
<glyph name="paragraph" format="1">
  <advance width="751"/>
  <unicode hex="00B6"/>
  <outline>
    <contour>
      <point x="241" y="685" type="line"/>
      <point x="123" y="685"/>
      <point x="45" y="603"/>
      <point x="45" y="486" type="curve" smooth="yes"/>
      <point x="45" y="355"/>
      <point x="133" y="275"/>
      <point x="278" y="275" type="curve"/>
      <point x="278" y="-90" type="line"/>
      <point x="401" y="-90" type="line"/>
      <point x="401" y="616" type="line"/>
      <point x="510" y="616" type="line"/>
      <point x="510" y="-90" type="line"/>
      <point x="633" y="-90" type="line"/>
      <point x="633" y="616" type="line"/>
      <point x="706" y="622" type="line"/>
      <point x="707" y="660"/>
      <point x="692" y="685"/>
      <point x="667" y="685" type="curve" smooth="yes"/>
    </contour>
  </outline>
</glyph>
<glyph name="cedilla" format="1">
  <advance width="600"/>
  <unicode hex="00B8"/>
  <outline>
    <contour>
      <point x="286" y="0" type="move" name="_bottom"/>
    </contour>
    <contour>
      <point x="319" y="18" type="line"/>
      <point x="265" y="18" type="line"/>
      <point x="238" y="-86" type="line"/>
      <point x="298" y="-86"/>
      <point x="307" y="-101"/>
      <point x="307" y="-120" type="curve" smooth="yes"/>
      <point x="307" y="-145"/>
      <point x="291" y="-150"/>
      <point x="272" y="-150" type="curve" smooth="yes"/>
      <point x="252" y="-150"/>
      <point x="235" y="-144"/>
      <point x="224" y="-135" type="curve"/>
      <point x="218" y="-139"/>
      <point x="210" y="-162"/>
      <point x="212" y="-177" type="curve"/>
      <point x="226" y="-192"/>
      <point x="250" y="-205"/>
      <point x="286" y="-205" type="curve" smooth="yes"/>
      <point x="348" y="-205"/>
      <point x="387" y="-167"/>
      <point x="387" y="-120" type="curve" smooth="yes"/>
      <point x="387" y="-84"/>
      <point x="364" y="-46"/>
      <point x="303" y="-46" type="curve"/>
    </contour>
  </outline>
</glyph>
<glyph name="onesuperior" format="1">
  <advance width="294"/>
  <unicode hex="00B9"/>
  <outline>
    <contour>
      <point x="201" y="594" type="line"/>
      <point x="201" y="616"/>
      <point x="193" y="627"/>
      <point x="178" y="627" type="curve" smooth="yes"/>
      <point x="169" y="627"/>
      <point x="143" y="626"/>
      <point x="130" y="619" type="curve" smooth="yes"/>
      <point x="30" y="564" type="line"/>
      <point x="29" y="556"/>
      <point x="46" y="518"/>
      <point x="73" y="526" type="curve" smooth="yes"/>
      <point x="111" y="538" type="line"/>
      <point x="111" y="278" type="line"/>
      <point x="201" y="278" type="line"/>
    </contour>
    <contour>
      <point x="201" y="329" type="line"/>
      <point x="111" y="328" type="line"/>
      <point x="76" y="326" type="line" smooth="yes"/>
      <point x="44" y="324"/>
      <point x="48" y="284"/>
      <point x="47" y="278" type="curve"/>
      <point x="233" y="278" type="line" smooth="yes"/>
      <point x="266" y="278"/>
      <point x="263" y="319"/>
      <point x="263" y="325" type="curve"/>
    </contour>
  </outline>
</glyph>
<glyph name="ordmasculine" format="1">
  <advance width="401"/>
  <unicode hex="00BA"/>
  <outline>
    <contour>
      <point x="204" y="324" type="move" name="top"/>
    </contour>
    <contour>
      <point x="205" y="633" type="curve" smooth="yes"/>
      <point x="96" y="633"/>
      <point x="41" y="567"/>
      <point x="41" y="454" type="curve" smooth="yes"/>
      <point x="41" y="351"/>
      <point x="90" y="291"/>
      <point x="188" y="291" type="curve" smooth="yes"/>
      <point x="295" y="291"/>
      <point x="352" y="350"/>
      <point x="352" y="459" type="curve" smooth="yes"/>
      <point x="352" y="552"/>
      <point x="306" y="633"/>
    </contour>
    <contour>
      <point x="197" y="573" type="curve" smooth="yes"/>
      <point x="236" y="573"/>
      <point x="259" y="534"/>
      <point x="259" y="454" type="curve" smooth="yes"/>
      <point x="259" y="388"/>
      <point x="237" y="351"/>
      <point x="197" y="351" type="curve" smooth="yes"/>
      <point x="158" y="351"/>
      <point x="134" y="386"/>
      <point x="134" y="461" type="curve" smooth="yes"/>
      <point x="134" y="531"/>
      <point x="157" y="573"/>
    </contour>
  </outline>
</glyph>
<glyph name="guillemotright" format="1">
  <advance width="621"/>
  <unicode hex="00BB"/>
  <outline>
    <contour>
      <point x="26" y="441" type="line"/>
      <point x="83" y="491" type="line"/>
      <point x="327" y="281" type="line"/>
      <point x="332" y="264"/>
      <point x="332" y="239"/>
      <point x="327" y="222" type="curve"/>
      <point x="83" y="12" type="line"/>
      <point x="20" y="62" type="line"/>
      <point x="186" y="247" type="line"/>
      <point x="186" y="256" type="line"/>
    </contour>
    <contour>
      <point x="276" y="441" type="line"/>
      <point x="333" y="491" type="line"/>
      <point x="577" y="281" type="line"/>
      <point x="582" y="264"/>
      <point x="582" y="239"/>
      <point x="577" y="222" type="curve"/>
      <point x="333" y="12" type="line"/>
      <point x="270" y="62" type="line"/>
      <point x="436" y="247" type="line"/>
      <point x="436" y="256" type="line"/>
    </contour>
  </outline>
</glyph>
<glyph name="onequarter" format="1">
  <advance width="740"/>
  <unicode hex="00BC"/>
  <outline>
    <contour>
      <point x="610" y="630" type="line"/>
      <point x="505" y="630" type="line"/>
      <point x="149" y="0" type="line"/>
      <point x="254" y="0" type="line"/>
    </contour>
    <contour>
      <point x="201" y="594" type="line"/>
      <point x="201" y="616"/>
      <point x="193" y="627"/>
      <point x="178" y="627" type="curve" smooth="yes"/>
      <point x="169" y="627"/>
      <point x="143" y="626"/>
      <point x="130" y="619" type="curve" smooth="yes"/>
      <point x="30" y="564" type="line"/>
      <point x="29" y="556"/>
      <point x="46" y="518"/>
      <point x="73" y="526" type="curve" smooth="yes"/>
      <point x="111" y="538" type="line"/>
      <point x="111" y="278" type="line"/>
      <point x="201" y="278" type="line"/>
    </contour>
    <contour>
      <point x="201" y="329" type="line"/>
      <point x="111" y="328" type="line"/>
      <point x="77" y="326" type="line" smooth="yes"/>
      <point x="45" y="324"/>
      <point x="49" y="284"/>
      <point x="48" y="278" type="curve"/>
      <point x="232" y="278" type="line" smooth="yes"/>
      <point x="265" y="278"/>
      <point x="262" y="319"/>
      <point x="262" y="325" type="curve"/>
    </contour>
    <contour>
      <point x="655" y="353" type="line"/>
      <point x="636" y="355"/>
      <point x="601" y="353"/>
      <point x="580" y="349" type="curve"/>
      <point x="403" y="100" type="line"/>
      <point x="406" y="85"/>
      <point x="411" y="73"/>
      <point x="422" y="60" type="curve"/>
      <point x="700" y="60" type="line"/>
      <point x="700" y="110" type="line"/>
      <point x="433" y="110" type="line"/>
      <point x="467" y="97" type="line"/>
      <point x="628" y="328" type="line"/>
      <point x="565" y="298" type="line"/>
      <point x="565" y="-15" type="line"/>
      <point x="655" y="-10" type="line"/>
    </contour>
  </outline>
</glyph>
<glyph name="Aacute" format="1">
  <advance width="660"/>
  <unicode hex="00C1"/>
  <outline>
    <contour>
      <point x="178" y="71" type="line"/>
      <point x="96" y="69" type="line"/>
      <point x="57" y="67" type="line" smooth="yes"/>
      <point x="8" y="64"/>
      <point x="14" y="10"/>
      <point x="13" y="0" type="curve"/>
      <point x="214" y="0" type="line" smooth="yes"/>
      <point x="264" y="0"/>
      <point x="260" y="55"/>
      <point x="259" y="65" type="curve"/>
    </contour>
    <contour>
      <point x="574" y="71" type="line"/>
      <point x="439" y="69" type="line"/>
      <point x="410" y="67" type="line" smooth="yes"/>
      <point x="361" y="64"/>
      <point x="367" y="10"/>
      <point x="366" y="0" type="curve"/>
      <point x="600" y="0" type="line" smooth="yes"/>
      <point x="650" y="0"/>
      <point x="646" y="55"/>
      <point x="645" y="65" type="curve"/>
    </contour>
    <contour>
      <point x="172" y="281" type="line"/>
      <point x="172" y="214" type="line"/>
      <point x="444" y="214" type="line"/>
      <point x="444" y="281" type="line"/>
    </contour>
    <contour>
      <point x="455" y="13" type="line"/>
      <point x="582" y="48" type="line"/>
      <point x="387" y="685" type="line"/>
      <point x="347" y="688"/>
      <point x="326" y="689"/>
      <point x="286" y="685" type="curve"/>
      <point x="73" y="0" type="line"/>
      <point x="157" y="0" type="line"/>
      <point x="338" y="619" type="line"/>
      <point x="290" y="620" type="line"/>
    </contour>
    <contour>
      <point x="503" y="842" type="line"/>
      <point x="493" y="863"/>
      <point x="455" y="903"/>
      <point x="421" y="910" type="curve"/>
      <point x="254" y="773" type="line"/>
      <point x="260" y="759"/>
      <point x="272" y="744"/>
      <point x="296" y="732" type="curve"/>
    </contour>
  </outline>
</glyph>
<glyph name="Adieresis" format="1">
  <advance width="660"/>
  <unicode hex="00C4"/>
  <outline>
    <contour>
      <point x="178" y="71" type="line"/>
      <point x="96" y="69" type="line"/>
      <point x="57" y="67" type="line" smooth="yes"/>
      <point x="8" y="64"/>
      <point x="14" y="10"/>
      <point x="13" y="0" type="curve"/>
      <point x="214" y="0" type="line" smooth="yes"/>
      <point x="264" y="0"/>
      <point x="260" y="55"/>
      <point x="259" y="65" type="curve"/>
    </contour>
    <contour>
      <point x="574" y="71" type="line"/>
      <point x="439" y="69" type="line"/>
      <point x="410" y="67" type="line" smooth="yes"/>
      <point x="361" y="64"/>
      <point x="367" y="10"/>
      <point x="366" y="0" type="curve"/>
      <point x="600" y="0" type="line" smooth="yes"/>
      <point x="650" y="0"/>
      <point x="646" y="55"/>
      <point x="645" y="65" type="curve"/>
    </contour>
    <contour>
      <point x="172" y="281" type="line"/>
      <point x="172" y="214" type="line"/>
      <point x="444" y="214" type="line"/>
      <point x="444" y="281" type="line"/>
    </contour>
    <contour>
      <point x="455" y="13" type="line"/>
      <point x="582" y="48" type="line"/>
      <point x="387" y="685" type="line"/>
      <point x="347" y="688"/>
      <point x="326" y="689"/>
      <point x="286" y="685" type="curve"/>
      <point x="73" y="0" type="line"/>
      <point x="157" y="0" type="line"/>
      <point x="338" y="619" type="line"/>
      <point x="290" y="620" type="line"/>
    </contour>
    <contour>
      <point x="236" y="754" type="curve" smooth="yes"/>
      <point x="275" y="754"/>
      <point x="306" y="785"/>
      <point x="306" y="824" type="curve" smooth="yes"/>
      <point x="306" y="862"/>
      <point x="275" y="894"/>
      <point x="236" y="894" type="curve" smooth="yes"/>
      <point x="197" y="894"/>
      <point x="165" y="862"/>
      <point x="165" y="824" type="curve" smooth="yes"/>
      <point x="165" y="785"/>
      <point x="197" y="754"/>
    </contour>
    <contour>
      <point x="426" y="754" type="curve" smooth="yes"/>
      <point x="466" y="754"/>
      <point x="497" y="785"/>
      <point x="497" y="824" type="curve" smooth="yes"/>
      <point x="497" y="862"/>
      <point x="466" y="894"/>
      <point x="426" y="894" type="curve" smooth="yes"/>
      <point x="388" y="894"/>
      <point x="356" y="862"/>
      <point x="356" y="824" type="curve" smooth="yes"/>
      <point x="356" y="785"/>
      <point x="388" y="754"/>
    </contour>
  </outline>
</glyph>
<glyph name="Aring" format="1">
  <advance width="660"/>
  <unicode hex="00C5"/>
  <outline>
    <contour>
      <point x="178" y="71" type="line"/>
      <point x="96" y="69" type="line"/>
      <point x="57" y="67" type="line" smooth="yes"/>
      <point x="8" y="64"/>
      <point x="14" y="10"/>
      <point x="13" y="0" type="curve"/>
      <point x="214" y="0" type="line" smooth="yes"/>
      <point x="264" y="0"/>
      <point x="260" y="55"/>
      <point x="259" y="65" type="curve"/>
    </contour>
    <contour>
      <point x="574" y="71" type="line"/>
      <point x="439" y="69" type="line"/>
      <point x="410" y="67" type="line" smooth="yes"/>
      <point x="361" y="64"/>
      <point x="367" y="10"/>
      <point x="366" y="0" type="curve"/>
      <point x="600" y="0" type="line" smooth="yes"/>
      <point x="650" y="0"/>
      <point x="646" y="55"/>
      <point x="645" y="65" type="curve"/>
    </contour>
    <contour>
      <point x="172" y="281" type="line"/>
      <point x="172" y="214" type="line"/>
      <point x="444" y="214" type="line"/>
      <point x="444" y="281" type="line"/>
    </contour>
    <contour>
      <point x="455" y="13" type="line"/>
      <point x="582" y="48" type="line"/>
      <point x="387" y="685" type="line"/>
      <point x="347" y="688"/>
      <point x="326" y="689"/>
      <point x="286" y="685" type="curve"/>
      <point x="73" y="0" type="line"/>
      <point x="157" y="0" type="line"/>
      <point x="338" y="619" type="line"/>
      <point x="290" y="620" type="line"/>
    </contour>
    <contour>
      <point x="341" y="909" type="curve" smooth="yes"/>
      <point x="283" y="909"/>
      <point x="244" y="872"/>
      <point x="244" y="816" type="curve" smooth="yes"/>
      <point x="244" y="763"/>
      <point x="281" y="727"/>
      <point x="337" y="727" type="curve" smooth="yes"/>
      <point x="394" y="727"/>
      <point x="433" y="764"/>
      <point x="434" y="820" type="curve" smooth="yes"/>
      <point x="435" y="873"/>
      <point x="398" y="909"/>
    </contour>
    <contour>
      <point x="339" y="860" type="curve" smooth="yes"/>
      <point x="365" y="860"/>
      <point x="382" y="844"/>
      <point x="382" y="818" type="curve" smooth="yes"/>
      <point x="382" y="792"/>
      <point x="365" y="775"/>
      <point x="339" y="775" type="curve" smooth="yes"/>
      <point x="313" y="775"/>
      <point x="297" y="792"/>
      <point x="297" y="818" type="curve" smooth="yes"/>
      <point x="297" y="844"/>
      <point x="313" y="860"/>
    </contour>
  </outline>
</glyph>
<glyph name="Ccedilla" format="1">
  <advance width="602"/>
  <unicode hex="00C7"/>
  <outline>
    <contour>
      <point x="370" y="700" type="curve" smooth="yes"/>
      <point x="144" y="700"/>
      <point x="35" y="546"/>
      <point x="35" y="335" type="curve" smooth="yes"/>
      <point x="35" y="117"/>
      <point x="134" y="-15"/>
      <point x="334" y="-15" type="curve" smooth="yes"/>
      <point x="468" y="-15"/>
      <point x="572" y="52"/>
      <point x="572" y="103" type="curve" smooth="yes"/>
      <point x="572" y="114"/>
      <point x="566" y="129"/>
      <point x="556" y="135" type="curve"/>
      <point x="519" y="107"/>
      <point x="453" y="74"/>
      <point x="373" y="74" type="curve" smooth="yes"/>
      <point x="223" y="74"/>
      <point x="165" y="169"/>
      <point x="165" y="347" type="curve" smooth="yes"/>
      <point x="165" y="499"/>
      <point x="231" y="614"/>
      <point x="358" y="614" type="curve" smooth="yes"/>
      <point x="432" y="614"/>
      <point x="466" y="567"/>
      <point x="466" y="485" type="curve"/>
      <point x="526" y="485"/>
      <point x="566" y="514"/>
      <point x="566" y="569" type="curve" smooth="yes"/>
      <point x="566" y="639"/>
      <point x="490" y="700"/>
    </contour>
    <contour>
      <point x="370" y="18" type="line"/>
      <point x="316" y="18" type="line"/>
      <point x="289" y="-86" type="line"/>
      <point x="349" y="-86"/>
      <point x="358" y="-101"/>
      <point x="358" y="-120" type="curve" smooth="yes"/>
      <point x="358" y="-145"/>
      <point x="342" y="-150"/>
      <point x="323" y="-150" type="curve" smooth="yes"/>
      <point x="303" y="-150"/>
      <point x="286" y="-144"/>
      <point x="275" y="-135" type="curve"/>
      <point x="269" y="-139"/>
      <point x="261" y="-162"/>
      <point x="263" y="-177" type="curve"/>
      <point x="277" y="-192"/>
      <point x="301" y="-205"/>
      <point x="337" y="-205" type="curve" smooth="yes"/>
      <point x="399" y="-205"/>
      <point x="438" y="-167"/>
      <point x="438" y="-120" type="curve" smooth="yes"/>
      <point x="438" y="-84"/>
      <point x="415" y="-46"/>
      <point x="354" y="-46" type="curve"/>
    </contour>
  </outline>
</glyph>
<glyph name="Idieresis" format="1">
  <advance width="351"/>
  <unicode hex="00CF"/>
  <outline>
    <contour>
      <point x="238" y="655" type="line"/>
      <point x="113" y="658" type="line"/>
      <point x="113" y="0" type="line"/>
      <point x="238" y="0" type="line"/>
    </contour>
    <contour>
      <point x="239" y="71" type="line"/>
      <point x="113" y="69" type="line"/>
      <point x="84" y="67" type="line" smooth="yes"/>
      <point x="35" y="64"/>
      <point x="41" y="10"/>
      <point x="40" y="0" type="curve"/>
      <point x="265" y="0" type="line" smooth="yes"/>
      <point x="315" y="0"/>
      <point x="311" y="55"/>
      <point x="310" y="65" type="curve"/>
    </contour>
    <contour>
      <point x="112" y="614" type="line"/>
      <point x="238" y="616" type="line"/>
      <point x="267" y="618" type="line" smooth="yes"/>
      <point x="316" y="621"/>
      <point x="310" y="675"/>
      <point x="311" y="685" type="curve"/>
      <point x="86" y="685" type="line" smooth="yes"/>
      <point x="36" y="685"/>
      <point x="40" y="630"/>
      <point x="41" y="620" type="curve"/>
    </contour>
    <contour>
      <point x="75" y="754" type="curve" smooth="yes"/>
      <point x="114" y="754"/>
      <point x="145" y="785"/>
      <point x="145" y="824" type="curve" smooth="yes"/>
      <point x="145" y="862"/>
      <point x="114" y="894"/>
      <point x="75" y="894" type="curve" smooth="yes"/>
      <point x="36" y="894"/>
      <point x="4" y="862"/>
      <point x="4" y="824" type="curve" smooth="yes"/>
      <point x="4" y="785"/>
      <point x="36" y="754"/>
    </contour>
    <contour>
      <point x="265" y="754" type="curve" smooth="yes"/>
      <point x="305" y="754"/>
      <point x="336" y="785"/>
      <point x="336" y="824" type="curve" smooth="yes"/>
      <point x="336" y="862"/>
      <point x="305" y="894"/>
      <point x="265" y="894" type="curve" smooth="yes"/>
      <point x="227" y="894"/>
      <point x="195" y="862"/>
      <point x="195" y="824" type="curve" smooth="yes"/>
      <point x="195" y="785"/>
      <point x="227" y="754"/>
    </contour>
  </outline>
</glyph>
<glyph name="Eth" format="1">
  <advance width="720"/>
  <unicode hex="00D0"/>
  <outline>
    <contour>
      <point x="54" y="372" type="line"/>
      <point x="54" y="302" type="line"/>
      <point x="379" y="302" type="line"/>
      <point x="379" y="372" type="line"/>
    </contour>
    <component base="D"/>
  </outline>
</glyph>
<glyph name="Ocircumflex" format="1">
  <advance width="689"/>
  <unicode hex="00D4"/>
  <outline>
    <contour>
      <point x="360" y="700" type="curve" smooth="yes"/>
      <point x="156" y="700"/>
      <point x="35" y="564"/>
      <point x="35" y="335" type="curve" smooth="yes"/>
      <point x="35" y="115"/>
      <point x="143" y="-15"/>
      <point x="327" y="-15" type="curve" smooth="yes"/>
      <point x="533" y="-15"/>
      <point x="654" y="121"/>
      <point x="654" y="350" type="curve" smooth="yes"/>
      <point x="654" y="570"/>
      <point x="545" y="700"/>
    </contour>
    <contour>
      <point x="344" y="620" type="curve" smooth="yes"/>
      <point x="462" y="620"/>
      <point x="524" y="523"/>
      <point x="524" y="338" type="curve" smooth="yes"/>
      <point x="524" y="161"/>
      <point x="461" y="67"/>
      <point x="340" y="65" type="curve" smooth="yes"/>
      <point x="225" y="67"/>
      <point x="165" y="164"/>
      <point x="165" y="347" type="curve" smooth="yes"/>
      <point x="165" y="526"/>
      <point x="226" y="620"/>
    </contour>
    <contour>
      <point x="392" y="887" type="line"/>
      <point x="360" y="895"/>
      <point x="348" y="894"/>
      <point x="316" y="887" type="curve"/>
      <point x="177" y="761" type="line"/>
      <point x="187" y="742"/>
      <point x="195" y="733"/>
      <point x="212" y="723" type="curve"/>
      <point x="400" y="839" type="line"/>
      <point x="304" y="839" type="line"/>
      <point x="490" y="723" type="line"/>
      <point x="506" y="732"/>
      <point x="518" y="747"/>
      <point x="527" y="761" type="curve"/>
    </contour>
  </outline>
</glyph>
<glyph name="Otilde" format="1">
  <advance width="689"/>
  <unicode hex="00D5"/>
  <outline>
    <contour>
      <point x="360" y="700" type="curve" smooth="yes"/>
      <point x="156" y="700"/>
      <point x="35" y="564"/>
      <point x="35" y="335" type="curve" smooth="yes"/>
      <point x="35" y="115"/>
      <point x="143" y="-15"/>
      <point x="327" y="-15" type="curve" smooth="yes"/>
      <point x="533" y="-15"/>
      <point x="654" y="121"/>
      <point x="654" y="350" type="curve" smooth="yes"/>
      <point x="654" y="570"/>
      <point x="545" y="700"/>
    </contour>
    <contour>
      <point x="344" y="620" type="curve" smooth="yes"/>
      <point x="462" y="620"/>
      <point x="524" y="523"/>
      <point x="524" y="338" type="curve" smooth="yes"/>
      <point x="524" y="161"/>
      <point x="461" y="67"/>
      <point x="340" y="65" type="curve" smooth="yes"/>
      <point x="225" y="67"/>
      <point x="165" y="164"/>
      <point x="165" y="347" type="curve" smooth="yes"/>
      <point x="165" y="526"/>
      <point x="226" y="620"/>
    </contour>
    <contour>
      <point x="216" y="750" type="line"/>
      <point x="224" y="776"/>
      <point x="246" y="794"/>
      <point x="271" y="794" type="curve" smooth="yes"/>
      <point x="312" y="794"/>
      <point x="344" y="742"/>
      <point x="416" y="742" type="curve" smooth="yes"/>
      <point x="482" y="742"/>
      <point x="516" y="786"/>
      <point x="527" y="873" type="curve"/>
      <point x="495" y="882" type="line"/>
      <point x="488" y="853"/>
      <point x="465" y="831"/>
      <point x="430" y="831" type="curve" smooth="yes"/>
      <point x="375" y="831"/>
      <point x="350" y="890"/>
      <point x="288" y="890" type="curve" smooth="yes"/>
      <point x="230" y="890"/>
      <point x="192" y="836"/>
      <point x="182" y="762" type="curve"/>
    </contour>
  </outline>
</glyph>
<glyph name="Oslash" format="1">
  <advance width="700"/>
  <unicode hex="00D8"/>
  <outline>
    <contour>
      <point x="105" y="19" type="line"/>
      <point x="175" y="-19" type="line"/>
      <point x="577" y="674" type="line"/>
      <point x="506" y="710" type="line"/>
    </contour>
    <component base="O"/>
  </outline>
</glyph>
<glyph name="Udieresis" format="1">
  <advance width="669"/>
  <unicode hex="00DC"/>
  <outline>
    <contour>
      <point x="479" y="685" type="line"/>
      <point x="429" y="685"/>
      <point x="433" y="630"/>
      <point x="434" y="620" type="curve"/>
      <point x="505" y="614" type="line"/>
      <point x="506" y="263" type="line" smooth="yes"/>
      <point x="506" y="121"/>
      <point x="446" y="65"/>
      <point x="348" y="65" type="curve" smooth="yes"/>
      <point x="241" y="65"/>
      <point x="208" y="133"/>
      <point x="208" y="275" type="curve" smooth="yes"/>
      <point x="208" y="616" type="line"/>
      <point x="237" y="618" type="line" smooth="yes"/>
      <point x="286" y="621"/>
      <point x="280" y="675"/>
      <point x="281" y="685" type="curve"/>
      <point x="56" y="685" type="line" smooth="yes"/>
      <point x="6" y="685"/>
      <point x="10" y="630"/>
      <point x="11" y="620" type="curve"/>
      <point x="83" y="614" type="line"/>
      <point x="83" y="291" type="line" smooth="yes"/>
      <point x="83" y="55"/>
      <point x="183" y="-15"/>
      <point x="330" y="-15" type="curve" smooth="yes"/>
      <point x="499" y="-15"/>
      <point x="586" y="77"/>
      <point x="586" y="290" type="curve" smooth="yes"/>
      <point x="586" y="616" type="line"/>
      <point x="615" y="618" type="line" smooth="yes"/>
      <point x="664" y="621"/>
      <point x="658" y="675"/>
      <point x="659" y="685" type="curve"/>
    </contour>
    <contour>
      <point x="240" y="754" type="curve" smooth="yes"/>
      <point x="279" y="754"/>
      <point x="310" y="785"/>
      <point x="310" y="824" type="curve" smooth="yes"/>
      <point x="310" y="862"/>
      <point x="279" y="894"/>
      <point x="240" y="894" type="curve" smooth="yes"/>
      <point x="201" y="894"/>
      <point x="169" y="862"/>
      <point x="169" y="824" type="curve" smooth="yes"/>
      <point x="169" y="785"/>
      <point x="201" y="754"/>
    </contour>
    <contour>
      <point x="430" y="754" type="curve" smooth="yes"/>
      <point x="470" y="754"/>
      <point x="501" y="785"/>
      <point x="501" y="824" type="curve" smooth="yes"/>
      <point x="501" y="862"/>
      <point x="470" y="894"/>
      <point x="430" y="894" type="curve" smooth="yes"/>
      <point x="392" y="894"/>
      <point x="360" y="862"/>
      <point x="360" y="824" type="curve" smooth="yes"/>
      <point x="360" y="785"/>
      <point x="392" y="754"/>
    </contour>
  </outline>
</glyph>
<glyph name="Thorn" format="1">
  <advance width="587"/>
  <unicode hex="00DE"/>
  <outline>
    <contour>
      <point x="220" y="562" type="line"/>
      <point x="223" y="499" type="line"/>
      <point x="287" y="499" type="line" smooth="yes"/>
      <point x="378" y="499"/>
      <point x="431" y="446"/>
      <point x="431" y="357" type="curve" smooth="yes"/>
      <point x="431" y="262"/>
      <point x="365" y="206"/>
      <point x="253" y="206" type="curve" smooth="yes"/>
      <point x="242" y="206"/>
      <point x="231" y="206"/>
      <point x="220" y="206" type="curve"/>
      <point x="220" y="144" type="line"/>
      <point x="229" y="144"/>
      <point x="257" y="144"/>
      <point x="273" y="144" type="curve" smooth="yes"/>
      <point x="453" y="144"/>
      <point x="559" y="224"/>
      <point x="559" y="360" type="curve" smooth="yes"/>
      <point x="559" y="487"/>
      <point x="461" y="562"/>
      <point x="294" y="562" type="curve" smooth="yes"/>
    </contour>
    <contour>
      <point x="239" y="71" type="line"/>
      <point x="113" y="69" type="line"/>
      <point x="84" y="67" type="line" smooth="yes"/>
      <point x="35" y="64"/>
      <point x="41" y="10"/>
      <point x="40" y="0" type="curve"/>
      <point x="265" y="0" type="line" smooth="yes"/>
      <point x="315" y="0"/>
      <point x="311" y="55"/>
      <point x="310" y="65" type="curve"/>
    </contour>
    <contour>
      <point x="113" y="658" type="line"/>
      <point x="113" y="0" type="line"/>
      <point x="238" y="0" type="line"/>
      <point x="238" y="655" type="line"/>
    </contour>
    <contour>
      <point x="86" y="685" type="line"/>
      <point x="36" y="685"/>
      <point x="40" y="630"/>
      <point x="41" y="620" type="curve"/>
      <point x="112" y="614" type="line"/>
      <point x="238" y="616" type="line"/>
      <point x="267" y="618" type="line" smooth="yes"/>
      <point x="316" y="621"/>
      <point x="310" y="675"/>
      <point x="311" y="685" type="curve"/>
    </contour>
  </outline>
</glyph>
<glyph name="atilde" format="1">
  <advance width="521"/>
  <unicode hex="00E3"/>
  <outline>
    <contour>
      <point x="240" y="520" type="curve" smooth="yes"/>
      <point x="133" y="520"/>
      <point x="61" y="473"/>
      <point x="61" y="410" type="curve" smooth="yes"/>
      <point x="61" y="363"/>
      <point x="103" y="342"/>
      <point x="154" y="347" type="curve"/>
      <point x="154" y="408"/>
      <point x="194" y="440"/>
      <point x="233" y="440" type="curve" smooth="yes"/>
      <point x="292" y="440"/>
      <point x="324" y="409"/>
      <point x="324" y="313" type="curve" smooth="yes"/>
      <point x="324" y="83" type="line" smooth="yes"/>
      <point x="324" y="32"/>
      <point x="347" y="-15"/>
      <point x="428" y="-15" type="curve" smooth="yes"/>
      <point x="496" y="-15"/>
      <point x="511" y="17"/>
      <point x="511" y="45" type="curve"/>
      <point x="446" y="53" type="line"/>
      <point x="446" y="320" type="line" smooth="yes"/>
      <point x="446" y="462"/>
      <point x="365" y="520"/>
    </contour>
    <contour>
      <point x="242" y="275" type="curve" smooth="yes"/>
      <point x="85" y="275"/>
      <point x="30" y="205"/>
      <point x="30" y="124" type="curve" smooth="yes"/>
      <point x="30" y="37"/>
      <point x="95" y="-15"/>
      <point x="186" y="-15" type="curve" smooth="yes"/>
      <point x="272" y="-15"/>
      <point x="337" y="27"/>
      <point x="387" y="95" type="curve"/>
      <point x="382" y="144" type="line"/>
      <point x="337" y="100"/>
      <point x="296" y="66"/>
      <point x="229" y="66" type="curve" smooth="yes"/>
      <point x="182" y="66"/>
      <point x="157" y="91"/>
      <point x="157" y="132" type="curve" smooth="yes"/>
      <point x="157" y="186"/>
      <point x="201" y="207"/>
      <point x="247" y="207" type="curve" smooth="yes"/>
      <point x="308" y="207"/>
      <point x="371" y="184"/>
      <point x="410" y="133" type="curve"/>
      <point x="404" y="243" type="line"/>
      <point x="366" y="265"/>
      <point x="305" y="275"/>
    </contour>
    <contour>
      <point x="112" y="570" type="line"/>
      <point x="120" y="596"/>
      <point x="142" y="614"/>
      <point x="167" y="614" type="curve" smooth="yes"/>
      <point x="208" y="614"/>
      <point x="240" y="562"/>
      <point x="312" y="562" type="curve" smooth="yes"/>
      <point x="378" y="562"/>
      <point x="412" y="606"/>
      <point x="423" y="693" type="curve"/>
      <point x="391" y="702" type="line"/>
      <point x="384" y="673"/>
      <point x="361" y="651"/>
      <point x="326" y="651" type="curve" smooth="yes"/>
      <point x="271" y="651"/>
      <point x="246" y="710"/>
      <point x="184" y="710" type="curve" smooth="yes"/>
      <point x="126" y="710"/>
      <point x="88" y="656"/>
      <point x="78" y="582" type="curve"/>
    </contour>
  </outline>
</glyph>
<glyph name="aring" format="1">
  <advance width="521"/>
  <unicode hex="00E5"/>
  <outline>
    <contour>
      <point x="240" y="520" type="curve" smooth="yes"/>
      <point x="133" y="520"/>
      <point x="61" y="473"/>
      <point x="61" y="410" type="curve" smooth="yes"/>
      <point x="61" y="363"/>
      <point x="103" y="342"/>
      <point x="154" y="347" type="curve"/>
      <point x="154" y="408"/>
      <point x="194" y="440"/>
      <point x="233" y="440" type="curve" smooth="yes"/>
      <point x="292" y="440"/>
      <point x="324" y="409"/>
      <point x="324" y="313" type="curve" smooth="yes"/>
      <point x="324" y="83" type="line" smooth="yes"/>
      <point x="324" y="32"/>
      <point x="347" y="-15"/>
      <point x="428" y="-15" type="curve" smooth="yes"/>
      <point x="496" y="-15"/>
      <point x="511" y="17"/>
      <point x="511" y="45" type="curve"/>
      <point x="446" y="53" type="line"/>
      <point x="446" y="320" type="line" smooth="yes"/>
      <point x="446" y="462"/>
      <point x="365" y="520"/>
    </contour>
    <contour>
      <point x="242" y="275" type="curve" smooth="yes"/>
      <point x="85" y="275"/>
      <point x="30" y="205"/>
      <point x="30" y="124" type="curve" smooth="yes"/>
      <point x="30" y="37"/>
      <point x="95" y="-15"/>
      <point x="186" y="-15" type="curve" smooth="yes"/>
      <point x="272" y="-15"/>
      <point x="337" y="27"/>
      <point x="387" y="95" type="curve"/>
      <point x="382" y="144" type="line"/>
      <point x="337" y="100"/>
      <point x="296" y="66"/>
      <point x="229" y="66" type="curve" smooth="yes"/>
      <point x="182" y="66"/>
      <point x="157" y="91"/>
      <point x="157" y="132" type="curve" smooth="yes"/>
      <point x="157" y="186"/>
      <point x="201" y="207"/>
      <point x="247" y="207" type="curve" smooth="yes"/>
      <point x="308" y="207"/>
      <point x="371" y="184"/>
      <point x="410" y="133" type="curve"/>
      <point x="404" y="243" type="line"/>
      <point x="366" y="265"/>
      <point x="305" y="275"/>
    </contour>
    <contour>
      <point x="253" y="729" type="curve" smooth="yes"/>
      <point x="195" y="729"/>
      <point x="156" y="692"/>
      <point x="156" y="636" type="curve" smooth="yes"/>
      <point x="156" y="583"/>
      <point x="193" y="547"/>
      <point x="249" y="547" type="curve" smooth="yes"/>
      <point x="306" y="547"/>
      <point x="345" y="584"/>
      <point x="346" y="640" type="curve" smooth="yes"/>
      <point x="347" y="693"/>
      <point x="310" y="729"/>
    </contour>
    <contour>
      <point x="251" y="680" type="curve" smooth="yes"/>
      <point x="277" y="680"/>
      <point x="294" y="664"/>
      <point x="294" y="638" type="curve" smooth="yes"/>
      <point x="294" y="612"/>
      <point x="277" y="595"/>
      <point x="251" y="595" type="curve" smooth="yes"/>
      <point x="225" y="595"/>
      <point x="209" y="612"/>
      <point x="209" y="638" type="curve" smooth="yes"/>
      <point x="209" y="664"/>
      <point x="225" y="680"/>
    </contour>
  </outline>
</glyph>
<glyph name="icircumflex" format="1">
  <advance width="319"/>
  <unicode hex="00EE"/>
  <outline>
    <contour>
      <point x="229" y="520" type="line"/>
      <point x="31" y="498" type="line"/>
      <point x="30" y="485"/>
      <point x="30" y="440"/>
      <point x="68" y="436" type="curve" smooth="yes"/>
      <point x="107" y="432" type="line"/>
      <point x="107" y="0" type="line"/>
      <point x="229" y="0" type="line"/>
    </contour>
    <contour>
      <point x="229" y="71" type="line"/>
      <point x="107" y="69" type="line"/>
      <point x="76" y="67" type="line" smooth="yes"/>
      <point x="27" y="64"/>
      <point x="33" y="10"/>
      <point x="32" y="0" type="curve"/>
      <point x="255" y="0" type="line" smooth="yes"/>
      <point x="305" y="0"/>
      <point x="301" y="55"/>
      <point x="300" y="65" type="curve"/>
    </contour>
    <contour>
      <point x="201" y="707" type="line"/>
      <point x="169" y="715"/>
      <point x="157" y="714"/>
      <point x="125" y="707" type="curve"/>
      <point x="-14" y="581" type="line"/>
      <point x="-4" y="562"/>
      <point x="4" y="553"/>
      <point x="21" y="543" type="curve"/>
      <point x="209" y="659" type="line"/>
      <point x="113" y="659" type="line"/>
      <point x="299" y="543" type="line"/>
      <point x="315" y="552"/>
      <point x="327" y="567"/>
      <point x="336" y="581" type="curve"/>
    </contour>
  </outline>
</glyph>
<glyph name="eth" format="1">
  <advance width="557"/>
  <unicode hex="00F0"/>
  <outline>
    <contour>
      <point x="121" y="645" type="line"/>
      <point x="166" y="637"/>
      <point x="395" y="595"/>
      <point x="395" y="299" type="curve" smooth="yes"/>
      <point x="395" y="162"/>
      <point x="346" y="72"/>
      <point x="263" y="72" type="curve" smooth="yes"/>
      <point x="200" y="72"/>
      <point x="162" y="125"/>
      <point x="162" y="229" type="curve" smooth="yes"/>
      <point x="162" y="303"/>
      <point x="181" y="399"/>
      <point x="278" y="399" type="curve" smooth="yes"/>
      <point x="358" y="399"/>
      <point x="419" y="334"/>
      <point x="427" y="305" type="curve"/>
      <point x="427" y="436" type="line"/>
      <point x="385" y="463"/>
      <point x="348" y="480"/>
      <point x="285" y="480" type="curve" smooth="yes"/>
      <point x="112" y="480"/>
      <point x="33" y="353"/>
      <point x="35" y="214" type="curve" smooth="yes"/>
      <point x="37" y="71"/>
      <point x="125" y="-15"/>
      <point x="261" y="-15" type="curve" smooth="yes"/>
      <point x="424" y="-15"/>
      <point x="522" y="109"/>
      <point x="522" y="297" type="curve" smooth="yes"/>
      <point x="522" y="578"/>
      <point x="303" y="683"/>
      <point x="155" y="706" type="curve"/>
    </contour>
    <contour>
      <point x="386" y="711" type="line"/>
      <point x="156" y="562" type="line"/>
      <point x="188" y="505" type="line"/>
      <point x="418" y="660" type="line"/>
    </contour>
  </outline>
</glyph>
<glyph name="ntilde" format="1">
  <advance width="649"/>
  <unicode hex="00F1"/>
  <outline>
    <contour>
      <point x="559" y="71" type="line"/>
      <point x="559" y="310" type="line" smooth="yes"/>
      <point x="559" y="463"/>
      <point x="466" y="520"/>
      <point x="375" y="520" type="curve" smooth="yes"/>
      <point x="305" y="520"/>
      <point x="261" y="487"/>
      <point x="222" y="453" type="curve"/>
      <point x="219" y="453" type="line"/>
      <point x="212" y="514" type="line"/>
      <point x="31" y="492" type="line"/>
      <point x="30" y="479"/>
      <point x="30" y="434"/>
      <point x="68" y="430" type="curve" smooth="yes"/>
      <point x="107" y="426" type="line"/>
      <point x="107" y="69" type="line"/>
      <point x="76" y="67" type="line" smooth="yes"/>
      <point x="27" y="64"/>
      <point x="33" y="10"/>
      <point x="32" y="0" type="curve"/>
      <point x="255" y="0" type="line" smooth="yes"/>
      <point x="305" y="0"/>
      <point x="301" y="55"/>
      <point x="300" y="65" type="curve"/>
      <point x="229" y="71" type="line"/>
      <point x="229" y="374" type="line"/>
      <point x="263" y="403"/>
      <point x="292" y="420"/>
      <point x="348" y="420" type="curve" smooth="yes"/>
      <point x="402" y="420"/>
      <point x="437" y="396"/>
      <point x="437" y="315" type="curve" smooth="yes"/>
      <point x="437" y="69" type="line"/>
      <point x="408" y="67" type="line" smooth="yes"/>
      <point x="359" y="64"/>
      <point x="365" y="10"/>
      <point x="364" y="0" type="curve"/>
      <point x="585" y="0" type="line" smooth="yes"/>
      <point x="635" y="0"/>
      <point x="631" y="55"/>
      <point x="630" y="65" type="curve"/>
    </contour>
    <contour>
      <point x="208" y="570" type="line"/>
      <point x="216" y="596"/>
      <point x="238" y="614"/>
      <point x="263" y="614" type="curve" smooth="yes"/>
      <point x="304" y="614"/>
      <point x="336" y="562"/>
      <point x="408" y="562" type="curve" smooth="yes"/>
      <point x="474" y="562"/>
      <point x="508" y="606"/>
      <point x="519" y="693" type="curve"/>
      <point x="487" y="702" type="line"/>
      <point x="480" y="673"/>
      <point x="457" y="651"/>
      <point x="422" y="651" type="curve" smooth="yes"/>
      <point x="367" y="651"/>
      <point x="342" y="710"/>
      <point x="280" y="710" type="curve" smooth="yes"/>
      <point x="222" y="710"/>
      <point x="184" y="656"/>
      <point x="174" y="582" type="curve"/>
    </contour>
  </outline>
</glyph>
<glyph name="ocircumflex" format="1">
  <advance width="542"/>
  <unicode hex="00F4"/>
  <outline>
    <contour>
      <point x="282" y="520" type="curve" smooth="yes"/>
      <point x="121" y="520"/>
      <point x="35" y="415"/>
      <point x="35" y="238" type="curve" smooth="yes"/>
      <point x="35" y="78"/>
      <point x="112" y="-15"/>
      <point x="259" y="-15" type="curve" smooth="yes"/>
      <point x="420" y="-15"/>
      <point x="507" y="85"/>
      <point x="507" y="255" type="curve" smooth="yes"/>
      <point x="507" y="418"/>
      <point x="425" y="520"/>
    </contour>
    <contour>
      <point x="271" y="443" type="curve" smooth="yes"/>
      <point x="341" y="443"/>
      <point x="380" y="367"/>
      <point x="380" y="243" type="curve" smooth="yes"/>
      <point x="380" y="130"/>
      <point x="341" y="61"/>
      <point x="271" y="61" type="curve" smooth="yes"/>
      <point x="201" y="61"/>
      <point x="162" y="130"/>
      <point x="162" y="251" type="curve" smooth="yes"/>
      <point x="162" y="367"/>
      <point x="201" y="443"/>
    </contour>
    <contour>
      <point x="315" y="707" type="line"/>
      <point x="283" y="715"/>
      <point x="271" y="714"/>
      <point x="239" y="707" type="curve"/>
      <point x="100" y="581" type="line"/>
      <point x="110" y="562"/>
      <point x="118" y="553"/>
      <point x="135" y="543" type="curve"/>
      <point x="323" y="659" type="line"/>
      <point x="227" y="659" type="line"/>
      <point x="413" y="543" type="line"/>
      <point x="429" y="552"/>
      <point x="441" y="567"/>
      <point x="450" y="581" type="curve"/>
    </contour>
  </outline>
</glyph>
<glyph name="divide" format="1">
  <advance width="508"/>
  <unicode hex="00F7"/>
  <outline>
    <contour>
      <point x="50" y="308" type="line"/>
      <point x="50" y="228" type="line"/>
      <point x="458" y="228" type="line"/>
      <point x="458" y="308" type="line"/>
    </contour>
    <contour>
      <point x="256" y="13" type="curve" smooth="yes"/>
      <point x="300" y="13"/>
      <point x="335" y="48"/>
      <point x="335" y="92" type="curve" smooth="yes"/>
      <point x="335" y="136"/>
      <point x="300" y="171"/>
      <point x="256" y="171" type="curve" smooth="yes"/>
      <point x="212" y="171"/>
      <point x="177" y="136"/>
      <point x="177" y="92" type="curve" smooth="yes"/>
      <point x="177" y="48"/>
      <point x="212" y="13"/>
    </contour>
    <contour>
      <point x="256" y="365" type="curve" smooth="yes"/>
      <point x="300" y="365"/>
      <point x="335" y="400"/>
      <point x="335" y="444" type="curve" smooth="yes"/>
      <point x="335" y="488"/>
      <point x="300" y="523"/>
      <point x="256" y="523" type="curve" smooth="yes"/>
      <point x="212" y="523"/>
      <point x="177" y="488"/>
      <point x="177" y="444" type="curve" smooth="yes"/>
      <point x="177" y="400"/>
      <point x="212" y="365"/>
    </contour>
  </outline>
</glyph>
<glyph name="oslash" format="1">
  <advance width="537"/>
  <unicode hex="00F8"/>
  <outline>
    <contour>
      <point x="89" y="15" type="line"/>
      <point x="159" y="-23" type="line"/>
      <point x="458" y="496" type="line"/>
      <point x="387" y="532" type="line"/>
    </contour>
    <component base="o"/>
  </outline>
</glyph>
<glyph name="Amacron" format="1">
  <advance width="660"/>
  <unicode hex="0100"/>
  <outline>
    <contour>
      <point x="178" y="71" type="line"/>
      <point x="96" y="69" type="line"/>
      <point x="57" y="67" type="line" smooth="yes"/>
      <point x="8" y="64"/>
      <point x="14" y="10"/>
      <point x="13" y="0" type="curve"/>
      <point x="214" y="0" type="line" smooth="yes"/>
      <point x="264" y="0"/>
      <point x="260" y="55"/>
      <point x="259" y="65" type="curve"/>
    </contour>
    <contour>
      <point x="574" y="71" type="line"/>
      <point x="439" y="69" type="line"/>
      <point x="410" y="67" type="line" smooth="yes"/>
      <point x="361" y="64"/>
      <point x="367" y="10"/>
      <point x="366" y="0" type="curve"/>
      <point x="600" y="0" type="line" smooth="yes"/>
      <point x="650" y="0"/>
      <point x="646" y="55"/>
      <point x="645" y="65" type="curve"/>
    </contour>
    <contour>
      <point x="172" y="281" type="line"/>
      <point x="172" y="214" type="line"/>
      <point x="444" y="214" type="line"/>
      <point x="444" y="281" type="line"/>
    </contour>
    <contour>
      <point x="455" y="13" type="line"/>
      <point x="582" y="48" type="line"/>
      <point x="387" y="685" type="line"/>
      <point x="347" y="688"/>
      <point x="326" y="689"/>
      <point x="286" y="685" type="curve"/>
      <point x="73" y="0" type="line"/>
      <point x="157" y="0" type="line"/>
      <point x="338" y="619" type="line"/>
      <point x="290" y="620" type="line"/>
    </contour>
    <contour>
      <point x="188" y="828" type="line"/>
      <point x="188" y="758" type="line"/>
      <point x="483" y="758" type="line"/>
      <point x="483" y="828" type="line"/>
    </contour>
  </outline>
</glyph>
<glyph name="Abreve" format="1">
  <advance width="660"/>
  <unicode hex="0102"/>
  <outline>
    <contour>
      <point x="178" y="71" type="line"/>
      <point x="96" y="69" type="line"/>
      <point x="57" y="67" type="line" smooth="yes"/>
      <point x="8" y="64"/>
      <point x="14" y="10"/>
      <point x="13" y="0" type="curve"/>
      <point x="214" y="0" type="line" smooth="yes"/>
      <point x="264" y="0"/>
      <point x="260" y="55"/>
      <point x="259" y="65" type="curve"/>
    </contour>
    <contour>
      <point x="574" y="71" type="line"/>
      <point x="439" y="69" type="line"/>
      <point x="410" y="67" type="line" smooth="yes"/>
      <point x="361" y="64"/>
      <point x="367" y="10"/>
      <point x="366" y="0" type="curve"/>
      <point x="600" y="0" type="line" smooth="yes"/>
      <point x="650" y="0"/>
      <point x="646" y="55"/>
      <point x="645" y="65" type="curve"/>
    </contour>
    <contour>
      <point x="172" y="281" type="line"/>
      <point x="172" y="214" type="line"/>
      <point x="444" y="214" type="line"/>
      <point x="444" y="281" type="line"/>
    </contour>
    <contour>
      <point x="455" y="13" type="line"/>
      <point x="582" y="48" type="line"/>
      <point x="387" y="685" type="line"/>
      <point x="347" y="688"/>
      <point x="326" y="689"/>
      <point x="286" y="685" type="curve"/>
      <point x="73" y="0" type="line"/>
      <point x="157" y="0" type="line"/>
      <point x="338" y="619" type="line"/>
      <point x="290" y="620" type="line"/>
    </contour>
    <contour>
      <point x="338" y="824" type="curve" smooth="yes"/>
      <point x="258" y="824"/>
      <point x="220" y="878"/>
      <point x="208" y="906" type="curve"/>
      <point x="172" y="886" type="line"/>
      <point x="181" y="814"/>
      <point x="232" y="739"/>
      <point x="337" y="739" type="curve" smooth="yes"/>
      <point x="441" y="739"/>
      <point x="493" y="814"/>
      <point x="502" y="886" type="curve"/>
      <point x="466" y="906" type="line"/>
      <point x="454" y="878"/>
      <point x="427" y="824"/>
    </contour>
  </outline>
</glyph>
<glyph name="Ccaron" format="1">
  <advance width="602"/>
  <unicode hex="010C"/>
  <outline>
    <contour>
      <point x="370" y="700" type="curve" smooth="yes"/>
      <point x="144" y="700"/>
      <point x="35" y="546"/>
      <point x="35" y="335" type="curve" smooth="yes"/>
      <point x="35" y="117"/>
      <point x="134" y="-15"/>
      <point x="334" y="-15" type="curve" smooth="yes"/>
      <point x="468" y="-15"/>
      <point x="572" y="52"/>
      <point x="572" y="103" type="curve" smooth="yes"/>
      <point x="572" y="114"/>
      <point x="566" y="129"/>
      <point x="556" y="135" type="curve"/>
      <point x="519" y="107"/>
      <point x="453" y="74"/>
      <point x="373" y="74" type="curve" smooth="yes"/>
      <point x="223" y="74"/>
      <point x="165" y="169"/>
      <point x="165" y="347" type="curve" smooth="yes"/>
      <point x="165" y="499"/>
      <point x="231" y="614"/>
      <point x="358" y="614" type="curve" smooth="yes"/>
      <point x="432" y="614"/>
      <point x="466" y="567"/>
      <point x="466" y="485" type="curve"/>
      <point x="526" y="485"/>
      <point x="566" y="514"/>
      <point x="566" y="569" type="curve" smooth="yes"/>
      <point x="566" y="639"/>
      <point x="490" y="700"/>
    </contour>
    <contour>
      <point x="385" y="741" type="line"/>
      <point x="353" y="733"/>
      <point x="341" y="734"/>
      <point x="309" y="741" type="curve"/>
      <point x="170" y="867" type="line"/>
      <point x="180" y="886"/>
      <point x="188" y="895"/>
      <point x="205" y="905" type="curve"/>
      <point x="393" y="789" type="line"/>
      <point x="297" y="789" type="line"/>
      <point x="483" y="905" type="line"/>
      <point x="499" y="896"/>
      <point x="511" y="881"/>
      <point x="520" y="867" type="curve"/>
    </contour>
  </outline>
</glyph>
<glyph name="Dcaron" format="1">
  <advance width="712"/>
  <unicode hex="010E"/>
  <outline>
    <contour>
      <point x="237" y="655" type="line"/>
      <point x="112" y="658" type="line"/>
      <point x="112" y="0" type="line"/>
      <point x="237" y="0" type="line"/>
    </contour>
    <contour>
      <point x="236" y="73" type="line"/>
      <point x="112" y="70" type="line"/>
      <point x="76" y="66" type="line" smooth="yes"/>
      <point x="46" y="63"/>
      <point x="38" y="28"/>
      <point x="41" y="0" type="curve"/>
      <point x="332" y="0" type="line" smooth="yes"/>
      <point x="546" y="0"/>
      <point x="677" y="119"/>
      <point x="677" y="346" type="curve" smooth="yes"/>
      <point x="677" y="578"/>
      <point x="557" y="685"/>
      <point x="327" y="685" type="curve" smooth="yes"/>
      <point x="93" y="685" type="line" smooth="yes"/>
      <point x="50" y="685"/>
      <point x="40" y="664"/>
      <point x="41" y="620" type="curve"/>
      <point x="111" y="614" type="line"/>
      <point x="237" y="614" type="line"/>
      <point x="293" y="616" type="line" smooth="yes"/>
      <point x="472" y="622"/>
      <point x="547" y="545"/>
      <point x="547" y="338" type="curve" smooth="yes"/>
      <point x="547" y="144"/>
      <point x="476" y="58"/>
      <point x="302" y="69" type="curve" smooth="yes"/>
    </contour>
    <contour>
      <point x="362" y="741" type="line"/>
      <point x="330" y="733"/>
      <point x="318" y="734"/>
      <point x="286" y="741" type="curve"/>
      <point x="147" y="867" type="line"/>
      <point x="157" y="886"/>
      <point x="165" y="895"/>
      <point x="182" y="905" type="curve"/>
      <point x="370" y="789" type="line"/>
      <point x="274" y="789" type="line"/>
      <point x="460" y="905" type="line"/>
      <point x="476" y="896"/>
      <point x="488" y="881"/>
      <point x="497" y="867" type="curve"/>
    </contour>
  </outline>
</glyph>
<glyph name="Dcroat" format="1">
  <advance width="720"/>
  <unicode hex="0110"/>
  <outline>
    <contour>
      <point x="54" y="372" type="line"/>
      <point x="54" y="302" type="line"/>
      <point x="379" y="302" type="line"/>
      <point x="379" y="372" type="line"/>
    </contour>
    <component base="D"/>
  </outline>
</glyph>
<glyph name="edotaccent" format="1">
  <advance width="497"/>
  <unicode hex="0117"/>
  <outline>
    <contour>
      <point x="277" y="520" type="curve" smooth="yes"/>
      <point x="130" y="520"/>
      <point x="35" y="421"/>
      <point x="35" y="230" type="curve" smooth="yes"/>
      <point x="35" y="72"/>
      <point x="118" y="-15"/>
      <point x="262" y="-15" type="curve" smooth="yes"/>
      <point x="381" y="-15"/>
      <point x="456" y="45"/>
      <point x="456" y="85" type="curve" smooth="yes"/>
      <point x="456" y="99"/>
      <point x="447" y="121"/>
      <point x="436" y="129" type="curve"/>
      <point x="413" y="111"/>
      <point x="368" y="74"/>
      <point x="295" y="74" type="curve" smooth="yes"/>
      <point x="191" y="74"/>
      <point x="162" y="132"/>
      <point x="162" y="234" type="curve" smooth="yes"/>
      <point x="162" y="377"/>
      <point x="198" y="440"/>
      <point x="266" y="440" type="curve" smooth="yes"/>
      <point x="325" y="440"/>
      <point x="357" y="394"/>
      <point x="348" y="254" type="curve"/>
      <point x="403" y="314" type="line"/>
      <point x="104" y="314" type="line"/>
      <point x="98" y="245" type="line"/>
      <point x="466" y="245" type="line"/>
      <point x="466" y="302" type="line" smooth="yes"/>
      <point x="468" y="425"/>
      <point x="410" y="520"/>
    </contour>
    <contour>
      <point x="283" y="566" type="curve" smooth="yes"/>
      <point x="325" y="566"/>
      <point x="357" y="598"/>
      <point x="357" y="640" type="curve" smooth="yes"/>
      <point x="357" y="681"/>
      <point x="325" y="714"/>
      <point x="283" y="714" type="curve" smooth="yes"/>
      <point x="242" y="714"/>
      <point x="209" y="681"/>
      <point x="209" y="640" type="curve" smooth="yes"/>
      <point x="209" y="598"/>
      <point x="242" y="566"/>
    </contour>
  </outline>
</glyph>
<glyph name="ecaron" format="1">
  <advance width="497"/>
  <unicode hex="011B"/>
  <outline>
    <contour>
      <point x="277" y="520" type="curve" smooth="yes"/>
      <point x="130" y="520"/>
      <point x="35" y="421"/>
      <point x="35" y="230" type="curve" smooth="yes"/>
      <point x="35" y="72"/>
      <point x="118" y="-15"/>
      <point x="262" y="-15" type="curve" smooth="yes"/>
      <point x="381" y="-15"/>
      <point x="456" y="45"/>
      <point x="456" y="85" type="curve" smooth="yes"/>
      <point x="456" y="99"/>
      <point x="447" y="121"/>
      <point x="436" y="129" type="curve"/>
      <point x="413" y="111"/>
      <point x="368" y="74"/>
      <point x="295" y="74" type="curve" smooth="yes"/>
      <point x="191" y="74"/>
      <point x="162" y="132"/>
      <point x="162" y="234" type="curve" smooth="yes"/>
      <point x="162" y="377"/>
      <point x="198" y="440"/>
      <point x="266" y="440" type="curve" smooth="yes"/>
      <point x="325" y="440"/>
      <point x="357" y="394"/>
      <point x="348" y="254" type="curve"/>
      <point x="403" y="314" type="line"/>
      <point x="104" y="314" type="line"/>
      <point x="98" y="245" type="line"/>
      <point x="466" y="245" type="line"/>
      <point x="466" y="302" type="line" smooth="yes"/>
      <point x="468" y="425"/>
      <point x="410" y="520"/>
    </contour>
    <contour>
      <point x="315" y="561" type="line"/>
      <point x="283" y="553"/>
      <point x="271" y="554"/>
      <point x="239" y="561" type="curve"/>
      <point x="100" y="687" type="line"/>
      <point x="110" y="706"/>
      <point x="118" y="715"/>
      <point x="135" y="725" type="curve"/>
      <point x="323" y="609" type="line"/>
      <point x="227" y="609" type="line"/>
      <point x="413" y="725" type="line"/>
      <point x="429" y="716"/>
      <point x="441" y="701"/>
      <point x="450" y="687" type="curve"/>
    </contour>
  </outline>
</glyph>
<glyph name="Gbreve" format="1">
  <advance width="684"/>
  <unicode hex="011E"/>
  <outline>
    <contour>
      <point x="368" y="700" type="curve" smooth="yes"/>
      <point x="144" y="700"/>
      <point x="35" y="546"/>
      <point x="35" y="335" type="curve" smooth="yes"/>
      <point x="35" y="116"/>
      <point x="134" y="-15"/>
      <point x="332" y="-15" type="curve" smooth="yes"/>
      <point x="451" y="-15"/>
      <point x="554" y="28"/>
      <point x="589" y="92" type="curve"/>
      <point x="589" y="274" type="line"/>
      <point x="492" y="278" type="line"/>
      <point x="492" y="113" type="line"/>
      <point x="470" y="90"/>
      <point x="422" y="74"/>
      <point x="371" y="74" type="curve" smooth="yes"/>
      <point x="223" y="74"/>
      <point x="165" y="168"/>
      <point x="165" y="347" type="curve" smooth="yes"/>
      <point x="165" y="513"/>
      <point x="215" y="628"/>
      <point x="356" y="628" type="curve" smooth="yes"/>
      <point x="470" y="628"/>
      <point x="504" y="581"/>
      <point x="504" y="485" type="curve"/>
      <point x="564" y="485"/>
      <point x="604" y="514"/>
      <point x="604" y="569" type="curve" smooth="yes"/>
      <point x="604" y="639"/>
      <point x="528" y="700"/>
    </contour>
    <contour>
      <point x="395" y="316" type="line"/>
      <point x="345" y="316"/>
      <point x="349" y="261"/>
      <point x="350" y="251" type="curve"/>
      <point x="492" y="245" type="line"/>
      <point x="595" y="247" type="line"/>
      <point x="624" y="249" type="line" smooth="yes"/>
      <point x="673" y="252"/>
      <point x="667" y="306"/>
      <point x="668" y="316" type="curve"/>
    </contour>
    <contour>
      <point x="363" y="824" type="curve" smooth="yes"/>
      <point x="283" y="824"/>
      <point x="245" y="878"/>
      <point x="233" y="906" type="curve"/>
      <point x="197" y="886" type="line"/>
      <point x="206" y="814"/>
      <point x="257" y="739"/>
      <point x="362" y="739" type="curve" smooth="yes"/>
      <point x="466" y="739"/>
      <point x="518" y="814"/>
      <point x="527" y="886" type="curve"/>
      <point x="491" y="906" type="line"/>
      <point x="479" y="878"/>
      <point x="452" y="824"/>
    </contour>
  </outline>
</glyph>
<glyph name="Imacron" format="1">
  <advance width="351"/>
  <unicode hex="012A"/>
  <outline>
    <contour>
      <point x="238" y="655" type="line"/>
      <point x="113" y="658" type="line"/>
      <point x="113" y="0" type="line"/>
      <point x="238" y="0" type="line"/>
    </contour>
    <contour>
      <point x="239" y="71" type="line"/>
      <point x="113" y="69" type="line"/>
      <point x="84" y="67" type="line" smooth="yes"/>
      <point x="35" y="64"/>
      <point x="41" y="10"/>
      <point x="40" y="0" type="curve"/>
      <point x="265" y="0" type="line" smooth="yes"/>
      <point x="315" y="0"/>
      <point x="311" y="55"/>
      <point x="310" y="65" type="curve"/>
    </contour>
    <contour>
      <point x="112" y="614" type="line"/>
      <point x="238" y="616" type="line"/>
      <point x="267" y="618" type="line" smooth="yes"/>
      <point x="316" y="621"/>
      <point x="310" y="675"/>
      <point x="311" y="685" type="curve"/>
      <point x="86" y="685" type="line" smooth="yes"/>
      <point x="36" y="685"/>
      <point x="40" y="630"/>
      <point x="41" y="620" type="curve"/>
    </contour>
    <contour>
      <point x="27" y="828" type="line"/>
      <point x="27" y="758" type="line"/>
      <point x="322" y="758" type="line"/>
      <point x="322" y="828" type="line"/>
    </contour>
  </outline>
</glyph>
<glyph name="Idotaccent" format="1">
  <advance width="351"/>
  <unicode hex="0130"/>
  <outline>
    <contour>
      <point x="238" y="655" type="line"/>
      <point x="113" y="658" type="line"/>
      <point x="113" y="0" type="line"/>
      <point x="238" y="0" type="line"/>
    </contour>
    <contour>
      <point x="239" y="71" type="line"/>
      <point x="113" y="69" type="line"/>
      <point x="84" y="67" type="line" smooth="yes"/>
      <point x="35" y="64"/>
      <point x="41" y="10"/>
      <point x="40" y="0" type="curve"/>
      <point x="265" y="0" type="line" smooth="yes"/>
      <point x="315" y="0"/>
      <point x="311" y="55"/>
      <point x="310" y="65" type="curve"/>
    </contour>
    <contour>
      <point x="112" y="614" type="line"/>
      <point x="238" y="616" type="line"/>
      <point x="267" y="618" type="line" smooth="yes"/>
      <point x="316" y="621"/>
      <point x="310" y="675"/>
      <point x="311" y="685" type="curve"/>
      <point x="86" y="685" type="line" smooth="yes"/>
      <point x="36" y="685"/>
      <point x="40" y="630"/>
      <point x="41" y="620" type="curve"/>
    </contour>
    <contour>
      <point x="181" y="746" type="curve" smooth="yes"/>
      <point x="223" y="746"/>
      <point x="255" y="778"/>
      <point x="255" y="820" type="curve" smooth="yes"/>
      <point x="255" y="861"/>
      <point x="223" y="894"/>
      <point x="181" y="894" type="curve" smooth="yes"/>
      <point x="140" y="894"/>
      <point x="107" y="861"/>
      <point x="107" y="820" type="curve" smooth="yes"/>
      <point x="107" y="778"/>
      <point x="140" y="746"/>
    </contour>
  </outline>
</glyph>
<glyph name="OE" format="1">
  <advance width="924"/>
  <unicode hex="0152"/>
  <outline>
    <contour>
      <point x="671" y="685" type="move" name="top"/>
    </contour>
    <contour>
      <point x="794" y="-22" type="move" name="ogonek"/>
    </contour>
    <contour>
      <point x="649" y="0" type="move" name="bottom"/>
    </contour>
    <contour>
      <point x="894" y="0" type="line"/>
      <point x="894" y="163" type="line" smooth="yes"/>
      <point x="894" y="207"/>
      <point x="840" y="203"/>
      <point x="830" y="202" type="curve"/>
      <point x="822" y="79" type="line"/>
      <point x="588" y="71" type="line"/>
      <point x="588" y="300" type="line"/>
      <point x="768" y="290" type="line"/>
      <point x="774" y="321"/>
      <point x="773" y="362"/>
      <point x="767" y="389" type="curve"/>
      <point x="588" y="368" type="line"/>
      <point x="588" y="616" type="line"/>
      <point x="801" y="613" type="line"/>
      <point x="810" y="495" type="line"/>
      <point x="820" y="494"/>
      <point x="874" y="490"/>
      <point x="874" y="534" type="curve" smooth="yes"/>
      <point x="874" y="685" type="line"/>
      <point x="467" y="685" type="line"/>
      <point x="436" y="695"/>
      <point x="400" y="700"/>
      <point x="360" y="700" type="curve" smooth="yes"/>
      <point x="139" y="700"/>
      <point x="35" y="544"/>
      <point x="35" y="335" type="curve" smooth="yes"/>
      <point x="35" y="125"/>
      <point x="148" y="-15"/>
      <point x="327" y="-15" type="curve" smooth="yes"/>
      <point x="368" y="-15"/>
      <point x="404" y="-10"/>
      <point x="437" y="0" type="curve"/>
    </contour>
    <contour>
      <point x="165" y="347" type="curve" smooth="yes"/>
      <point x="165" y="510"/>
      <point x="208" y="621"/>
      <point x="344" y="621" type="curve" smooth="yes"/>
      <point x="398" y="621"/>
      <point x="436" y="607"/>
      <point x="463" y="582" type="curve"/>
      <point x="463" y="112" type="line"/>
      <point x="435" y="81"/>
      <point x="395" y="65"/>
      <point x="340" y="64" type="curve" smooth="yes"/>
      <point x="194" y="66"/>
      <point x="165" y="170"/>
    </contour>
  </outline>
</glyph>
<glyph name="Scedilla" format="1">
  <advance width="533"/>
  <unicode hex="015E"/>
  <outline>
    <contour>
      <point x="291" y="700" type="curve" smooth="yes"/>
      <point x="175" y="700"/>
      <point x="55" y="641"/>
      <point x="55" y="506" type="curve" smooth="yes"/>
      <point x="55" y="386"/>
      <point x="149" y="347"/>
      <point x="249" y="304" type="curve" smooth="yes"/>
      <point x="337" y="266"/>
      <point x="400" y="235"/>
      <point x="400" y="168" type="curve" smooth="yes"/>
      <point x="400" y="108"/>
      <point x="348" y="61"/>
      <point x="258" y="61" type="curve" smooth="yes"/>
      <point x="170" y="61"/>
      <point x="131" y="105"/>
      <point x="131" y="202" type="curve"/>
      <point x="56" y="202"/>
      <point x="25" y="163"/>
      <point x="25" y="115" type="curve" smooth="yes"/>
      <point x="25" y="22"/>
      <point x="139" y="-15"/>
      <point x="241" y="-15" type="curve" smooth="yes"/>
      <point x="405" y="-15"/>
      <point x="504" y="79"/>
      <point x="504" y="212" type="curve" smooth="yes"/>
      <point x="504" y="316"/>
      <point x="444" y="357"/>
      <point x="319" y="412" type="curve" smooth="yes"/>
      <point x="232" y="451"/>
      <point x="159" y="474"/>
      <point x="159" y="540" type="curve" smooth="yes"/>
      <point x="159" y="592"/>
      <point x="204" y="624"/>
      <point x="269" y="624" type="curve" smooth="yes"/>
      <point x="346" y="624"/>
      <point x="380" y="579"/>
      <point x="380" y="497" type="curve"/>
      <point x="435" y="489"/>
      <point x="473" y="521"/>
      <point x="473" y="578" type="curve" smooth="yes"/>
      <point x="473" y="669"/>
      <point x="375" y="700"/>
    </contour>
    <contour>
      <point x="303" y="18" type="line"/>
      <point x="249" y="18" type="line"/>
      <point x="222" y="-86" type="line"/>
      <point x="282" y="-86"/>
      <point x="291" y="-101"/>
      <point x="291" y="-120" type="curve" smooth="yes"/>
      <point x="291" y="-145"/>
      <point x="275" y="-150"/>
      <point x="256" y="-150" type="curve" smooth="yes"/>
      <point x="236" y="-150"/>
      <point x="219" y="-144"/>
      <point x="208" y="-135" type="curve"/>
      <point x="202" y="-139"/>
      <point x="194" y="-162"/>
      <point x="196" y="-177" type="curve"/>
      <point x="210" y="-192"/>
      <point x="234" y="-205"/>
      <point x="270" y="-205" type="curve" smooth="yes"/>
      <point x="332" y="-205"/>
      <point x="371" y="-167"/>
      <point x="371" y="-120" type="curve" smooth="yes"/>
      <point x="371" y="-84"/>
      <point x="348" y="-46"/>
      <point x="287" y="-46" type="curve"/>
    </contour>
  </outline>
</glyph>
<glyph name="uogonek" format="1">
  <advance width="601"/>
  <unicode hex="0173"/>
  <outline>
    <contour>
      <point x="520" y="67" type="line"/>
      <point x="520" y="505" type="line"/>
      <point x="364" y="505" type="line" smooth="yes"/>
      <point x="315" y="505"/>
      <point x="321" y="444"/>
      <point x="320" y="434" type="curve"/>
      <point x="398" y="434" type="line"/>
      <point x="398" y="110" type="line"/>
      <point x="369" y="88"/>
      <point x="342" y="76"/>
      <point x="302" y="76" type="curve" smooth="yes"/>
      <point x="240" y="76"/>
      <point x="205" y="105"/>
      <point x="205" y="190" type="curve" smooth="yes"/>
      <point x="205" y="505" type="line"/>
      <point x="54" y="505" type="line" smooth="yes"/>
      <point x="5" y="505"/>
      <point x="11" y="444"/>
      <point x="10" y="434" type="curve"/>
      <point x="83" y="434" type="line"/>
      <point x="83" y="195" type="line" smooth="yes"/>
      <point x="83" y="42"/>
      <point x="176" y="-15"/>
      <point x="268" y="-15" type="curve" smooth="yes"/>
      <point x="333" y="-15"/>
      <point x="376" y="14"/>
      <point x="413" y="46" type="curve"/>
      <point x="434" y="-10" type="line"/>
      <point x="576" y="4" type="line"/>
      <point x="576" y="17"/>
      <point x="577" y="66"/>
      <point x="542" y="67" type="curve" smooth="yes"/>
    </contour>
    <contour>
      <point x="543" y="25" type="line"/>
      <point x="484" y="8"/>
      <point x="418" y="-40"/>
      <point x="418" y="-112" type="curve" smooth="yes"/>
      <point x="418" y="-154"/>
      <point x="451" y="-191"/>
      <point x="513" y="-191" type="curve" smooth="yes"/>
      <point x="547" y="-191"/>
      <point x="581" y="-178"/>
      <point x="595" y="-158" type="curve"/>
      <point x="597" y="-147"/>
      <point x="594" y="-121"/>
      <point x="588" y="-117" type="curve"/>
      <point x="577" y="-126"/>
      <point x="556" y="-138"/>
      <point x="536" y="-138" type="curve" smooth="yes"/>
      <point x="513" y="-138"/>
      <point x="495" y="-122"/>
      <point x="495" y="-89" type="curve" smooth="yes"/>
      <point x="495" y="-46"/>
      <point x="516" y="-19"/>
      <point x="557" y="1" type="curve"/>
    </contour>
  </outline>
</glyph>
<glyph name="Ydieresis" format="1">
  <advance width="635"/>
  <unicode hex="0178"/>
  <outline>
    <contour>
      <point x="380" y="328" type="line"/>
      <point x="255" y="331" type="line"/>
      <point x="255" y="0" type="line"/>
      <point x="380" y="0" type="line"/>
    </contour>
    <contour>
      <point x="381" y="71" type="line"/>
      <point x="255" y="69" type="line"/>
      <point x="226" y="67" type="line" smooth="yes"/>
      <point x="177" y="64"/>
      <point x="183" y="10"/>
      <point x="182" y="0" type="curve"/>
      <point x="407" y="0" type="line" smooth="yes"/>
      <point x="457" y="0"/>
      <point x="453" y="55"/>
      <point x="452" y="65" type="curve"/>
    </contour>
    <contour>
      <point x="36" y="665" type="line"/>
      <point x="269" y="260" type="line"/>
      <point x="364" y="260" type="line"/>
      <point x="601" y="679" type="line"/>
      <point x="509" y="673" type="line"/>
      <point x="301" y="293" type="line"/>
      <point x="366" y="334" type="line"/>
      <point x="179" y="673" type="line"/>
    </contour>
    <contour>
      <point x="482" y="614" type="line"/>
      <point x="564" y="616" type="line"/>
      <point x="590" y="618" type="line" smooth="yes"/>
      <point x="639" y="622"/>
      <point x="633" y="675"/>
      <point x="634" y="685" type="curve"/>
      <point x="444" y="685" type="line" smooth="yes"/>
      <point x="394" y="685"/>
      <point x="398" y="630"/>
      <point x="399" y="620" type="curve"/>
    </contour>
    <contour>
      <point x="66" y="614" type="line"/>
      <point x="212" y="616" type="line"/>
      <point x="244" y="618" type="line" smooth="yes"/>
      <point x="292" y="621"/>
      <point x="287" y="675"/>
      <point x="288" y="685" type="curve"/>
      <point x="46" y="685" type="line" smooth="yes"/>
      <point x="-4" y="685"/>
      <point x="0" y="630"/>
      <point x="1" y="620" type="curve"/>
    </contour>
    <contour>
      <point x="234" y="754" type="curve" smooth="yes"/>
      <point x="273" y="754"/>
      <point x="304" y="785"/>
      <point x="304" y="824" type="curve" smooth="yes"/>
      <point x="304" y="862"/>
      <point x="273" y="894"/>
      <point x="234" y="894" type="curve" smooth="yes"/>
      <point x="195" y="894"/>
      <point x="163" y="862"/>
      <point x="163" y="824" type="curve" smooth="yes"/>
      <point x="163" y="785"/>
      <point x="195" y="754"/>
    </contour>
    <contour>
      <point x="424" y="754" type="curve" smooth="yes"/>
      <point x="464" y="754"/>
      <point x="495" y="785"/>
      <point x="495" y="824" type="curve" smooth="yes"/>
      <point x="495" y="862"/>
      <point x="464" y="894"/>
      <point x="424" y="894" type="curve" smooth="yes"/>
      <point x="386" y="894"/>
      <point x="354" y="862"/>
      <point x="354" y="824" type="curve" smooth="yes"/>
      <point x="354" y="785"/>
      <point x="386" y="754"/>
    </contour>
  </outline>
</glyph>
<glyph name="Zacute" format="1">
  <advance width="590"/>
  <unicode hex="0179"/>
  <outline>
    <contour>
      <point x="65" y="685" type="line"/>
      <point x="68" y="599" type="line"/>
      <point x="495" y="614" type="line"/>
      <point x="429" y="664" type="line"/>
      <point x="14" y="53" type="line"/>
      <point x="17" y="32"/>
      <point x="25" y="17"/>
      <point x="33" y="0" type="curve"/>
      <point x="556" y="0" type="line"/>
      <point x="517" y="90" type="line"/>
      <point x="59" y="66" type="line"/>
      <point x="156" y="34" type="line"/>
      <point x="557" y="636" type="line"/>
      <point x="557" y="659"/>
      <point x="543" y="676"/>
      <point x="530" y="685" type="curve"/>
    </contour>
    <contour>
      <point x="556" y="224" type="line"/>
      <point x="518" y="231"/>
      <point x="488" y="224"/>
      <point x="481" y="171" type="curve" smooth="yes"/>
      <point x="463" y="43" type="line"/>
      <point x="556" y="0" type="line"/>
    </contour>
    <contour>
      <point x="65" y="464" type="line"/>
      <point x="100" y="457"/>
      <point x="135" y="464"/>
      <point x="142" y="519" type="curve" smooth="yes"/>
      <point x="155" y="642" type="line"/>
      <point x="65" y="685" type="line"/>
    </contour>
    <contour>
      <point x="476" y="842" type="line"/>
      <point x="466" y="863"/>
      <point x="428" y="903"/>
      <point x="394" y="910" type="curve"/>
      <point x="227" y="773" type="line"/>
      <point x="233" y="759"/>
      <point x="245" y="744"/>
      <point x="269" y="732" type="curve"/>
    </contour>
  </outline>
</glyph>
<glyph name="zdotaccent" format="1">
  <advance width="447"/>
  <unicode hex="017C"/>
  <outline>
    <contour>
      <point x="47" y="505" type="line"/>
      <point x="47" y="343" type="line"/>
      <point x="77" y="336"/>
      <point x="116" y="343"/>
      <point x="121" y="382" type="curve" smooth="yes"/>
      <point x="128" y="435" type="line"/>
      <point x="281" y="441" type="line"/>
      <point x="15" y="55" type="line"/>
      <point x="15" y="37"/>
      <point x="25" y="13"/>
      <point x="32" y="0" type="curve"/>
      <point x="432" y="0" type="line"/>
      <point x="432" y="164" type="line"/>
      <point x="402" y="171"/>
      <point x="363" y="164"/>
      <point x="358" y="125" type="curve" smooth="yes"/>
      <point x="349" y="73" type="line"/>
      <point x="168" y="67" type="line"/>
      <point x="428" y="446" type="line"/>
      <point x="428" y="461"/>
      <point x="415" y="495"/>
      <point x="404" y="505" type="curve"/>
    </contour>
    <contour>
      <point x="242" y="566" type="curve" smooth="yes"/>
      <point x="284" y="566"/>
      <point x="316" y="598"/>
      <point x="316" y="640" type="curve" smooth="yes"/>
      <point x="316" y="681"/>
      <point x="284" y="714"/>
      <point x="242" y="714" type="curve" smooth="yes"/>
      <point x="201" y="714"/>
      <point x="168" y="681"/>
      <point x="168" y="640" type="curve" smooth="yes"/>
      <point x="168" y="598"/>
      <point x="201" y="566"/>
    </contour>
  </outline>
</glyph>
<glyph name="florin" format="1">
  <advance width="490"/>
  <unicode hex="0192"/>
  <outline>
    <contour>
      <point x="344" y="739" type="curve" smooth="yes"/>
      <point x="248" y="737"/>
      <point x="157" y="685"/>
      <point x="135" y="529" type="curve" smooth="yes"/>
      <point x="50" y="-72" type="line"/>
      <point x="159" y="-75" type="line"/>
      <point x="249" y="543" type="line" smooth="yes"/>
      <point x="263" y="642"/>
      <point x="298" y="670"/>
      <point x="329" y="670" type="curve" smooth="yes"/>
      <point x="356" y="670"/>
      <point x="378" y="647"/>
      <point x="378" y="600" type="curve"/>
      <point x="420" y="600"/>
      <point x="457" y="618"/>
      <point x="457" y="672" type="curve" smooth="yes"/>
      <point x="457" y="718"/>
      <point x="405" y="740"/>
    </contour>
    <contour>
      <point x="347" y="505" type="line"/>
      <point x="42" y="505" type="line"/>
      <point x="37" y="435" type="line"/>
      <point x="342" y="435" type="line"/>
    </contour>
  </outline>
</glyph>
<glyph name="breve" format="1">
  <advance width="600"/>
  <unicode hex="02D8"/>
  <outline>
    <contour>
      <point x="285" y="505" type="move" name="_top"/>
    </contour>
    <contour>
      <point x="287" y="644" type="curve" smooth="yes"/>
      <point x="207" y="644"/>
      <point x="169" y="698"/>
      <point x="157" y="726" type="curve"/>
      <point x="121" y="706" type="line"/>
      <point x="130" y="634"/>
      <point x="181" y="559"/>
      <point x="286" y="559" type="curve" smooth="yes"/>
      <point x="390" y="559"/>
      <point x="442" y="634"/>
      <point x="451" y="706" type="curve"/>
      <point x="415" y="726" type="line"/>
      <point x="403" y="698"/>
      <point x="376" y="644"/>
    </contour>
  </outline>
</glyph>
<glyph name="ogonek" format="1">
  <advance width="370"/>
  <unicode hex="02DB"/>
  <outline>
    <contour>
      <point x="168" y="0" type="move" name="_ogonek"/>
    </contour>
    <contour>
      <point x="221" y="51" type="line"/>
      <point x="162" y="34"/>
      <point x="96" y="-14"/>
      <point x="96" y="-86" type="curve" smooth="yes"/>
      <point x="96" y="-128"/>
      <point x="129" y="-165"/>
      <point x="191" y="-165" type="curve" smooth="yes"/>
      <point x="225" y="-165"/>
      <point x="259" y="-152"/>
      <point x="273" y="-132" type="curve"/>
      <point x="275" y="-121"/>
      <point x="272" y="-95"/>
      <point x="266" y="-91" type="curve"/>
      <point x="255" y="-100"/>
      <point x="234" y="-112"/>
      <point x="214" y="-112" type="curve" smooth="yes"/>
      <point x="191" y="-112"/>
      <point x="173" y="-96"/>
      <point x="173" y="-63" type="curve" smooth="yes"/>
      <point x="173" y="-20"/>
      <point x="194" y="7"/>
      <point x="235" y="27" type="curve"/>
    </contour>
  </outline>
</glyph>
<glyph name="dvCandrabindu" format="1">
  <advance width="0"/>
  <unicode hex="0901"/>
  <outline>
    <contour>
      <point x="-88" y="625" type="move" name="_abvm.bindu"/>
    </contour>
    <contour>
      <point x="-33" y="889" type="curve"/>
      <point x="-80" y="825"/>
      <point x="-141" y="788"/>
      <point x="-211" y="788" type="curve" smooth="yes"/>
      <point x="-263" y="788"/>
      <point x="-302" y="809"/>
      <point x="-347" y="847" type="curve"/>
      <point x="-359" y="838"/>
      <point x="-375" y="818"/>
      <point x="-383" y="802" type="curve"/>
      <point x="-323" y="731"/>
      <point x="-248" y="685"/>
      <point x="-171" y="685" type="curve" smooth="yes"/>
      <point x="-70" y="685"/>
      <point x="14" y="763"/>
      <point x="41" y="801" type="curve"/>
      <point x="30" y="833"/>
      <point x="-1" y="870"/>
    </contour>
    <contour>
      <point x="-182" y="982" type="curve" smooth="yes"/>
      <point x="-199" y="982"/>
      <point x="-258" y="932"/>
      <point x="-258" y="915" type="curve" smooth="yes"/>
      <point x="-258" y="899"/>
      <point x="-208" y="840"/>
      <point x="-192" y="840" type="curve" smooth="yes"/>
      <point x="-176" y="840"/>
      <point x="-118" y="893"/>
      <point x="-118" y="908" type="curve" smooth="yes"/>
      <point x="-118" y="921"/>
      <point x="-164" y="982"/>
    </contour>
  </outline>
</glyph>
<glyph name="dvGHA" format="1">
  <advance width="629"/>
  <unicode hex="0918"/>
  <outline>
    <contour>
      <point x="541" y="551" type="line"/>
      <point x="421" y="551" type="line"/>
      <point x="421" y="26" type="line" smooth="yes"/>
      <point x="421" y="0"/>
      <point x="492" y="-20"/>
      <point x="541" y="-20" type="curve"/>
    </contour>
    <contour>
      <point x="639" y="625" type="curve"/>
      <point x="-49" y="625" type="line"/>
      <point x="-49" y="584"/>
      <point x="-31" y="546"/>
      <point x="-10" y="520" type="curve"/>
      <point x="678" y="520" type="line"/>
      <point x="678" y="561"/>
      <point x="660" y="599"/>
    </contour>
    <contour>
      <point x="161" y="341" type="curve"/>
      <point x="241" y="395" type="line"/>
      <point x="216" y="387"/>
      <point x="143" y="406"/>
      <point x="143" y="473" type="curve" smooth="yes"/>
      <point x="143" y="497"/>
      <point x="152" y="514"/>
      <point x="163" y="525" type="curve"/>
      <point x="58" y="541" type="line"/>
      <point x="42" y="522"/>
      <point x="34" y="498"/>
      <point x="34" y="470" type="curve" smooth="yes"/>
      <point x="34" y="403"/>
      <point x="80" y="352"/>
    </contour>
    <contour>
      <point x="281" y="419" type="curve"/>
      <point x="197" y="403"/>
      <point x="90" y="352"/>
      <point x="90" y="244" type="curve" smooth="yes"/>
      <point x="90" y="153"/>
      <point x="167" y="88"/>
      <point x="279" y="88" type="curve" smooth="yes"/>
      <point x="366" y="88"/>
      <point x="450" y="127"/>
      <point x="499" y="178" type="curve"/>
      <point x="469" y="324" type="line"/>
      <point x="441" y="250"/>
      <point x="361" y="185"/>
      <point x="279" y="185" type="curve" smooth="yes"/>
      <point x="220" y="185"/>
      <point x="201" y="219"/>
      <point x="201" y="244" type="curve" smooth="yes"/>
      <point x="201" y="294"/>
      <point x="280" y="324"/>
      <point x="336" y="333" type="curve"/>
      <point x="329" y="363"/>
      <point x="300" y="400"/>
    </contour>
  </outline>
</glyph>
<glyph name="dvNYA" format="1">
  <advance width="772"/>
  <unicode hex="091E"/>
  <outline>
    <contour>
      <point x="609" y="340" type="line"/>
      <point x="579" y="318"/>
      <point x="544" y="294"/>
      <point x="461" y="294" type="curve"/>
      <point x="482" y="215" type="line"/>
      <point x="488" y="214"/>
      <point x="495" y="214"/>
      <point x="504" y="214" type="curve" smooth="yes"/>
      <point x="537" y="214"/>
      <point x="582" y="221"/>
      <point x="610" y="243" type="curve"/>
    </contour>
    <contour>
      <point x="684" y="551" type="line"/>
      <point x="564" y="551" type="line"/>
      <point x="564" y="26" type="line" smooth="yes"/>
      <point x="564" y="0"/>
      <point x="635" y="-20"/>
      <point x="684" y="-20" type="curve"/>
    </contour>
    <contour>
      <point x="782" y="625" type="curve"/>
      <point x="-49" y="625" type="line"/>
      <point x="-49" y="584"/>
      <point x="-31" y="546"/>
      <point x="-10" y="520" type="curve"/>
      <point x="821" y="520" type="line"/>
      <point x="821" y="561"/>
      <point x="803" y="599"/>
    </contour>
    <contour>
      <point x="317" y="437" type="curve" smooth="yes"/>
      <point x="257" y="437"/>
      <point x="188" y="417"/>
      <point x="162" y="396" type="curve"/>
      <point x="174" y="357"/>
      <point x="210" y="309"/>
      <point x="223" y="294" type="curve"/>
      <point x="258" y="325"/>
      <point x="310" y="353"/>
      <point x="347" y="353" type="curve" smooth="yes"/>
      <point x="392" y="353"/>
      <point x="409" y="314"/>
      <point x="409" y="274" type="curve" smooth="yes"/>
      <point x="409" y="198"/>
      <point x="348" y="183"/>
      <point x="315" y="183" type="curve" smooth="yes"/>
      <point x="205" y="183"/>
      <point x="140" y="267"/>
      <point x="62" y="393" type="curve"/>
      <point x="50" y="389"/>
      <point x="10" y="361"/>
      <point x="5" y="351" type="curve"/>
      <point x="40" y="264"/>
      <point x="165" y="83"/>
      <point x="338" y="83" type="curve" smooth="yes"/>
      <point x="443" y="83"/>
      <point x="532" y="150"/>
      <point x="532" y="253" type="curve" smooth="yes"/>
      <point x="532" y="361"/>
      <point x="433" y="437"/>
    </contour>
  </outline>
</glyph>
<glyph name="dvTTA" format="1">
  <advance width="540"/>
  <unicode hex="091F"/>
  <outline>
    <contour>
      <point x="430" y="625" type="move" name="abvm.bindu"/>
    </contour>
    <contour>
      <point x="368" y="8" type="move" name="blwm.virama"/>
    </contour>
    <contour>
      <point x="430" y="625" type="move" name="abvm.e"/>
    </contour>
    <contour>
      <point x="369" y="-41" type="move" name="blwm.u"/>
    </contour>
    <contour>
      <point x="550" y="625" type="curve"/>
      <point x="-49" y="625" type="line"/>
      <point x="-49" y="584"/>
      <point x="-31" y="546"/>
      <point x="-10" y="520" type="curve"/>
      <point x="589" y="520" type="line"/>
      <point x="589" y="561"/>
      <point x="571" y="599"/>
    </contour>
    <contour>
      <point x="311" y="576" type="line"/>
      <point x="311" y="447" type="line"/>
      <point x="294" y="449"/>
      <point x="278" y="449"/>
      <point x="262" y="449" type="curve" smooth="yes"/>
      <point x="133" y="449"/>
      <point x="29" y="369"/>
      <point x="29" y="243" type="curve" smooth="yes"/>
      <point x="29" y="119"/>
      <point x="131" y="14"/>
      <point x="287" y="14" type="curve" smooth="yes"/>
      <point x="395" y="14"/>
      <point x="482" y="64"/>
      <point x="535" y="122" type="curve"/>
      <point x="524" y="149"/>
      <point x="496" y="182"/>
      <point x="464" y="203" type="curve"/>
      <point x="434" y="168"/>
      <point x="370" y="107"/>
      <point x="272" y="107" type="curve" smooth="yes"/>
      <point x="202" y="107"/>
      <point x="134" y="136"/>
      <point x="134" y="221" type="curve" smooth="yes"/>
      <point x="134" y="306"/>
      <point x="205" y="350"/>
      <point x="320" y="350" type="curve" smooth="yes"/>
      <point x="343" y="350"/>
      <point x="365" y="350"/>
      <point x="390" y="346" type="curve" smooth="yes"/>
      <point x="401" y="355"/>
      <point x="427" y="377"/>
      <point x="430" y="400" type="curve" smooth="yes"/>
      <point x="430" y="575" type="line"/>
    </contour>
  </outline>
</glyph>
<glyph name="dvDDA" format="1">
  <advance width="550"/>
  <unicode hex="0921"/>
  <outline>
    <contour>
      <point x="468" y="625" type="move" name="abvm.bindu"/>
    </contour>
    <contour>
      <point x="417" y="-31" type="move" name="blwm.virama"/>
    </contour>
    <contour>
      <point x="468" y="625" type="move" name="abvm.e"/>
    </contour>
    <contour>
      <point x="387" y="-75" type="move" name="blwm.u"/>
    </contour>
    <contour>
      <point x="561" y="625" type="curve"/>
      <point x="-49" y="625" type="line"/>
      <point x="-49" y="584"/>
      <point x="-31" y="546"/>
      <point x="-10" y="520" type="curve"/>
      <point x="600" y="520" type="line"/>
      <point x="600" y="561"/>
      <point x="582" y="599"/>
    </contour>
    <contour>
      <point x="468" y="552" type="line"/>
      <point x="348" y="552" type="line"/>
      <point x="348" y="459" type="line"/>
      <point x="236" y="459" type="line" smooth="yes"/>
      <point x="147" y="459"/>
      <point x="91" y="413"/>
      <point x="91" y="332" type="curve" smooth="yes"/>
      <point x="91" y="218"/>
      <point x="198" y="153"/>
      <point x="243" y="153" type="curve" smooth="yes"/>
      <point x="291" y="153"/>
      <point x="391" y="196"/>
      <point x="422" y="196" type="curve" smooth="yes"/>
      <point x="439" y="196"/>
      <point x="450" y="187"/>
      <point x="450" y="168" type="curve" smooth="yes"/>
      <point x="450" y="117"/>
      <point x="379" y="69"/>
      <point x="289" y="69" type="curve" smooth="yes"/>
      <point x="208" y="69"/>
      <point x="138" y="116"/>
      <point x="79" y="185" type="curve"/>
      <point x="61" y="179"/>
      <point x="38" y="163"/>
      <point x="30" y="139" type="curve"/>
      <point x="105" y="35"/>
      <point x="211" y="-31"/>
      <point x="324" y="-31" type="curve" smooth="yes"/>
      <point x="435" y="-31"/>
      <point x="525" y="38"/>
      <point x="525" y="134" type="curve" smooth="yes"/>
      <point x="525" y="189"/>
      <point x="471" y="298"/>
      <point x="393" y="298" type="curve" smooth="yes"/>
      <point x="330" y="298"/>
      <point x="225" y="256"/>
      <point x="199" y="256" type="curve" smooth="yes"/>
      <point x="190" y="256"/>
      <point x="180" y="260"/>
      <point x="180" y="288" type="curve" smooth="yes"/>
      <point x="180" y="347"/>
      <point x="236" y="360"/>
      <point x="330" y="360" type="curve" smooth="yes"/>
      <point x="389" y="360"/>
      <point x="401" y="358"/>
      <point x="427" y="358" type="curve" smooth="yes"/>
      <point x="443" y="370"/>
      <point x="463" y="395"/>
      <point x="468" y="417" type="curve" smooth="yes"/>
    </contour>
  </outline>
</glyph>
<glyph name="dvTHA" format="1">
  <advance width="699"/>
  <unicode hex="0925"/>
  <outline>
    <contour>
      <point x="611" y="551" type="line"/>
      <point x="491" y="551" type="line"/>
      <point x="491" y="26" type="line" smooth="yes"/>
      <point x="491" y="0"/>
      <point x="562" y="-20"/>
      <point x="611" y="-20" type="curve"/>
    </contour>
    <contour>
      <point x="709" y="625" type="curve"/>
      <point x="405" y="625" type="line"/>
      <point x="405" y="584"/>
      <point x="423" y="546"/>
      <point x="444" y="520" type="curve"/>
      <point x="748" y="520" type="line"/>
      <point x="748" y="561"/>
      <point x="730" y="599"/>
    </contour>
    <contour>
      <point x="216" y="635" type="curve" smooth="yes"/>
      <point x="134" y="635"/>
      <point x="78" y="588"/>
      <point x="78" y="525" type="curve" smooth="yes"/>
      <point x="78" y="495"/>
      <point x="91" y="430"/>
      <point x="191" y="392" type="curve"/>
      <point x="198" y="398"/>
      <point x="220" y="422"/>
      <point x="223" y="433" type="curve"/>
      <point x="219" y="438"/>
      <point x="184" y="464"/>
      <point x="184" y="506" type="curve" smooth="yes"/>
      <point x="184" y="536"/>
      <point x="201" y="562"/>
      <point x="234" y="562" type="curve" smooth="yes"/>
      <point x="264" y="562"/>
      <point x="292" y="541"/>
      <point x="292" y="481" type="curve" smooth="yes"/>
      <point x="292" y="397"/>
      <point x="218" y="343"/>
      <point x="98" y="327" type="curve"/>
      <point x="107" y="214"/>
      <point x="207" y="85"/>
      <point x="350" y="85" type="curve" smooth="yes"/>
      <point x="446" y="85"/>
      <point x="505" y="128"/>
      <point x="541" y="160" type="curve"/>
      <point x="528" y="324" type="line"/>
      <point x="509" y="267"/>
      <point x="465" y="192"/>
      <point x="346" y="192" type="curve" smooth="yes"/>
      <point x="276" y="192"/>
      <point x="215" y="211"/>
      <point x="176" y="301" type="curve"/>
      <point x="159" y="240" type="line"/>
      <point x="307" y="257"/>
      <point x="396" y="348"/>
      <point x="397" y="457" type="curve" smooth="yes"/>
      <point x="397" y="557"/>
      <point x="320" y="635"/>
    </contour>
  </outline>
</glyph>
<glyph name="dvYA" format="1">
  <advance width="615"/>
  <unicode hex="092F"/>
  <outline>
    <contour>
      <point x="152" y="582" type="curve" smooth="yes"/>
      <point x="73" y="568" type="line"/>
      <point x="118" y="540"/>
      <point x="155" y="496"/>
      <point x="155" y="450" type="curve" smooth="yes"/>
      <point x="155" y="375"/>
      <point x="123" y="348"/>
      <point x="28" y="327" type="curve"/>
      <point x="40" y="227"/>
      <point x="110" y="87"/>
      <point x="281" y="87" type="curve" smooth="yes"/>
      <point x="364" y="87"/>
      <point x="416" y="124"/>
      <point x="444" y="145" type="curve"/>
      <point x="444" y="317" type="line"/>
      <point x="428" y="272"/>
      <point x="390" y="195"/>
      <point x="272" y="195" type="curve" smooth="yes"/>
      <point x="189" y="195"/>
      <point x="134" y="231"/>
      <point x="113" y="287" type="curve"/>
      <point x="99" y="247" type="line"/>
      <point x="236" y="269"/>
      <point x="269" y="348"/>
      <point x="269" y="424" type="curve" smooth="yes"/>
      <point x="269" y="497"/>
      <point x="216" y="556"/>
    </contour>
    <contour>
      <point x="527" y="551" type="line"/>
      <point x="407" y="551" type="line"/>
      <point x="407" y="26" type="line" smooth="yes"/>
      <point x="407" y="0"/>
      <point x="478" y="-20"/>
      <point x="527" y="-20" type="curve"/>
    </contour>
    <contour>
      <point x="626" y="625" type="curve"/>
      <point x="-49" y="625" type="line"/>
      <point x="-49" y="584"/>
      <point x="-31" y="546"/>
      <point x="-10" y="520" type="curve"/>
      <point x="665" y="520" type="line"/>
      <point x="665" y="561"/>
      <point x="647" y="599"/>
    </contour>
  </outline>
</glyph>
<glyph name="dvLA" format="1">
  <advance width="720"/>
  <unicode hex="0932"/>
  <outline>
    <contour>
      <point x="632" y="551" type="line"/>
      <point x="512" y="551" type="line"/>
      <point x="512" y="26" type="line" smooth="yes"/>
      <point x="512" y="0"/>
      <point x="583" y="-20"/>
      <point x="632" y="-20" type="curve"/>
    </contour>
    <contour>
      <point x="730" y="625" type="curve"/>
      <point x="-43" y="625" type="line"/>
      <point x="-43" y="584"/>
      <point x="-25" y="546"/>
      <point x="-4" y="520" type="curve"/>
      <point x="769" y="520" type="line"/>
      <point x="769" y="561"/>
      <point x="751" y="599"/>
    </contour>
    <contour>
      <point x="326" y="264" type="curve"/>
      <point x="349" y="345" type="line"/>
      <point x="341" y="378"/>
      <point x="295" y="452"/>
      <point x="201" y="452" type="curve" smooth="yes"/>
      <point x="121" y="452"/>
      <point x="35" y="401"/>
      <point x="35" y="291" type="curve" smooth="yes"/>
      <point x="35" y="155"/>
      <point x="167" y="42"/>
      <point x="251" y="-16" type="curve"/>
      <point x="266" y="-4"/>
      <point x="287" y="25"/>
      <point x="296" y="41" type="curve"/>
      <point x="217" y="104"/>
      <point x="149" y="163"/>
      <point x="149" y="251" type="curve" smooth="yes"/>
      <point x="149" y="306"/>
      <point x="176" y="344"/>
      <point x="228" y="344" type="curve" smooth="yes"/>
      <point x="286" y="344"/>
      <point x="327" y="295"/>
    </contour>
    <contour>
      <point x="485" y="450" type="curve" smooth="yes"/>
      <point x="357" y="450"/>
      <point x="317" y="312"/>
      <point x="302" y="230" type="curve"/>
      <point x="315" y="219"/>
      <point x="369" y="191"/>
      <point x="401" y="187" type="curve"/>
      <point x="409" y="242"/>
      <point x="432" y="359"/>
      <point x="513" y="359" type="curve" smooth="yes"/>
      <point x="556" y="359"/>
      <point x="569" y="327"/>
      <point x="574" y="295" type="curve"/>
      <point x="574" y="398" type="line"/>
      <point x="561" y="423"/>
      <point x="542" y="450"/>
    </contour>
  </outline>
</glyph>
<glyph name="dvVA" format="1">
  <advance width="578"/>
  <unicode hex="0935"/>
  <outline>
    <contour>
      <point x="235" y="473" type="curve" smooth="yes"/>
      <point x="143" y="473"/>
      <point x="35" y="414"/>
      <point x="35" y="287" type="curve" smooth="yes"/>
      <point x="35" y="179"/>
      <point x="112" y="78"/>
      <point x="245" y="78" type="curve" smooth="yes"/>
      <point x="333" y="78"/>
      <point x="384" y="122"/>
      <point x="428" y="163" type="curve"/>
      <point x="414" y="308" type="line"/>
      <point x="395" y="242"/>
      <point x="295" y="168"/>
      <point x="222" y="168" type="curve" smooth="yes"/>
      <point x="180" y="168"/>
      <point x="138" y="193"/>
      <point x="138" y="259" type="curve" smooth="yes"/>
      <point x="138" y="332"/>
      <point x="189" y="373"/>
      <point x="275" y="373" type="curve" smooth="yes"/>
      <point x="361" y="373"/>
      <point x="408" y="331"/>
      <point x="440" y="296" type="curve"/>
      <point x="454" y="354" type="line"/>
      <point x="429" y="389"/>
      <point x="345" y="473"/>
    </contour>
    <contour>
      <point x="370" y="551" type="line"/>
      <point x="370" y="26" type="line" smooth="yes"/>
      <point x="370" y="0"/>
      <point x="441" y="-20"/>
      <point x="490" y="-20" type="curve"/>
      <point x="490" y="551" type="line"/>
    </contour>
    <contour>
      <point x="588" y="625" type="curve"/>
      <point x="-49" y="625" type="line"/>
      <point x="-49" y="584"/>
      <point x="-31" y="546"/>
      <point x="-10" y="520" type="curve"/>
      <point x="627" y="520" type="line"/>
      <point x="627" y="561"/>
      <point x="609" y="599"/>
    </contour>
  </outline>
</glyph>
<glyph name="dvSHA" format="1">
  <advance width="714"/>
  <unicode hex="0936"/>
  <outline>
    <contour>
      <point x="229" y="596" type="curve" smooth="yes"/>
      <point x="140" y="596"/>
      <point x="75" y="560"/>
      <point x="75" y="471" type="curve" smooth="yes"/>
      <point x="75" y="398"/>
      <point x="138" y="344"/>
      <point x="218" y="317" type="curve"/>
      <point x="227" y="323"/>
      <point x="241" y="345"/>
      <point x="244" y="356" type="curve"/>
      <point x="203" y="391"/>
      <point x="192" y="418"/>
      <point x="192" y="446" type="curve" smooth="yes"/>
      <point x="192" y="490"/>
      <point x="218" y="515"/>
      <point x="249" y="515" type="curve" smooth="yes"/>
      <point x="294" y="515"/>
      <point x="317" y="485"/>
      <point x="317" y="419" type="curve" smooth="yes"/>
      <point x="317" y="341"/>
      <point x="252" y="266"/>
      <point x="198" y="252" type="curve"/>
      <point x="178" y="275"/>
      <point x="145" y="304"/>
      <point x="118" y="304" type="curve" smooth="yes"/>
      <point x="84" y="304"/>
      <point x="41" y="261"/>
      <point x="41" y="230" type="curve" smooth="yes"/>
      <point x="41" y="183"/>
      <point x="111" y="161"/>
      <point x="146" y="161" type="curve" smooth="yes"/>
      <point x="153" y="161"/>
      <point x="159" y="161"/>
      <point x="163" y="162" type="curve"/>
      <point x="211" y="95"/>
      <point x="263" y="18"/>
      <point x="308" y="-66" type="curve"/>
      <point x="334" y="-53"/>
      <point x="388" y="-13"/>
      <point x="397" y="11" type="curve"/>
      <point x="363" y="65"/>
      <point x="287" y="134"/>
      <point x="230" y="183" type="curve"/>
      <point x="316" y="222"/>
      <point x="436" y="309"/>
      <point x="436" y="425" type="curve" smooth="yes"/>
      <point x="436" y="561"/>
      <point x="294" y="596"/>
    </contour>
    <contour>
      <point x="626" y="551" type="line"/>
      <point x="506" y="551" type="line"/>
      <point x="506" y="26" type="line" smooth="yes"/>
      <point x="506" y="0"/>
      <point x="577" y="-20"/>
      <point x="626" y="-20" type="curve"/>
    </contour>
    <contour>
      <point x="724" y="625" type="curve"/>
      <point x="-49" y="625" type="line"/>
      <point x="-49" y="584"/>
      <point x="-31" y="546"/>
      <point x="-10" y="520" type="curve"/>
      <point x="763" y="520" type="line"/>
      <point x="763" y="561"/>
      <point x="745" y="599"/>
    </contour>
  </outline>
</glyph>
<glyph name="dvmAI" format="1">
  <advance width="0"/>
  <unicode hex="0948"/>
  <outline>
    <contour>
      <point x="-88" y="625" type="move" name="_abvm.e"/>
    </contour>
    <contour>
      <point x="-366" y="925" type="curve" smooth="yes"/>
      <point x="-416" y="925"/>
      <point x="-479" y="901"/>
      <point x="-507" y="883" type="curve"/>
      <point x="-498" y="850"/>
      <point x="-465" y="788"/>
      <point x="-458" y="780" type="curve"/>
      <point x="-441" y="792"/>
      <point x="-388" y="826"/>
      <point x="-343" y="826" type="curve" smooth="yes"/>
      <point x="-294" y="826"/>
      <point x="-245" y="768"/>
      <point x="-208" y="703" type="curve"/>
      <point x="-259" y="748"/>
      <point x="-318" y="780"/>
      <point x="-362" y="780" type="curve" smooth="yes"/>
      <point x="-414" y="780"/>
      <point x="-473" y="750"/>
      <point x="-494" y="729" type="curve"/>
      <point x="-484" y="701"/>
      <point x="-448" y="645"/>
      <point x="-441" y="639" type="curve"/>
      <point x="-427" y="653"/>
      <point x="-372" y="689"/>
      <point x="-323" y="689" type="curve" smooth="yes"/>
      <point x="-268" y="689"/>
      <point x="-210" y="635"/>
      <point x="-179" y="591" type="curve"/>
      <point x="-103" y="594" type="line"/>
      <point x="-131" y="710"/>
      <point x="-220" y="925"/>
    </contour>
  </outline>
</glyph>
<glyph name="dvmOcandra" format="1">
  <advance width="296"/>
  <unicode hex="0949"/>
  <outline>
    <contour>
      <point x="228" y="891" type="curve"/>
      <point x="192" y="815"/>
      <point x="151" y="776"/>
      <point x="85" y="776" type="curve" smooth="yes"/>
      <point x="45" y="776"/>
      <point x="-6" y="790"/>
      <point x="-53" y="872" type="curve"/>
      <point x="-69" y="862"/>
      <point x="-83" y="854"/>
      <point x="-98" y="839" type="curve"/>
      <point x="-67" y="763"/>
      <point x="-7" y="682"/>
      <point x="107" y="682" type="curve" smooth="yes"/>
      <point x="216" y="682"/>
      <point x="296" y="757"/>
      <point x="327" y="823" type="curve"/>
      <point x="307" y="846"/>
      <point x="258" y="880"/>
    </contour>
    <contour>
      <point x="208" y="551" type="line"/>
      <point x="88" y="551" type="line"/>
      <point x="88" y="26" type="line" smooth="yes"/>
      <point x="88" y="0"/>
      <point x="159" y="-20"/>
      <point x="208" y="-20" type="curve"/>
    </contour>
    <contour>
      <point x="306" y="625" type="curve"/>
      <point x="-49" y="625" type="line"/>
      <point x="-49" y="584"/>
      <point x="-31" y="546"/>
      <point x="-10" y="520" type="curve"/>
      <point x="345" y="520" type="line"/>
      <point x="345" y="561"/>
      <point x="327" y="599"/>
    </contour>
  </outline>
</glyph>
<glyph name="dvmO" format="1">
  <advance width="296"/>
  <unicode hex="094B"/>
  <outline>
    <contour>
      <point x="208" y="551" type="line"/>
      <point x="88" y="551" type="line"/>
      <point x="88" y="26" type="line" smooth="yes"/>
      <point x="88" y="0"/>
      <point x="159" y="-20"/>
      <point x="208" y="-20" type="curve"/>
    </contour>
    <contour>
      <point x="306" y="625" type="curve"/>
      <point x="-49" y="625" type="line"/>
      <point x="-49" y="584"/>
      <point x="-31" y="546"/>
      <point x="-10" y="520" type="curve"/>
      <point x="345" y="520" type="line"/>
      <point x="345" y="561"/>
      <point x="327" y="599"/>
    </contour>
    <contour>
      <point x="79" y="592" type="curve"/>
      <point x="162" y="601" type="line"/>
      <point x="136" y="686"/>
      <point x="27" y="900"/>
      <point x="-139" y="900" type="curve" smooth="yes"/>
      <point x="-192" y="900"/>
      <point x="-277" y="877"/>
      <point x="-292" y="870" type="curve"/>
      <point x="-289" y="846"/>
      <point x="-262" y="774"/>
      <point x="-258" y="768" type="curve"/>
      <point x="-246" y="773"/>
      <point x="-171" y="796"/>
      <point x="-110" y="796" type="curve" smooth="yes"/>
      <point x="-5" y="796"/>
      <point x="54" y="654"/>
    </contour>
  </outline>
</glyph>
<glyph name="dvmAU" format="1">
  <advance width="296"/>
  <unicode hex="094C"/>
  <outline>
    <contour>
      <point x="208" y="551" type="line"/>
      <point x="88" y="551" type="line"/>
      <point x="88" y="26" type="line" smooth="yes"/>
      <point x="88" y="0"/>
      <point x="159" y="-20"/>
      <point x="208" y="-20" type="curve"/>
    </contour>
    <contour>
      <point x="306" y="625" type="curve"/>
      <point x="-49" y="625" type="line"/>
      <point x="-49" y="584"/>
      <point x="-31" y="546"/>
      <point x="-10" y="520" type="curve"/>
      <point x="345" y="520" type="line"/>
      <point x="345" y="561"/>
      <point x="327" y="599"/>
    </contour>
    <contour>
      <point x="-104" y="925" type="curve" smooth="yes"/>
      <point x="-154" y="925"/>
      <point x="-217" y="901"/>
      <point x="-245" y="883" type="curve"/>
      <point x="-236" y="850"/>
      <point x="-203" y="788"/>
      <point x="-196" y="780" type="curve"/>
      <point x="-179" y="792"/>
      <point x="-126" y="826"/>
      <point x="-81" y="826" type="curve" smooth="yes"/>
      <point x="-32" y="826"/>
      <point x="17" y="768"/>
      <point x="54" y="703" type="curve"/>
      <point x="3" y="748"/>
      <point x="-56" y="780"/>
      <point x="-100" y="780" type="curve" smooth="yes"/>
      <point x="-152" y="780"/>
      <point x="-211" y="750"/>
      <point x="-232" y="729" type="curve"/>
      <point x="-222" y="701"/>
      <point x="-186" y="645"/>
      <point x="-179" y="639" type="curve"/>
      <point x="-165" y="653"/>
      <point x="-110" y="689"/>
      <point x="-61" y="689" type="curve" smooth="yes"/>
      <point x="-6" y="689"/>
      <point x="52" y="635"/>
      <point x="83" y="591" type="curve"/>
      <point x="159" y="594" type="line"/>
      <point x="131" y="710"/>
      <point x="42" y="925"/>
    </contour>
  </outline>
</glyph>
<glyph name="dvVirama" format="1">
  <advance width="0"/>
  <unicode hex="094D"/>
  <outline>
    <contour>
      <point x="-88" y="0" type="move" name="_blwm.virama"/>
    </contour>
    <contour>
      <point x="-288" y="-69" type="curve"/>
      <point x="-288" y="-85"/>
      <point x="-275" y="-148"/>
      <point x="-268" y="-162" type="curve"/>
      <point x="-250" y="-159"/>
      <point x="-224" y="-157"/>
      <point x="-202" y="-157" type="curve" smooth="yes"/>
      <point x="-178" y="-157"/>
      <point x="-161" y="-158"/>
      <point x="-143" y="-163" type="curve" smooth="yes"/>
      <point x="-86" y="-181"/>
      <point x="-13" y="-248"/>
      <point x="21" y="-284" type="curve"/>
      <point x="35" y="-275"/>
      <point x="54" y="-258"/>
      <point x="62" y="-245" type="curve"/>
      <point x="28" y="-203"/>
      <point x="-69" y="-105"/>
      <point x="-148" y="-76" type="curve" smooth="yes"/>
      <point x="-164" y="-70"/>
      <point x="-196" y="-65"/>
      <point x="-229" y="-65" type="curve" smooth="yes"/>
      <point x="-244" y="-65"/>
      <point x="-273" y="-67"/>
    </contour>
  </outline>
</glyph>
<glyph name="dvGxA" format="1">
  <advance width="626"/>
  <unicode hex="095A"/>
  <outline>
    <contour>
      <point x="160" y="-83" type="curve" smooth="yes"/>
      <point x="178" y="-83"/>
      <point x="238" y="-29"/>
      <point x="238" y="-17" type="curve" smooth="yes"/>
      <point x="238" y="4"/>
      <point x="185" y="66"/>
      <point x="167" y="66" type="curve" smooth="yes"/>
      <point x="151" y="66"/>
      <point x="89" y="15"/>
      <point x="89" y="-5" type="curve" smooth="yes"/>
      <point x="89" y="-22"/>
      <point x="139" y="-83"/>
    </contour>
    <contour>
      <point x="247" y="533" type="line"/>
      <point x="127" y="533" type="line"/>
      <point x="127" y="369" type="line"/>
      <point x="79" y="369"/>
      <point x="46" y="357"/>
      <point x="34" y="342" type="curve" smooth="yes"/>
      <point x="28" y="335"/>
      <point x="26" y="321"/>
      <point x="26" y="307" type="curve" smooth="yes"/>
      <point x="26" y="260"/>
      <point x="111" y="153"/>
      <point x="169" y="153" type="curve" smooth="yes"/>
      <point x="185" y="153"/>
      <point x="203" y="159"/>
      <point x="212" y="166" type="curve" smooth="yes"/>
      <point x="232" y="182"/>
      <point x="247" y="220"/>
      <point x="247" y="284" type="curve" smooth="yes"/>
    </contour>
    <contour>
      <point x="530" y="551" type="line"/>
      <point x="410" y="551" type="line"/>
      <point x="410" y="26" type="line" smooth="yes"/>
      <point x="410" y="0"/>
      <point x="481" y="-20"/>
      <point x="530" y="-20" type="curve"/>
    </contour>
    <contour>
      <point x="628" y="625" type="curve"/>
      <point x="-44" y="625" type="line"/>
      <point x="-44" y="584"/>
      <point x="-26" y="546"/>
      <point x="-5" y="520" type="curve"/>
      <point x="667" y="520" type="line"/>
      <point x="667" y="561"/>
      <point x="649" y="599"/>
    </contour>
  </outline>
</glyph>
<glyph name="dvDDxA" format="1">
  <advance width="521"/>
  <unicode hex="095C"/>
  <outline>
    <contour>
      <point x="463" y="625" type="move" name="abvm.e"/>
    </contour>
    <contour>
      <point x="302" y="-217" type="curve" smooth="yes"/>
      <point x="320" y="-217"/>
      <point x="380" y="-163"/>
      <point x="380" y="-151" type="curve" smooth="yes"/>
      <point x="380" y="-130"/>
      <point x="327" y="-68"/>
      <point x="309" y="-68" type="curve" smooth="yes"/>
      <point x="293" y="-68"/>
      <point x="231" y="-119"/>
      <point x="231" y="-139" type="curve" smooth="yes"/>
      <point x="231" y="-156"/>
      <point x="281" y="-217"/>
    </contour>
    <contour>
      <point x="556" y="625" type="curve"/>
      <point x="-54" y="625" type="line"/>
      <point x="-54" y="584"/>
      <point x="-36" y="546"/>
      <point x="-15" y="520" type="curve"/>
      <point x="595" y="520" type="line"/>
      <point x="595" y="561"/>
      <point x="577" y="599"/>
    </contour>
    <contour>
      <point x="463" y="552" type="line"/>
      <point x="343" y="552" type="line"/>
      <point x="343" y="459" type="line"/>
      <point x="231" y="459" type="line" smooth="yes"/>
      <point x="142" y="459"/>
      <point x="86" y="413"/>
      <point x="86" y="332" type="curve" smooth="yes"/>
      <point x="86" y="218"/>
      <point x="193" y="153"/>
      <point x="238" y="153" type="curve" smooth="yes"/>
      <point x="286" y="153"/>
      <point x="386" y="196"/>
      <point x="417" y="196" type="curve" smooth="yes"/>
      <point x="434" y="196"/>
      <point x="445" y="187"/>
      <point x="445" y="168" type="curve" smooth="yes"/>
      <point x="445" y="117"/>
      <point x="374" y="69"/>
      <point x="284" y="69" type="curve" smooth="yes"/>
      <point x="203" y="69"/>
      <point x="133" y="116"/>
      <point x="74" y="185" type="curve"/>
      <point x="56" y="179"/>
      <point x="33" y="163"/>
      <point x="25" y="139" type="curve"/>
      <point x="100" y="35"/>
      <point x="206" y="-31"/>
      <point x="319" y="-31" type="curve" smooth="yes"/>
      <point x="430" y="-31"/>
      <point x="520" y="38"/>
      <point x="520" y="134" type="curve" smooth="yes"/>
      <point x="520" y="189"/>
      <point x="466" y="298"/>
      <point x="388" y="298" type="curve" smooth="yes"/>
      <point x="325" y="298"/>
      <point x="220" y="256"/>
      <point x="194" y="256" type="curve" smooth="yes"/>
      <point x="185" y="256"/>
      <point x="175" y="260"/>
      <point x="175" y="288" type="curve" smooth="yes"/>
      <point x="175" y="347"/>
      <point x="231" y="360"/>
      <point x="325" y="360" type="curve" smooth="yes"/>
      <point x="384" y="360"/>
      <point x="396" y="358"/>
      <point x="422" y="358" type="curve" smooth="yes"/>
      <point x="438" y="370"/>
      <point x="458" y="395"/>
      <point x="463" y="417" type="curve" smooth="yes"/>
    </contour>
  </outline>
</glyph>
<glyph name="dvOne" format="1">
  <advance width="449"/>
  <unicode hex="0967"/>
  <outline>
    <contour>
      <point x="214" y="635" type="curve" smooth="yes"/>
      <point x="109" y="635"/>
      <point x="57" y="562"/>
      <point x="57" y="499" type="curve" smooth="yes"/>
      <point x="57" y="442"/>
      <point x="101" y="390"/>
      <point x="203" y="344" type="curve"/>
      <point x="215" y="352"/>
      <point x="229" y="373"/>
      <point x="234" y="386" type="curve"/>
      <point x="190" y="422"/>
      <point x="171" y="450"/>
      <point x="171" y="482" type="curve" smooth="yes"/>
      <point x="171" y="523"/>
      <point x="202" y="549"/>
      <point x="239" y="549" type="curve" smooth="yes"/>
      <point x="281" y="549"/>
      <point x="302" y="517"/>
      <point x="302" y="470" type="curve" smooth="yes"/>
      <point x="302" y="361"/>
      <point x="192" y="269"/>
      <point x="87" y="231" type="curve"/>
      <point x="87" y="192" type="line"/>
      <point x="190" y="109"/>
      <point x="284" y="22"/>
      <point x="284" y="-43" type="curve" smooth="yes"/>
      <point x="284" y="-82"/>
      <point x="249" y="-127"/>
      <point x="246" y="-132" type="curve"/>
      <point x="260" y="-145"/>
      <point x="331" y="-178"/>
      <point x="355" y="-180" type="curve"/>
      <point x="384" y="-145"/>
      <point x="402" y="-98"/>
      <point x="402" y="-60" type="curve" smooth="yes"/>
      <point x="402" y="53"/>
      <point x="247" y="170"/>
      <point x="157" y="213" type="curve"/>
      <point x="159" y="170" type="line"/>
      <point x="268" y="196"/>
      <point x="418" y="305"/>
      <point x="418" y="447" type="curve" smooth="yes"/>
      <point x="418" y="564"/>
      <point x="317" y="635"/>
    </contour>
  </outline>
</glyph>
<glyph name="dvFive" format="1">
  <advance width="549"/>
  <unicode hex="096B"/>
  <outline>
    <contour>
      <point x="181" y="638" type="curve"/>
      <point x="107" y="572"/>
      <point x="71" y="466"/>
      <point x="71" y="367" type="curve" smooth="yes"/>
      <point x="71" y="205"/>
      <point x="166" y="137"/>
      <point x="258" y="137" type="curve" smooth="yes"/>
      <point x="337" y="137"/>
      <point x="431" y="187"/>
      <point x="431" y="301" type="curve" smooth="yes"/>
      <point x="431" y="353"/>
      <point x="411" y="380"/>
      <point x="388" y="380" type="curve" smooth="yes"/>
      <point x="349" y="380"/>
      <point x="300" y="344"/>
      <point x="300" y="303" type="curve" smooth="yes"/>
      <point x="300" y="280"/>
      <point x="327" y="235"/>
      <point x="339" y="228" type="curve"/>
      <point x="355" y="286" type="line"/>
      <point x="333" y="260"/>
      <point x="296" y="242"/>
      <point x="252" y="242" type="curve" smooth="yes"/>
      <point x="176" y="242"/>
      <point x="162" y="297"/>
      <point x="162" y="340" type="curve" smooth="yes"/>
      <point x="162" y="434"/>
      <point x="228" y="525"/>
      <point x="270" y="565" type="curve"/>
      <point x="254" y="590"/>
      <point x="204" y="630"/>
    </contour>
    <contour>
      <point x="384" y="260" type="curve"/>
      <point x="341" y="221" type="line"/>
      <point x="386" y="160"/>
      <point x="444" y="38"/>
      <point x="475" y="-40" type="curve"/>
      <point x="503" y="-29"/>
      <point x="565" y="10"/>
      <point x="578" y="30" type="curve"/>
      <point x="539" y="99"/>
      <point x="435" y="222"/>
    </contour>
  </outline>
</glyph>
<glyph name="dvSeven" format="1">
  <advance width="586"/>
  <unicode hex="096D"/>
  <outline>
    <contour>
      <point x="86" y="634" type="curve"/>
      <point x="82" y="598"/>
      <point x="80" y="559"/>
      <point x="80" y="521" type="curve" smooth="yes"/>
      <point x="80" y="275"/>
      <point x="162" y="18"/>
      <point x="360" y="18" type="curve" smooth="yes"/>
      <point x="480" y="18"/>
      <point x="558" y="112"/>
      <point x="558" y="274" type="curve" smooth="yes"/>
      <point x="558" y="456"/>
      <point x="460" y="578"/>
      <point x="355" y="578" type="curve" smooth="yes"/>
      <point x="276" y="578"/>
      <point x="239" y="509"/>
      <point x="239" y="443" type="curve" smooth="yes"/>
      <point x="239" y="362"/>
      <point x="294" y="290"/>
      <point x="413" y="246" type="curve"/>
      <point x="425" y="256"/>
      <point x="436" y="282"/>
      <point x="439" y="299" type="curve"/>
      <point x="365" y="333"/>
      <point x="349" y="379"/>
      <point x="349" y="426" type="curve" smooth="yes"/>
      <point x="349" y="450"/>
      <point x="353" y="488"/>
      <point x="381" y="488" type="curve" smooth="yes"/>
      <point x="425" y="488"/>
      <point x="456" y="397"/>
      <point x="456" y="297" type="curve" smooth="yes"/>
      <point x="456" y="205"/>
      <point x="430" y="126"/>
      <point x="350" y="126" type="curve" smooth="yes"/>
      <point x="234" y="126"/>
      <point x="193" y="289"/>
      <point x="193" y="442" type="curve" smooth="yes"/>
      <point x="193" y="513"/>
      <point x="203" y="550"/>
      <point x="213" y="601" type="curve"/>
      <point x="182" y="622"/>
      <point x="117" y="633"/>
    </contour>
  </outline>
</glyph>
<glyph name="dvAbbreviationsign" format="1">
  <advance width="397"/>
  <unicode hex="0970"/>
  <outline>
    <contour>
      <point x="197" y="495" type="curve" smooth="yes"/>
      <point x="119" y="495"/>
      <point x="70" y="439"/>
      <point x="70" y="361" type="curve" smooth="yes"/>
      <point x="70" y="259"/>
      <point x="150" y="196"/>
      <point x="230" y="196" type="curve" smooth="yes"/>
      <point x="299" y="196"/>
      <point x="355" y="242"/>
      <point x="355" y="328" type="curve" smooth="yes"/>
      <point x="355" y="421"/>
      <point x="288" y="495"/>
    </contour>
    <contour>
      <point x="211" y="417" type="curve" smooth="yes"/>
      <point x="249" y="417"/>
      <point x="277" y="390"/>
      <point x="277" y="342" type="curve" smooth="yes"/>
      <point x="277" y="305"/>
      <point x="261" y="274"/>
      <point x="218" y="274" type="curve" smooth="yes"/>
      <point x="176" y="274"/>
      <point x="147" y="305"/>
      <point x="147" y="349" type="curve" smooth="yes"/>
      <point x="147" y="393"/>
      <point x="175" y="417"/>
    </contour>
  </outline>
</glyph>
<glyph name="bullet" format="1">
  <advance width="486"/>
  <unicode hex="2022"/>
  <outline>
    <contour>
      <point x="243" y="248" type="curve" smooth="yes"/>
      <point x="313" y="248"/>
      <point x="366" y="301"/>
      <point x="366" y="371" type="curve" smooth="yes"/>
      <point x="366" y="439"/>
      <point x="313" y="494"/>
      <point x="243" y="494" type="curve" smooth="yes"/>
      <point x="175" y="494"/>
      <point x="120" y="439"/>
      <point x="120" y="371" type="curve" smooth="yes"/>
      <point x="120" y="301"/>
      <point x="175" y="248"/>
    </contour>
  </outline>
</glyph>
<glyph name="partialdiff" format="1">
  <advance width="566"/>
  <unicode hex="2202"/>
  <outline>
    <contour>
      <point x="226" y="683" type="curve" smooth="yes"/>
      <point x="135" y="683"/>
      <point x="78" y="645"/>
      <point x="78" y="601" type="curve" smooth="yes"/>
      <point x="78" y="580"/>
      <point x="91" y="536"/>
      <point x="153" y="540" type="curve"/>
      <point x="153" y="590"/>
      <point x="178" y="611"/>
      <point x="226" y="611" type="curve" smooth="yes"/>
      <point x="322" y="611"/>
      <point x="399" y="526"/>
      <point x="399" y="335" type="curve" smooth="yes"/>
      <point x="399" y="222"/>
      <point x="371" y="64"/>
      <point x="259" y="64" type="curve" smooth="yes"/>
      <point x="196" y="64"/>
      <point x="167" y="115"/>
      <point x="167" y="206" type="curve" smooth="yes"/>
      <point x="167" y="363"/>
      <point x="253" y="403"/>
      <point x="321" y="403" type="curve" smooth="yes"/>
      <point x="368" y="403"/>
      <point x="418" y="384"/>
      <point x="443" y="349" type="curve"/>
      <point x="454" y="423" type="line"/>
      <point x="411" y="462"/>
      <point x="362" y="477"/>
      <point x="301" y="477" type="curve" smooth="yes"/>
      <point x="144" y="477"/>
      <point x="40" y="376"/>
      <point x="40" y="202" type="curve" smooth="yes"/>
      <point x="40" y="76"/>
      <point x="95" y="-15"/>
      <point x="243" y="-15" type="curve" smooth="yes"/>
      <point x="448" y="-15"/>
      <point x="526" y="158"/>
      <point x="526" y="331" type="curve" smooth="yes"/>
      <point x="526" y="561"/>
      <point x="390" y="683"/>
    </contour>
  </outline>
</glyph>
<glyph name="bulletoperator" format="1">
  <advance width="438"/>
  <unicode hex="2219"/>
  <outline>
    <contour>
      <point x="231" y="315" type="curve" smooth="yes"/>
      <point x="273" y="315"/>
      <point x="305" y="347"/>
      <point x="305" y="389" type="curve" smooth="yes"/>
      <point x="305" y="430"/>
      <point x="273" y="463"/>
      <point x="231" y="463" type="curve" smooth="yes"/>
      <point x="190" y="463"/>
      <point x="157" y="430"/>
      <point x="157" y="389" type="curve" smooth="yes"/>
      <point x="157" y="347"/>
      <point x="190" y="315"/>
    </contour>
  </outline>
</glyph>
<glyph name="notequal" format="1">
  <advance width="508"/>
  <unicode hex="2260"/>
  <outline>
    <contour>
      <point x="344" y="542" type="line"/>
      <point x="118" y="82" type="line"/>
      <point x="194" y="42" type="line"/>
      <point x="425" y="507" type="line"/>
    </contour>
    <component base="equal"/>
  </outline>
</glyph>
<glyph name="lozenge" format="1">
  <advance width="669"/>
  <unicode hex="25CA"/>
  <outline>
    <contour>
      <point x="335" y="611" type="line"/>
      <point x="40" y="316" type="line"/>
      <point x="335" y="22" type="line"/>
      <point x="629" y="317" type="line"/>
    </contour>
    <contour>
      <point x="335" y="482" type="line"/>
      <point x="500" y="317" type="line"/>
      <point x="335" y="151" type="line"/>
      <point x="169" y="316" type="line"/>
    </contour>
  </outline>
</glyph>
<glyph name="dvGH" format="1">
  <advance width="409"/>
  <unicode hex="E00F"/>
  <outline>
    <contour>
      <point x="421" y="625" type="curve"/>
      <point x="-49" y="625" type="line"/>
      <point x="-49" y="584"/>
      <point x="-31" y="546"/>
      <point x="-10" y="520" type="curve"/>
      <point x="460" y="520" type="line"/>
      <point x="460" y="561"/>
      <point x="442" y="599"/>
    </contour>
    <contour>
      <point x="161" y="341" type="curve"/>
      <point x="241" y="395" type="line"/>
      <point x="216" y="387"/>
      <point x="143" y="406"/>
      <point x="143" y="473" type="curve" smooth="yes"/>
      <point x="143" y="497"/>
      <point x="152" y="514"/>
      <point x="163" y="525" type="curve" smooth="yes"/>
      <point x="58" y="541" type="line" smooth="yes"/>
      <point x="42" y="522"/>
      <point x="34" y="498"/>
      <point x="34" y="470" type="curve" smooth="yes"/>
      <point x="34" y="403"/>
      <point x="80" y="352"/>
    </contour>
    <contour>
      <point x="281" y="419" type="curve"/>
      <point x="197" y="403"/>
      <point x="90" y="352"/>
      <point x="90" y="244" type="curve" smooth="yes"/>
      <point x="90" y="153"/>
      <point x="167" y="88"/>
      <point x="279" y="88" type="curve" smooth="yes"/>
      <point x="366" y="88"/>
      <point x="457" y="126"/>
      <point x="512" y="189" type="curve"/>
      <point x="469" y="324" type="line"/>
      <point x="441" y="250"/>
      <point x="361" y="185"/>
      <point x="279" y="185" type="curve" smooth="yes"/>
      <point x="220" y="185"/>
      <point x="201" y="219"/>
      <point x="201" y="244" type="curve" smooth="yes"/>
      <point x="201" y="294"/>
      <point x="280" y="324"/>
      <point x="336" y="333" type="curve"/>
      <point x="329" y="363"/>
      <point x="300" y="400"/>
    </contour>
  </outline>
</glyph>
<glyph name="dvC" format="1">
  <advance width="432"/>
  <unicode hex="E011"/>
  <outline>
    <contour>
      <point x="348" y="450" type="curve"/>
      <point x="13" y="450" type="line"/>
      <point x="13" y="409"/>
      <point x="31" y="371"/>
      <point x="52" y="345" type="curve"/>
      <point x="131" y="345" type="line"/>
      <point x="121" y="328"/>
      <point x="114" y="300"/>
      <point x="114" y="273" type="curve" smooth="yes"/>
      <point x="114" y="183"/>
      <point x="195" y="91"/>
      <point x="321" y="91" type="curve" smooth="yes"/>
      <point x="391" y="91"/>
      <point x="444" y="120"/>
      <point x="501" y="169" type="curve"/>
      <point x="488" y="315" type="line"/>
      <point x="464" y="241"/>
      <point x="388" y="192"/>
      <point x="312" y="192" type="curve" smooth="yes"/>
      <point x="260" y="192"/>
      <point x="220" y="215"/>
      <point x="220" y="260" type="curve" smooth="yes"/>
      <point x="220" y="321"/>
      <point x="296" y="345"/>
      <point x="353" y="345" type="curve" smooth="yes"/>
      <point x="387" y="345" type="line"/>
      <point x="387" y="386"/>
      <point x="369" y="424"/>
    </contour>
    <contour>
      <point x="443" y="625" type="curve"/>
      <point x="-49" y="625" type="line"/>
      <point x="-49" y="584"/>
      <point x="-31" y="546"/>
      <point x="-10" y="520" type="curve"/>
      <point x="482" y="520" type="line"/>
      <point x="482" y="561"/>
      <point x="464" y="599"/>
    </contour>
  </outline>
</glyph>
<glyph name="dvTTH" format="1">
  <advance width="592"/>
  <unicode hex="E017"/>
  <outline>
    <contour>
      <point x="604" y="625" type="curve"/>
      <point x="-49" y="625" type="line"/>
      <point x="-49" y="584"/>
      <point x="-31" y="546"/>
      <point x="-10" y="520" type="curve"/>
      <point x="643" y="520" type="line"/>
      <point x="643" y="561"/>
      <point x="625" y="599"/>
    </contour>
    <contour>
      <point x="311" y="571" type="line"/>
      <point x="311" y="405" type="line"/>
      <point x="430" y="394" type="line"/>
      <point x="430" y="569" type="line"/>
    </contour>
    <contour>
      <point x="295" y="449" type="curve" smooth="yes"/>
      <point x="143" y="449"/>
      <point x="31" y="378"/>
      <point x="31" y="246" type="curve" smooth="yes"/>
      <point x="31" y="115"/>
      <point x="142" y="14"/>
      <point x="308" y="14" type="curve" smooth="yes"/>
      <point x="463" y="14"/>
      <point x="565" y="102"/>
      <point x="565" y="232" type="curve" smooth="yes"/>
      <point x="565" y="363"/>
      <point x="462" y="449"/>
    </contour>
    <contour>
      <point x="329" y="353" type="curve" smooth="yes"/>
      <point x="432" y="353"/>
      <point x="475" y="313"/>
      <point x="475" y="250" type="curve" smooth="yes"/>
      <point x="475" y="164"/>
      <point x="396" y="100"/>
      <point x="286" y="100" type="curve" smooth="yes"/>
      <point x="186" y="100"/>
      <point x="135" y="152"/>
      <point x="135" y="219" type="curve" smooth="yes"/>
      <point x="135" y="301"/>
      <point x="213" y="353"/>
    </contour>
    <contour>
      <point x="234" y="-51" type="curve"/>
      <point x="234" y="-67"/>
      <point x="247" y="-130"/>
      <point x="254" y="-144" type="curve"/>
      <point x="272" y="-141"/>
      <point x="298" y="-139"/>
      <point x="320" y="-139" type="curve" smooth="yes"/>
      <point x="344" y="-139"/>
      <point x="361" y="-140"/>
      <point x="379" y="-145" type="curve" smooth="yes"/>
      <point x="436" y="-163"/>
      <point x="509" y="-230"/>
      <point x="543" y="-266" type="curve"/>
      <point x="557" y="-257"/>
      <point x="576" y="-240"/>
      <point x="584" y="-227" type="curve"/>
      <point x="550" y="-185"/>
      <point x="453" y="-87"/>
      <point x="374" y="-58" type="curve" smooth="yes"/>
      <point x="358" y="-52"/>
      <point x="326" y="-47"/>
      <point x="293" y="-47" type="curve" smooth="yes"/>
      <point x="278" y="-47"/>
      <point x="249" y="-49"/>
    </contour>
  </outline>
</glyph>
<glyph name="dvT" format="1">
  <advance width="307"/>
  <unicode hex="E01B"/>
  <outline>
    <contour>
      <point x="315" y="625" type="curve"/>
      <point x="-49" y="625" type="line"/>
      <point x="-49" y="584"/>
      <point x="-31" y="546"/>
      <point x="-10" y="520" type="curve"/>
      <point x="354" y="520" type="line"/>
      <point x="354" y="561"/>
      <point x="336" y="599"/>
    </contour>
    <contour>
      <point x="406" y="429" type="line"/>
      <point x="291" y="429" type="line" smooth="yes"/>
      <point x="115" y="429"/>
      <point x="27" y="392"/>
      <point x="27" y="278" type="curve" smooth="yes"/>
      <point x="27" y="175"/>
      <point x="116" y="47"/>
      <point x="172" y="-25" type="curve"/>
      <point x="188" y="-22"/>
      <point x="223" y="6"/>
      <point x="235" y="20" type="curve"/>
      <point x="206" y="62"/>
      <point x="142" y="157"/>
      <point x="142" y="233" type="curve" smooth="yes"/>
      <point x="142" y="287"/>
      <point x="178" y="308"/>
      <point x="289" y="308" type="curve" smooth="yes"/>
      <point x="406" y="308" type="line"/>
    </contour>
  </outline>
</glyph>
<glyph name="dvDH" format="1">
  <advance width="479"/>
  <unicode hex="E01E"/>
  <outline>
    <contour>
      <point x="490" y="625" type="curve"/>
      <point x="394" y="625" type="line"/>
      <point x="397" y="584"/>
      <point x="413" y="546"/>
      <point x="434" y="520" type="curve"/>
      <point x="529" y="520" type="line"/>
      <point x="529" y="561"/>
      <point x="511" y="599"/>
    </contour>
    <contour>
      <point x="226" y="331" type="curve"/>
      <point x="303" y="386" type="line"/>
      <point x="242" y="380"/>
      <point x="178" y="412"/>
      <point x="178" y="485" type="curve" smooth="yes"/>
      <point x="178" y="540"/>
      <point x="214" y="569"/>
      <point x="242" y="569" type="curve" smooth="yes"/>
      <point x="262" y="569"/>
      <point x="278" y="559"/>
      <point x="278" y="535" type="curve" smooth="yes"/>
      <point x="278" y="513"/>
      <point x="265" y="500"/>
      <point x="239" y="482" type="curve"/>
      <point x="242" y="472"/>
      <point x="253" y="452"/>
      <point x="262" y="444" type="curve"/>
      <point x="322" y="462"/>
      <point x="360" y="500"/>
      <point x="360" y="539" type="curve" smooth="yes"/>
      <point x="360" y="590"/>
      <point x="322" y="630"/>
      <point x="237" y="630" type="curve" smooth="yes"/>
      <point x="122" y="630"/>
      <point x="69" y="552"/>
      <point x="69" y="478" type="curve" smooth="yes"/>
      <point x="69" y="400"/>
      <point x="136" y="340"/>
    </contour>
    <contour>
      <point x="347" y="423" type="curve"/>
      <point x="247" y="407"/>
      <point x="139" y="352"/>
      <point x="139" y="244" type="curve" smooth="yes"/>
      <point x="139" y="153"/>
      <point x="216" y="88"/>
      <point x="328" y="88" type="curve" smooth="yes"/>
      <point x="415" y="88"/>
      <point x="499" y="127"/>
      <point x="548" y="178" type="curve"/>
      <point x="521" y="310" type="line"/>
      <point x="491" y="253"/>
      <point x="410" y="185"/>
      <point x="328" y="185" type="curve" smooth="yes"/>
      <point x="269" y="185"/>
      <point x="250" y="219"/>
      <point x="250" y="244" type="curve" smooth="yes"/>
      <point x="250" y="294"/>
      <point x="331" y="328"/>
      <point x="402" y="337" type="curve"/>
      <point x="395" y="367"/>
      <point x="368" y="404"/>
    </contour>
  </outline>
</glyph>
<glyph name="dvP" format="1">
  <advance width="376"/>
  <unicode hex="E021"/>
  <outline>
    <contour>
      <point x="200" y="590" type="line"/>
      <point x="75" y="590" type="line"/>
      <point x="75" y="394" type="line" smooth="yes"/>
      <point x="75" y="256"/>
      <point x="130" y="125"/>
      <point x="276" y="125" type="curve" smooth="yes"/>
      <point x="333" y="125"/>
      <point x="404" y="152"/>
      <point x="449" y="196" type="curve"/>
      <point x="426" y="350" type="line"/>
      <point x="395" y="272"/>
      <point x="323" y="203"/>
      <point x="268" y="203" type="curve" smooth="yes"/>
      <point x="210" y="203"/>
      <point x="200" y="248"/>
      <point x="200" y="384" type="curve" smooth="yes"/>
    </contour>
    <contour>
      <point x="388" y="625" type="curve"/>
      <point x="-49" y="625" type="line"/>
      <point x="-49" y="584"/>
      <point x="-31" y="546"/>
      <point x="-10" y="520" type="curve"/>
      <point x="427" y="520" type="line"/>
      <point x="427" y="553"/>
      <point x="409" y="599"/>
    </contour>
  </outline>
</glyph>
<glyph name="dvB" format="1">
  <advance width="372"/>
  <unicode hex="E023"/>
  <outline>
    <contour>
      <point x="380" y="625" type="curve"/>
      <point x="-49" y="625" type="line"/>
      <point x="-49" y="584"/>
      <point x="-31" y="546"/>
      <point x="-10" y="520" type="curve"/>
      <point x="419" y="520" type="line"/>
      <point x="419" y="561"/>
      <point x="401" y="599"/>
    </contour>
    <contour>
      <point x="237" y="473" type="curve" smooth="yes"/>
      <point x="141" y="473"/>
      <point x="35" y="414"/>
      <point x="35" y="284" type="curve" smooth="yes"/>
      <point x="35" y="163"/>
      <point x="127" y="78"/>
      <point x="247" y="78" type="curve" smooth="yes"/>
      <point x="355" y="78"/>
      <point x="437" y="158"/>
      <point x="470" y="224" type="curve"/>
      <point x="420" y="329" type="line"/>
      <point x="398" y="253"/>
      <point x="306" y="168"/>
      <point x="225" y="168" type="curve" smooth="yes"/>
      <point x="173" y="168"/>
      <point x="138" y="199"/>
      <point x="138" y="261" type="curve" smooth="yes"/>
      <point x="138" y="331"/>
      <point x="189" y="373"/>
      <point x="275" y="373" type="curve" smooth="yes"/>
      <point x="313" y="373"/>
      <point x="355" y="363"/>
      <point x="371" y="350" type="curve"/>
      <point x="385" y="408" type="line"/>
      <point x="358" y="446"/>
      <point x="301" y="473"/>
    </contour>
    <contour>
      <point x="178" y="409" type="line"/>
      <point x="135" y="362" type="line"/>
      <point x="347" y="146" type="line"/>
      <point x="393" y="186" type="line"/>
    </contour>
  </outline>
</glyph>
<glyph name="dvBH" format="1">
  <advance width="512"/>
  <unicode hex="E024"/>
  <outline>
    <contour>
      <point x="218" y="634" type="curve" smooth="yes"/>
      <point x="138" y="634"/>
      <point x="64" y="594"/>
      <point x="64" y="512" type="curve" smooth="yes"/>
      <point x="64" y="417"/>
      <point x="163" y="361"/>
      <point x="237" y="343" type="curve"/>
      <point x="246" y="351"/>
      <point x="257" y="376"/>
      <point x="261" y="392" type="curve"/>
      <point x="222" y="414"/>
      <point x="179" y="444"/>
      <point x="179" y="503" type="curve" smooth="yes"/>
      <point x="179" y="539"/>
      <point x="195" y="557"/>
      <point x="224" y="557" type="curve" smooth="yes"/>
      <point x="261" y="557"/>
      <point x="278" y="529"/>
      <point x="279" y="463" type="curve" smooth="yes"/>
      <point x="281" y="362"/>
      <point x="281" y="351"/>
      <point x="279" y="294" type="curve"/>
      <point x="196" y="290"/>
      <point x="177" y="269"/>
      <point x="177" y="240" type="curve" smooth="yes"/>
      <point x="177" y="176"/>
      <point x="268" y="94"/>
      <point x="296" y="83" type="curve" smooth="yes"/>
      <point x="311" y="77"/>
      <point x="345" y="79"/>
      <point x="359" y="88" type="curve" smooth="yes"/>
      <point x="380" y="101"/>
      <point x="396" y="158"/>
      <point x="401" y="203" type="curve"/>
      <point x="459" y="205"/>
      <point x="549" y="200"/>
      <point x="610" y="194" type="curve"/>
      <point x="604" y="292" type="line"/>
      <point x="568" y="294"/>
      <point x="438" y="302"/>
      <point x="396" y="299" type="curve"/>
      <point x="396" y="437" type="line" smooth="yes"/>
      <point x="396" y="595"/>
      <point x="297" y="634"/>
    </contour>
    <contour>
      <point x="537" y="625" type="curve"/>
      <point x="455" y="625" type="line"/>
      <point x="455" y="584"/>
      <point x="473" y="546"/>
      <point x="494" y="520" type="curve"/>
      <point x="576" y="520" type="line"/>
      <point x="576" y="561"/>
      <point x="558" y="599"/>
    </contour>
  </outline>
</glyph>
<glyph name="dvM" format="1">
  <advance width="367"/>
  <unicode hex="E025"/>
  <outline>
    <contour>
      <point x="242" y="556" type="line"/>
      <point x="123" y="556" type="line"/>
      <point x="123" y="299" type="line"/>
      <point x="75" y="299"/>
      <point x="42" y="287"/>
      <point x="30" y="272" type="curve" smooth="yes"/>
      <point x="24" y="265"/>
      <point x="22" y="251"/>
      <point x="22" y="237" type="curve" smooth="yes"/>
      <point x="22" y="190"/>
      <point x="112" y="83"/>
      <point x="165" y="83" type="curve" smooth="yes"/>
      <point x="181" y="83"/>
      <point x="198" y="87"/>
      <point x="207" y="94" type="curve" smooth="yes"/>
      <point x="227" y="110"/>
      <point x="245" y="164"/>
      <point x="245" y="209" type="curve"/>
      <point x="274" y="211"/>
      <point x="300" y="211"/>
      <point x="326" y="211" type="curve" smooth="yes"/>
      <point x="371" y="211"/>
      <point x="414" y="209"/>
      <point x="458" y="203" type="curve"/>
      <point x="458" y="301" type="line"/>
      <point x="416" y="304"/>
      <point x="360" y="305"/>
      <point x="310" y="305" type="curve" smooth="yes"/>
      <point x="285" y="305"/>
      <point x="261" y="305"/>
      <point x="242" y="304" type="curve"/>
    </contour>
    <contour>
      <point x="378" y="625" type="curve"/>
      <point x="-49" y="625" type="line"/>
      <point x="-49" y="584"/>
      <point x="-31" y="546"/>
      <point x="-10" y="520" type="curve"/>
      <point x="417" y="520" type="line"/>
      <point x="417" y="561"/>
      <point x="399" y="599"/>
    </contour>
  </outline>
</glyph>
<glyph name="dvL" format="1">
  <advance width="488"/>
  <unicode hex="E028"/>
  <outline>
    <contour>
      <point x="498" y="625" type="curve"/>
      <point x="-49" y="625" type="line"/>
      <point x="-49" y="584"/>
      <point x="-31" y="546"/>
      <point x="-10" y="520" type="curve"/>
      <point x="537" y="520" type="line"/>
      <point x="537" y="561"/>
      <point x="519" y="599"/>
    </contour>
    <contour>
      <point x="326" y="264" type="curve"/>
      <point x="349" y="345" type="line"/>
      <point x="341" y="378"/>
      <point x="295" y="452"/>
      <point x="201" y="452" type="curve" smooth="yes"/>
      <point x="121" y="452"/>
      <point x="35" y="401"/>
      <point x="35" y="291" type="curve" smooth="yes"/>
      <point x="35" y="155"/>
      <point x="167" y="42"/>
      <point x="251" y="-16" type="curve"/>
      <point x="266" y="-4"/>
      <point x="287" y="25"/>
      <point x="296" y="41" type="curve"/>
      <point x="217" y="104"/>
      <point x="149" y="163"/>
      <point x="149" y="251" type="curve" smooth="yes"/>
      <point x="149" y="306"/>
      <point x="176" y="344"/>
      <point x="228" y="344" type="curve" smooth="yes"/>
      <point x="286" y="344"/>
      <point x="327" y="295"/>
    </contour>
    <contour>
      <point x="485" y="450" type="curve" smooth="yes"/>
      <point x="357" y="450"/>
      <point x="317" y="312"/>
      <point x="302" y="230" type="curve"/>
      <point x="315" y="219"/>
      <point x="369" y="191"/>
      <point x="401" y="187" type="curve"/>
      <point x="409" y="242"/>
      <point x="432" y="359"/>
      <point x="513" y="359" type="curve" smooth="yes"/>
      <point x="548" y="359"/>
      <point x="573" y="345"/>
      <point x="588" y="325" type="curve"/>
      <point x="602" y="398" type="line"/>
      <point x="589" y="418"/>
      <point x="551" y="450"/>
    </contour>
  </outline>
</glyph>
<glyph name="dvV" format="1">
  <advance width="367"/>
  <unicode hex="E02A"/>
  <outline>
    <contour>
      <point x="237" y="472" type="curve" smooth="yes"/>
      <point x="141" y="472"/>
      <point x="35" y="414"/>
      <point x="35" y="284" type="curve" smooth="yes"/>
      <point x="35" y="163"/>
      <point x="127" y="78"/>
      <point x="247" y="78" type="curve" smooth="yes"/>
      <point x="357" y="78"/>
      <point x="442" y="149"/>
      <point x="476" y="207" type="curve"/>
      <point x="422" y="295" type="line"/>
      <point x="402" y="225"/>
      <point x="308" y="168"/>
      <point x="233" y="168" type="curve" smooth="yes"/>
      <point x="176" y="168"/>
      <point x="138" y="199"/>
      <point x="138" y="261" type="curve" smooth="yes"/>
      <point x="138" y="331"/>
      <point x="186" y="373"/>
      <point x="263" y="373" type="curve" smooth="yes"/>
      <point x="313" y="373"/>
      <point x="355" y="363"/>
      <point x="371" y="350" type="curve"/>
      <point x="385" y="408" type="line"/>
      <point x="358" y="446"/>
      <point x="301" y="472"/>
    </contour>
    <contour>
      <point x="378" y="625" type="curve"/>
      <point x="-49" y="625" type="line"/>
      <point x="-49" y="584"/>
      <point x="-31" y="546"/>
      <point x="-10" y="520" type="curve"/>
      <point x="417" y="520" type="line"/>
      <point x="417" y="561"/>
      <point x="399" y="599"/>
    </contour>
  </outline>
</glyph>
<glyph name="dvSS" format="1">
  <advance width="367"/>
  <unicode hex="E02C"/>
  <outline>
    <contour>
      <point x="381" y="625" type="curve"/>
      <point x="-49" y="625" type="line"/>
      <point x="-49" y="584"/>
      <point x="-31" y="546"/>
      <point x="-10" y="520" type="curve"/>
      <point x="420" y="520" type="line"/>
      <point x="420" y="561"/>
      <point x="402" y="599"/>
    </contour>
    <contour>
      <point x="195" y="545" type="line"/>
      <point x="75" y="590" type="line"/>
      <point x="75" y="394" type="line" smooth="yes"/>
      <point x="75" y="256"/>
      <point x="140" y="125"/>
      <point x="291" y="125" type="curve" smooth="yes"/>
      <point x="365" y="125"/>
      <point x="438" y="163"/>
      <point x="480" y="212" type="curve"/>
      <point x="440" y="258" type="line"/>
    </contour>
    <contour>
      <point x="283" y="204" type="curve" smooth="yes"/>
      <point x="215" y="204"/>
      <point x="195" y="249"/>
      <point x="195" y="384" type="curve" smooth="yes"/>
      <point x="195" y="440" type="line"/>
      <point x="362" y="238" type="line"/>
      <point x="335" y="217"/>
      <point x="307" y="204"/>
    </contour>
  </outline>
</glyph>
<glyph name="dvH" format="1">
  <advance width="459"/>
  <unicode hex="E02E"/>
  <outline>
    <contour>
      <point x="468" y="625" type="curve"/>
      <point x="-49" y="625" type="line"/>
      <point x="-49" y="584"/>
      <point x="-31" y="546"/>
      <point x="-10" y="520" type="curve"/>
      <point x="507" y="520" type="line"/>
      <point x="507" y="561"/>
      <point x="489" y="599"/>
    </contour>
    <contour>
      <point x="403" y="542" type="line"/>
      <point x="285" y="542" type="line"/>
      <point x="285" y="450" type="line"/>
      <point x="199" y="450" type="line" smooth="yes"/>
      <point x="60" y="450"/>
      <point x="35" y="394"/>
      <point x="35" y="346" type="curve" smooth="yes"/>
      <point x="35" y="300"/>
      <point x="69" y="242"/>
      <point x="130" y="193" type="curve"/>
      <point x="198" y="222" type="line"/>
      <point x="151" y="256"/>
      <point x="141" y="286"/>
      <point x="141" y="304" type="curve" smooth="yes"/>
      <point x="141" y="327"/>
      <point x="172" y="341"/>
      <point x="251" y="341" type="curve" smooth="yes"/>
      <point x="354" y="341" type="line" smooth="yes"/>
      <point x="369" y="341"/>
      <point x="403" y="377"/>
      <point x="403" y="402" type="curve" smooth="yes"/>
    </contour>
    <contour>
      <point x="259" y="260" type="line"/>
      <point x="151" y="260"/>
      <point x="47" y="196"/>
      <point x="47" y="90" type="curve" smooth="yes"/>
      <point x="47" y="-62"/>
      <point x="237" y="-142"/>
      <point x="383" y="-177" type="curve"/>
      <point x="392" y="-164"/>
      <point x="406" y="-129"/>
      <point x="408" y="-105" type="curve"/>
      <point x="298" y="-75"/>
      <point x="161" y="-27"/>
      <point x="161" y="72" type="curve" smooth="yes"/>
      <point x="161" y="134"/>
      <point x="216" y="168"/>
      <point x="281" y="168" type="curve" smooth="yes"/>
      <point x="538" y="168" type="line"/>
      <point x="538" y="260" type="line"/>
    </contour>
  </outline>
</glyph>
